<svg id="Layer_1" data-name="Layer 1" xmlns="http://www.w3.org/2000/svg" viewBox="0 0 740 175"><defs><style>.cls-1{fill:#393;}.cls-2{fill:none;stroke:#393;stroke-linecap:round;stroke-miterlimit:10;stroke-width:2.06px;}</style></defs><title>5-steps-banner</title><path class="cls-1" d="M24.64,62.81a6.55,6.55,0,0,1,3.13-5.89L42.56,45.65a5.15,5.15,0,0,1,3.38-1.25,8.84,8.84,0,0,1,5,1.5,4.42,4.42,0,0,1,2.26,3.76V131.1a4.19,4.19,0,0,1-2.44,3.76,11.39,11.39,0,0,1-5.7,1.38,11.3,11.3,0,0,1-5.76-1.38,4.19,4.19,0,0,1-2.38-3.76V64.19l-4,4a4.34,4.34,0,0,1-3,1.13,4.53,4.53,0,0,1-3.76-2A7.33,7.33,0,0,1,24.64,62.81Z"/><path class="cls-1" d="M154.22,130.83V118.61a19,19,0,0,1,3.78-11,48.7,48.7,0,0,1,9.17-9.82l12-8.71a60.28,60.28,0,0,0,10.08-9.35q4.16-4.93,4.16-9.85a11.61,11.61,0,0,0-3-7.83q-3-3.41-8.76-3.41a11.59,11.59,0,0,0-8.06,2.84q-3.15,2.84-3.15,8.51a5.49,5.49,0,0,1-2.28,4.32,9.33,9.33,0,0,1-6.1,1.87q-7.28,0-7.28-8.77a20.36,20.36,0,0,1,8-16.67,29.11,29.11,0,0,1,18.79-6.39,30.25,30.25,0,0,1,19.78,6.84q8.35,6.84,8.35,18.18a26.64,26.64,0,0,1-4.08,14.21,42.15,42.15,0,0,1-10,11.24q-5.91,4.61-11.75,8.53a73.9,73.9,0,0,0-9.94,7.83q-4.09,3.91-4.09,7.45v3h34.94a4.48,4.48,0,0,1,3.58,2.07,7.94,7.94,0,0,1,1.57,4.95,8.63,8.63,0,0,1-1.53,5.07,4.32,4.32,0,0,1-3.5,2.19H161.22a8.53,8.53,0,0,1-4.67-1.51A4.33,4.33,0,0,1,154.22,130.83Z"/><path class="cls-1" d="M311,113.94q0-3.63,1.75-5t6-1.38q4.89,0,6.64,1.32t1.75,4.45a7.74,7.74,0,0,0,3.51,6.7q3.51,2.44,9.52,2.44,7,0,10.21-3.19t3.2-10.34v-2.38q0-11.9-13.78-11.9-4.76,0-4.76-6.39t4.85-6.39q5.47,0,8.45-2.43t3-9.78q0-11-11-11T329.16,67q0,6.23-7.77,6.23-5.26,0-6.83-1.43T313,66.28A20,20,0,0,1,314.38,59a23.71,23.71,0,0,1,4.32-7,20.91,20.91,0,0,1,8.58-5.53,37,37,0,0,1,13.16-2.14Q367,44.39,367,66.9a30.56,30.56,0,0,1-2.59,13,14.87,14.87,0,0,1-7.27,7.68q12.75,5,12.75,18.92v2.38q0,14.28-8.33,21.05t-21.74,6.77q-14.16,0-21.49-7T311,113.94Z"/><path class="cls-1" d="M470.9,109.76a6.71,6.71,0,0,1,.88-3.23l29.7-57.91a7,7,0,0,1,6.89-4.23,9.94,9.94,0,0,1,5.33,1.82q2.82,1.82,2.82,4.45a5,5,0,0,1-.63,2.13L491.82,100.9h14.66V87.12a4.38,4.38,0,0,1,2.38-4,12.74,12.74,0,0,1,11.53,0,4.38,4.38,0,0,1,2.38,4V100.9h5.89a4.27,4.27,0,0,1,3.76,2.13,9.13,9.13,0,0,1,1.38,5.07,8.21,8.21,0,0,1-1.57,4.9,4.42,4.42,0,0,1-3.57,2.18h-5.89v15.44a4.41,4.41,0,0,1-2.38,3.93,12.14,12.14,0,0,1-11.47,0,4.39,4.39,0,0,1-2.44-3.93V115.19H476.41a5.52,5.52,0,0,1-3.95-1.48A5.17,5.17,0,0,1,470.9,109.76Z"/><path class="cls-1" d="M634.81,114.06q0-4.13,2-5.76t6.14-1.63q4.76,0,6.45,1.63a6.14,6.14,0,0,1,1.69,4.64,8,8,0,0,0,3.63,7,16,16,0,0,0,9.27,2.51q13.28,0,13.28-13.91v-2.38q0-7-3.45-10.53t-9.71-3.51H645.59q-3.64,0-5.07-1.62a6.91,6.91,0,0,1-1.44-4.74,4.78,4.78,0,0,1,.43-1.56,4.83,4.83,0,0,0,.43-1.68l2.52-33q.38-5.14,3.13-5.14h38.59a4,4,0,0,1,3.57,2.13,10.22,10.22,0,0,1,0,10,4,4,0,0,1-3.56,2.13H656.11l-1.63,20.67h9.65q13.41,0,21.43,6.45t8,20.36v2.38q0,14.54-8,21.36t-21.18,6.83q-13.66,0-21.61-6.7T634.81,114.06Z"/><path class="cls-1" d="M19.15,23.29a1,1,0,0,1,.24-.61.67.67,0,0,1,.5-.29q.19,0,.58.42l.87.94a4.24,4.24,0,0,0,1.56.94,6.87,6.87,0,0,0,2.5.42,5.4,5.4,0,0,0,3.81-1.23,4.68,4.68,0,0,0,1.32-3.61,5.25,5.25,0,0,0-.81-3,4.61,4.61,0,0,0-2-1.71q-1.19-.52-2.6-1.07t-2.6-1.08a4.66,4.66,0,0,1-2-1.76,5.52,5.52,0,0,1-.81-3.1,6.12,6.12,0,0,1,.61-2.85A4.25,4.25,0,0,1,22,3.92a7.55,7.55,0,0,1,2.08-.84,10,10,0,0,1,2.24-.24,11.12,11.12,0,0,1,3.6.56q1.66.57,1.66,1.27a1.08,1.08,0,0,1-.23.61.64.64,0,0,1-.52.32,2.11,2.11,0,0,1-.71-.31,8.18,8.18,0,0,0-1.56-.61,7.87,7.87,0,0,0-2.27-.31,6.34,6.34,0,0,0-3.52.92,3.43,3.43,0,0,0-1.42,3.11,3.87,3.87,0,0,0,.6,2.21A4,4,0,0,0,23.49,12a15.72,15.72,0,0,0,2.1.87q1.14.39,2.31.87A9.86,9.86,0,0,1,30,14.94a5.09,5.09,0,0,1,1.55,2,7.53,7.53,0,0,1,.6,3.14A6.32,6.32,0,0,1,30.36,25a6.85,6.85,0,0,1-4.79,1.63A8.23,8.23,0,0,1,21,25.45Q19.15,24.26,19.15,23.29Z"/><path class="cls-1" d="M35.67,21.84V4.52A.59.59,0,0,1,35.91,4a.83.83,0,0,1,.53-.19A.87.87,0,0,1,37,4a.6.6,0,0,1,.24.48v6.71h4.29a.55.55,0,0,1,.44.21.75.75,0,0,1,.18.5.67.67,0,0,1-.19.47.57.57,0,0,1-.42.21H37.25v9.23A3.25,3.25,0,0,0,38,24.26a3.71,3.71,0,0,0,2.58.71h.81a.72.72,0,0,1,.74.74.74.74,0,0,1-.21.52.7.7,0,0,1-.53.23h-.81Q35.67,26.45,35.67,21.84Z"/><path class="cls-1" d="M44,20.68V16.84a5.54,5.54,0,0,1,1.74-4.1A5.77,5.77,0,0,1,49.93,11,5.71,5.71,0,0,1,54,12.71a5.56,5.56,0,0,1,1.73,4.16,3.91,3.91,0,0,1-.21,1.4,1.36,1.36,0,0,1-.66.76,2.6,2.6,0,0,1-.82.27,8.57,8.57,0,0,1-1,0H45.57v1.35A4,4,0,0,0,47,24a5.59,5.59,0,0,0,3.74,1.23,5.27,5.27,0,0,0,3.19-1,1.25,1.25,0,0,1,.64-.32.65.65,0,0,1,.51.26.8.8,0,0,1,.22.52q0,.61-1.33,1.29a7.2,7.2,0,0,1-3.29.68A7.05,7.05,0,0,1,45.86,25,5.48,5.48,0,0,1,44,20.68ZM45.57,18h6.87a3.07,3.07,0,0,0,1.45-.23,1,1,0,0,0,.35-.94A4.45,4.45,0,0,0,53,13.81a4,4,0,0,0-3.1-1.36,4.22,4.22,0,0,0-3.08,1.26,4.07,4.07,0,0,0-1.27,3Z"/><path class="cls-1" d="M59.12,33.32V11.87q0-.65.77-.65a.86.86,0,0,1,.55.18.57.57,0,0,1,.23.47v1.61A4.62,4.62,0,0,1,65,11a5.56,5.56,0,0,1,4.1,1.73,5.72,5.72,0,0,1,1.71,4.18v3.74a5.85,5.85,0,0,1-1.73,4.16,5.39,5.39,0,0,1-4,1.81,5,5,0,0,1-2.61-.71A4.5,4.5,0,0,1,60.7,24.2v9.13a.66.66,0,0,1-.24.48.8.8,0,0,1-.56.23.78.78,0,0,1-.55-.21A.66.66,0,0,1,59.12,33.32ZM60.7,21.78A3.32,3.32,0,0,0,62,23.94a4.14,4.14,0,0,0,2.94,1.23,4,4,0,0,0,3-1.37,4.42,4.42,0,0,0,1.29-3.11V16.94a4.3,4.3,0,0,0-1.31-3.06,4.11,4.11,0,0,0-3-1.36A4.07,4.07,0,0,0,62,13.73a4.25,4.25,0,0,0-1.26,3.21Z"/><path class="cls-1" d="M156.15,23.29a1,1,0,0,1,.24-.61.67.67,0,0,1,.5-.29q.19,0,.58.42l.87.94a4.24,4.24,0,0,0,1.56.94,6.87,6.87,0,0,0,2.5.42,5.4,5.4,0,0,0,3.81-1.23,4.68,4.68,0,0,0,1.32-3.61,5.25,5.25,0,0,0-.81-3,4.61,4.61,0,0,0-2-1.71q-1.19-.52-2.6-1.07t-2.6-1.08a4.66,4.66,0,0,1-2-1.76,5.52,5.52,0,0,1-.81-3.1,6.12,6.12,0,0,1,.61-2.85A4.25,4.25,0,0,1,159,3.92a7.55,7.55,0,0,1,2.08-.84,10,10,0,0,1,2.24-.24,11.12,11.12,0,0,1,3.6.56q1.66.57,1.66,1.27a1.08,1.08,0,0,1-.23.61.64.64,0,0,1-.52.32,2.11,2.11,0,0,1-.71-.31,8.18,8.18,0,0,0-1.56-.61,7.87,7.87,0,0,0-2.27-.31,6.34,6.34,0,0,0-3.52.92,3.43,3.43,0,0,0-1.42,3.11,3.87,3.87,0,0,0,.6,2.21A4,4,0,0,0,160.49,12a15.72,15.72,0,0,0,2.1.87q1.14.39,2.31.87A9.86,9.86,0,0,1,167,14.94a5.09,5.09,0,0,1,1.55,2,7.53,7.53,0,0,1,.6,3.14A6.32,6.32,0,0,1,167.36,25a6.85,6.85,0,0,1-4.79,1.63,8.23,8.23,0,0,1-4.6-1.19Q156.15,24.26,156.15,23.29Z"/><path class="cls-1" d="M172.66,21.84V4.52a.59.59,0,0,1,.24-.48.83.83,0,0,1,.53-.19A.87.87,0,0,1,174,4a.6.6,0,0,1,.24.48v6.71h4.29a.55.55,0,0,1,.44.21.75.75,0,0,1,.18.5.67.67,0,0,1-.19.47.57.57,0,0,1-.42.21h-4.29v9.23a3.25,3.25,0,0,0,.74,2.42,3.71,3.71,0,0,0,2.58.71h.81a.72.72,0,0,1,.74.74.74.74,0,0,1-.21.52.7.7,0,0,1-.53.23h-.81Q172.66,26.45,172.66,21.84Z"/><path class="cls-1" d="M181,20.68V16.84a5.53,5.53,0,0,1,1.74-4.1A5.77,5.77,0,0,1,186.92,11,5.71,5.71,0,0,1,191,12.71a5.56,5.56,0,0,1,1.73,4.16,3.92,3.92,0,0,1-.21,1.4,1.37,1.37,0,0,1-.66.76,2.61,2.61,0,0,1-.82.27,8.56,8.56,0,0,1-1,0h-7.46v1.35A4,4,0,0,0,184,24a5.59,5.59,0,0,0,3.74,1.23,5.26,5.26,0,0,0,3.19-1,1.26,1.26,0,0,1,.64-.32.66.66,0,0,1,.51.26.8.8,0,0,1,.22.52q0,.61-1.33,1.29a7.19,7.19,0,0,1-3.29.68A7.06,7.06,0,0,1,182.86,25,5.48,5.48,0,0,1,181,20.68ZM182.57,18h6.87a3.08,3.08,0,0,0,1.45-.23,1,1,0,0,0,.35-.94A4.45,4.45,0,0,0,190,13.81a4,4,0,0,0-3.1-1.36,4.22,4.22,0,0,0-3.08,1.26,4.07,4.07,0,0,0-1.28,3Z"/><path class="cls-1" d="M196.12,33.32V11.87q0-.65.77-.65a.86.86,0,0,1,.55.18.57.57,0,0,1,.23.47v1.61A4.62,4.62,0,0,1,202,11a5.57,5.57,0,0,1,4.1,1.73,5.72,5.72,0,0,1,1.71,4.18v3.74a5.85,5.85,0,0,1-1.73,4.16,5.39,5.39,0,0,1-4,1.81,5,5,0,0,1-2.61-.71,4.5,4.5,0,0,1-1.74-1.74v9.13a.66.66,0,0,1-.24.48.8.8,0,0,1-.56.23.78.78,0,0,1-.55-.21A.66.66,0,0,1,196.12,33.32Zm1.58-11.55A3.32,3.32,0,0,0,199,23.94a4.14,4.14,0,0,0,2.94,1.23,4,4,0,0,0,3-1.37,4.42,4.42,0,0,0,1.29-3.11V16.94a4.3,4.3,0,0,0-1.31-3.06,4.11,4.11,0,0,0-3-1.36,4.07,4.07,0,0,0-2.9,1.21,4.25,4.25,0,0,0-1.26,3.21Z"/><path class="cls-1" d="M314.48,23.29a1,1,0,0,1,.24-.61.67.67,0,0,1,.5-.29q.19,0,.58.42l.87.94a4.23,4.23,0,0,0,1.56.94,6.86,6.86,0,0,0,2.5.42,5.4,5.4,0,0,0,3.81-1.23,4.68,4.68,0,0,0,1.32-3.61,5.24,5.24,0,0,0-.81-3,4.61,4.61,0,0,0-2-1.71q-1.19-.52-2.6-1.07t-2.6-1.08a4.66,4.66,0,0,1-2-1.76,5.52,5.52,0,0,1-.81-3.1,6.11,6.11,0,0,1,.61-2.85,4.25,4.25,0,0,1,1.64-1.77,7.56,7.56,0,0,1,2.08-.84,10,10,0,0,1,2.24-.24,11.12,11.12,0,0,1,3.6.56q1.66.57,1.66,1.27a1.08,1.08,0,0,1-.23.61.63.63,0,0,1-.52.32,2.11,2.11,0,0,1-.71-.31,8.2,8.2,0,0,0-1.56-.61,7.87,7.87,0,0,0-2.27-.31,6.34,6.34,0,0,0-3.52.92,3.42,3.42,0,0,0-1.42,3.11,3.87,3.87,0,0,0,.6,2.21A4,4,0,0,0,318.82,12a15.79,15.79,0,0,0,2.1.87q1.14.39,2.31.87a9.87,9.87,0,0,1,2.11,1.19,5.09,5.09,0,0,1,1.55,2,7.53,7.53,0,0,1,.6,3.14A6.33,6.33,0,0,1,325.7,25a6.85,6.85,0,0,1-4.79,1.63,8.23,8.23,0,0,1-4.6-1.19Q314.48,24.26,314.48,23.29Z"/><path class="cls-1" d="M331,21.84V4.52a.6.6,0,0,1,.24-.48.83.83,0,0,1,.53-.19.87.87,0,0,1,.56.19.6.6,0,0,1,.24.48v6.71h4.29a.55.55,0,0,1,.44.21.75.75,0,0,1,.18.5.67.67,0,0,1-.19.47.57.57,0,0,1-.42.21h-4.29v9.23a3.25,3.25,0,0,0,.74,2.42,3.7,3.7,0,0,0,2.58.71h.81a.72.72,0,0,1,.74.74.74.74,0,0,1-.21.52.7.7,0,0,1-.53.23h-.81Q331,26.45,331,21.84Z"/><path class="cls-1" d="M339.33,20.68V16.84a5.54,5.54,0,0,1,1.74-4.1A5.77,5.77,0,0,1,345.26,11a5.7,5.7,0,0,1,4.11,1.68,5.56,5.56,0,0,1,1.73,4.16,3.92,3.92,0,0,1-.21,1.4,1.37,1.37,0,0,1-.66.76,2.61,2.61,0,0,1-.82.27,8.58,8.58,0,0,1-1,0h-7.46v1.35A4.05,4.05,0,0,0,342.36,24a5.59,5.59,0,0,0,3.74,1.23,5.26,5.26,0,0,0,3.19-1,1.26,1.26,0,0,1,.64-.32.66.66,0,0,1,.51.26.8.8,0,0,1,.22.52q0,.61-1.33,1.29a7.2,7.2,0,0,1-3.29.68A7.05,7.05,0,0,1,341.2,25,5.48,5.48,0,0,1,339.33,20.68ZM340.91,18h6.87a3.07,3.07,0,0,0,1.45-.23,1,1,0,0,0,.35-.94,4.45,4.45,0,0,0-1.23-3.06,4,4,0,0,0-3.1-1.36,4.22,4.22,0,0,0-3.08,1.26,4.07,4.07,0,0,0-1.27,3Z"/><path class="cls-1" d="M354.45,33.32V11.87q0-.65.77-.65a.86.86,0,0,1,.55.18.57.57,0,0,1,.23.47v1.61A4.62,4.62,0,0,1,360.33,11a5.57,5.57,0,0,1,4.1,1.73,5.72,5.72,0,0,1,1.71,4.18v3.74a5.85,5.85,0,0,1-1.73,4.16,5.39,5.39,0,0,1-4,1.81,5,5,0,0,1-2.61-.71A4.5,4.5,0,0,1,356,24.2v9.13a.66.66,0,0,1-.24.48.8.8,0,0,1-.56.23.78.78,0,0,1-.55-.21A.66.66,0,0,1,354.45,33.32ZM356,21.78a3.32,3.32,0,0,0,1.29,2.16,4.14,4.14,0,0,0,2.94,1.23,4,4,0,0,0,3-1.37,4.42,4.42,0,0,0,1.29-3.11V16.94a4.3,4.3,0,0,0-1.31-3.06,4.11,4.11,0,0,0-3-1.36,4.07,4.07,0,0,0-2.9,1.21A4.25,4.25,0,0,0,356,16.94Z"/><path class="cls-1" d="M476.4,23.29a1,1,0,0,1,.24-.61.67.67,0,0,1,.5-.29q.19,0,.58.42l.87.94a4.23,4.23,0,0,0,1.56.94,6.86,6.86,0,0,0,2.5.42,5.4,5.4,0,0,0,3.81-1.23,4.68,4.68,0,0,0,1.32-3.61,5.24,5.24,0,0,0-.81-3,4.61,4.61,0,0,0-2-1.71q-1.19-.52-2.6-1.07t-2.6-1.08a4.66,4.66,0,0,1-2-1.76,5.52,5.52,0,0,1-.81-3.1,6.11,6.11,0,0,1,.61-2.85,4.25,4.25,0,0,1,1.64-1.77,7.56,7.56,0,0,1,2.08-.84,10,10,0,0,1,2.24-.24,11.12,11.12,0,0,1,3.6.56q1.66.57,1.66,1.27a1.08,1.08,0,0,1-.23.61.63.63,0,0,1-.52.32,2.11,2.11,0,0,1-.71-.31,8.2,8.2,0,0,0-1.56-.61,7.87,7.87,0,0,0-2.27-.31,6.34,6.34,0,0,0-3.52.92,3.42,3.42,0,0,0-1.42,3.11,3.87,3.87,0,0,0,.6,2.21A4,4,0,0,0,480.73,12a15.79,15.79,0,0,0,2.1.87q1.14.39,2.31.87a9.87,9.87,0,0,1,2.11,1.19,5.09,5.09,0,0,1,1.55,2,7.53,7.53,0,0,1,.6,3.14A6.33,6.33,0,0,1,487.61,25a6.85,6.85,0,0,1-4.79,1.63,8.23,8.23,0,0,1-4.6-1.19Q476.4,24.26,476.4,23.29Z"/><path class="cls-1" d="M492.91,21.84V4.52a.6.6,0,0,1,.24-.48.83.83,0,0,1,.53-.19.87.87,0,0,1,.56.19.6.6,0,0,1,.24.48v6.71h4.29a.55.55,0,0,1,.44.21.75.75,0,0,1,.18.5.67.67,0,0,1-.19.47.57.57,0,0,1-.42.21h-4.29v9.23a3.25,3.25,0,0,0,.74,2.42,3.7,3.7,0,0,0,2.58.71h.81a.72.72,0,0,1,.74.74.74.74,0,0,1-.21.52.7.7,0,0,1-.53.23h-.81Q492.91,26.45,492.91,21.84Z"/><path class="cls-1" d="M501.24,20.68V16.84a5.54,5.54,0,0,1,1.74-4.1A5.77,5.77,0,0,1,507.17,11a5.7,5.7,0,0,1,4.11,1.68A5.56,5.56,0,0,1,513,16.87a3.92,3.92,0,0,1-.21,1.4,1.37,1.37,0,0,1-.66.76,2.61,2.61,0,0,1-.82.27,8.58,8.58,0,0,1-1,0h-7.46v1.35A4.05,4.05,0,0,0,504.27,24,5.59,5.59,0,0,0,508,25.2a5.26,5.26,0,0,0,3.19-1,1.26,1.26,0,0,1,.64-.32.66.66,0,0,1,.51.26.8.8,0,0,1,.22.52q0,.61-1.33,1.29a7.2,7.2,0,0,1-3.29.68A7.05,7.05,0,0,1,503.11,25,5.48,5.48,0,0,1,501.24,20.68ZM502.82,18h6.87a3.07,3.07,0,0,0,1.45-.23,1,1,0,0,0,.35-.94,4.45,4.45,0,0,0-1.23-3.06,4,4,0,0,0-3.1-1.36,4.22,4.22,0,0,0-3.08,1.26,4.07,4.07,0,0,0-1.27,3Z"/><path class="cls-1" d="M516.37,33.32V11.87q0-.65.77-.65a.86.86,0,0,1,.55.18.57.57,0,0,1,.23.47v1.61A4.62,4.62,0,0,1,522.24,11a5.57,5.57,0,0,1,4.1,1.73A5.72,5.72,0,0,1,528,16.94v3.74a5.85,5.85,0,0,1-1.73,4.16,5.39,5.39,0,0,1-4,1.81,5,5,0,0,1-2.61-.71,4.5,4.5,0,0,1-1.74-1.74v9.13a.66.66,0,0,1-.24.48.8.8,0,0,1-.56.23.78.78,0,0,1-.55-.21A.66.66,0,0,1,516.37,33.32Zm1.58-11.55a3.32,3.32,0,0,0,1.29,2.16,4.14,4.14,0,0,0,2.94,1.23,4,4,0,0,0,3-1.37,4.42,4.42,0,0,0,1.29-3.11V16.94a4.3,4.3,0,0,0-1.31-3.06,4.11,4.11,0,0,0-3-1.36,4.07,4.07,0,0,0-2.9,1.21,4.25,4.25,0,0,0-1.26,3.21Z"/><path class="cls-1" d="M638.24,23.29a1,1,0,0,1,.24-.61.67.67,0,0,1,.5-.29q.19,0,.58.42l.87.94a4.23,4.23,0,0,0,1.56.94,6.86,6.86,0,0,0,2.5.42,5.4,5.4,0,0,0,3.81-1.23,4.68,4.68,0,0,0,1.32-3.61,5.24,5.24,0,0,0-.81-3,4.61,4.61,0,0,0-2-1.71q-1.19-.52-2.6-1.07t-2.6-1.08a4.66,4.66,0,0,1-2-1.76,5.52,5.52,0,0,1-.81-3.1,6.11,6.11,0,0,1,.61-2.85,4.25,4.25,0,0,1,1.64-1.77,7.56,7.56,0,0,1,2.08-.84,10,10,0,0,1,2.24-.24,11.12,11.12,0,0,1,3.6.56q1.66.57,1.66,1.27a1.08,1.08,0,0,1-.23.61.63.63,0,0,1-.52.32,2.11,2.11,0,0,1-.71-.31,8.2,8.2,0,0,0-1.56-.61,7.87,7.87,0,0,0-2.27-.31,6.34,6.34,0,0,0-3.52.92,3.42,3.42,0,0,0-1.42,3.11,3.87,3.87,0,0,0,.6,2.21A4,4,0,0,0,642.58,12a15.79,15.79,0,0,0,2.1.87q1.14.39,2.31.87a9.87,9.87,0,0,1,2.11,1.19,5.09,5.09,0,0,1,1.55,2,7.53,7.53,0,0,1,.6,3.14A6.33,6.33,0,0,1,649.46,25a6.85,6.85,0,0,1-4.79,1.63,8.23,8.23,0,0,1-4.6-1.19Q638.24,24.26,638.24,23.29Z"/><path class="cls-1" d="M654.76,21.84V4.52A.6.6,0,0,1,655,4a.83.83,0,0,1,.53-.19.87.87,0,0,1,.56.19.6.6,0,0,1,.24.48v6.71h4.29a.55.55,0,0,1,.44.21.75.75,0,0,1,.18.5.67.67,0,0,1-.19.47.57.57,0,0,1-.42.21h-4.29v9.23a3.25,3.25,0,0,0,.74,2.42,3.7,3.7,0,0,0,2.58.71h.81a.72.72,0,0,1,.74.74.74.74,0,0,1-.21.52.7.7,0,0,1-.53.23h-.81Q654.76,26.45,654.76,21.84Z"/><path class="cls-1" d="M663.09,20.68V16.84a5.54,5.54,0,0,1,1.74-4.1A5.77,5.77,0,0,1,669,11a5.7,5.7,0,0,1,4.11,1.68,5.56,5.56,0,0,1,1.73,4.16,3.92,3.92,0,0,1-.21,1.4A1.37,1.37,0,0,1,674,19a2.61,2.61,0,0,1-.82.27,8.58,8.58,0,0,1-1,0h-7.46v1.35A4.05,4.05,0,0,0,666.12,24a5.59,5.59,0,0,0,3.74,1.23,5.26,5.26,0,0,0,3.19-1,1.26,1.26,0,0,1,.64-.32.66.66,0,0,1,.51.26.8.8,0,0,1,.22.52q0,.61-1.33,1.29a7.2,7.2,0,0,1-3.29.68A7.05,7.05,0,0,1,665,25,5.48,5.48,0,0,1,663.09,20.68ZM664.67,18h6.87a3.07,3.07,0,0,0,1.45-.23,1,1,0,0,0,.35-.94,4.45,4.45,0,0,0-1.23-3.06,4,4,0,0,0-3.1-1.36,4.22,4.22,0,0,0-3.08,1.26,4.07,4.07,0,0,0-1.27,3Z"/><path class="cls-1" d="M678.21,33.32V11.87q0-.65.77-.65a.86.86,0,0,1,.55.18.57.57,0,0,1,.23.47v1.61A4.62,4.62,0,0,1,684.09,11a5.57,5.57,0,0,1,4.1,1.73,5.72,5.72,0,0,1,1.71,4.18v3.74a5.85,5.85,0,0,1-1.73,4.16,5.39,5.39,0,0,1-4,1.81,5,5,0,0,1-2.61-.71,4.5,4.5,0,0,1-1.74-1.74v9.13a.66.66,0,0,1-.24.48A.8.8,0,0,1,679,34a.78.78,0,0,1-.55-.21A.66.66,0,0,1,678.21,33.32Zm1.58-11.55a3.32,3.32,0,0,0,1.29,2.16A4.14,4.14,0,0,0,684,25.16a4,4,0,0,0,3-1.37,4.42,4.42,0,0,0,1.29-3.11V16.94A4.3,4.3,0,0,0,687,13.87a4.11,4.11,0,0,0-3-1.36,4.07,4.07,0,0,0-2.9,1.21,4.25,4.25,0,0,0-1.26,3.21Z"/><line class="cls-2" x1="92.39" y1="89.7" x2="115.04" y2="89.7"/><line class="cls-2" x1="249.16" y1="89.7" x2="271.81" y2="89.7"/><line class="cls-2" x1="409.07" y1="89.7" x2="431.72" y2="89.7"/><line class="cls-2" x1="572.98" y1="89.7" x2="595.63" y2="89.7"/><path class="cls-1" d="M1,167.94V156.61q0-.36.4-.36H3.93a4.49,4.49,0,0,1,2.5.58A2.43,2.43,0,0,1,7.31,159a3.72,3.72,0,0,1-.38,1.75,2.11,2.11,0,0,1-1,1,2.73,2.73,0,0,1,1.26,1,3.36,3.36,0,0,1,.44,1.86v.3a3.3,3.3,0,0,1-.88,2.56,3.39,3.39,0,0,1-2.36.8h-3a.41.41,0,0,1-.29-.1A.32.32,0,0,1,1,167.94Zm.82-6.56H4a2.8,2.8,0,0,0,1.89-.52,2.3,2.3,0,0,0,.58-1.79,1.8,1.8,0,0,0-.64-1.61A3.43,3.43,0,0,0,3.95,157H1.79Zm0,6.11h2.5q2.49,0,2.49-2.6v-.28a2.46,2.46,0,0,0-.63-1.89,2.64,2.64,0,0,0-1.85-.58H1.79Z"/><path class="cls-1" d="M9.43,165.37v-4.51a.31.31,0,0,1,.12-.24.43.43,0,0,1,.29-.11.41.41,0,0,1,.27.11.31.31,0,0,1,.12.24v4.51a2.21,2.21,0,0,0,.65,1.57,2.11,2.11,0,0,0,3.11,0,2.21,2.21,0,0,0,.65-1.57v-4.53a.29.29,0,0,1,.12-.23.45.45,0,0,1,.29-.1.42.42,0,0,1,.28.1.3.3,0,0,1,.12.23v4.53a3.05,3.05,0,0,1-3,3,2.87,2.87,0,0,1-2.12-.91A2.92,2.92,0,0,1,9.43,165.37Z"/><path class="cls-1" d="M17.32,157.45a.54.54,0,0,1,.18-.4.62.62,0,0,1,.44-.17.6.6,0,0,1,.43.17.54.54,0,0,1,.18.4.62.62,0,0,1-.61.61.6.6,0,0,1-.44-.18A.59.59,0,0,1,17.32,157.45Zm.23,10.48v-7.08q0-.33.4-.33t.41.33v7.08a.34.34,0,0,1-.12.25.41.41,0,0,1-.29.12.39.39,0,0,1-.28-.11A.33.33,0,0,1,17.55,167.93Z"/><path class="cls-1" d="M20.67,167.93V156a.31.31,0,0,1,.12-.25.42.42,0,0,1,.28-.1.44.44,0,0,1,.3.1.31.31,0,0,1,.12.25v11.91a.34.34,0,0,1-.12.25.41.41,0,0,1-.29.12.39.39,0,0,1-.28-.11A.33.33,0,0,1,20.67,167.93Z"/><path class="cls-1" d="M23.48,165.34v-1.91a2.92,2.92,0,0,1,.87-2.13,2.84,2.84,0,0,1,2.09-.88,2.46,2.46,0,0,1,1.33.35,2.41,2.41,0,0,1,.87.9V156a.31.31,0,0,1,.12-.25.44.44,0,0,1,.3-.1.42.42,0,0,1,.28.1.31.31,0,0,1,.12.25v11.91a.34.34,0,0,1-.12.25.39.39,0,0,1-.28.11.38.38,0,0,1-.28-.12.35.35,0,0,1-.12-.25v-.79a2.29,2.29,0,0,1-.9.89,2.6,2.6,0,0,1-1.34.36,2.75,2.75,0,0,1-2.05-.92A3,3,0,0,1,23.48,165.34Zm.81,0a2.26,2.26,0,0,0,.66,1.59,2,2,0,0,0,1.53.7A2.12,2.12,0,0,0,28,167a1.7,1.7,0,0,0,.66-1.1v-2.47A2.16,2.16,0,0,0,28,161.8a2.08,2.08,0,0,0-3,.07,2.21,2.21,0,0,0-.66,1.57Z"/><path class="cls-1" d="M34.11,160.79a.35.35,0,0,1,.15-.28.5.5,0,0,1,.32-.12.27.27,0,0,1,.31.21L37.21,167l2.27-6.34a.35.35,0,0,1,.31-.21.5.5,0,0,1,.31.12.34.34,0,0,1,.15.28.44.44,0,0,1,0,.13L37.63,168l-.35.92q-.1.26-.36.88a5.3,5.3,0,0,1-.48.92q-.21.3-.53.69a1.92,1.92,0,0,1-.67.55,1.77,1.77,0,0,1-.75.16.33.33,0,0,1-.37-.38q0-.38.29-.38,1.37,0,2.39-3.38l-2.66-7.1A.55.55,0,0,1,34.11,160.79Z"/><path class="cls-1" d="M41.32,165.34v-1.91a3,3,0,0,1,5.14-2.13,2.88,2.88,0,0,1,.91,2.13v1.91a2.94,2.94,0,0,1-.91,2.13,2.89,2.89,0,0,1-4.23,0A2.94,2.94,0,0,1,41.32,165.34Zm.81,0a2.27,2.27,0,0,0,.65,1.59,2.05,2.05,0,0,0,1.56.7,2.08,2.08,0,0,0,1.56-.7,2.26,2.26,0,0,0,.66-1.59v-1.91a2.21,2.21,0,0,0-.66-1.57,2.09,2.09,0,0,0-1.56-.69,2.06,2.06,0,0,0-1.56.69,2.22,2.22,0,0,0-.65,1.57Z"/><path class="cls-1" d="M49.15,165.37v-4.51a.31.31,0,0,1,.12-.24.43.43,0,0,1,.29-.11.41.41,0,0,1,.27.11.31.31,0,0,1,.12.24v4.51a2.21,2.21,0,0,0,.65,1.57,2.11,2.11,0,0,0,3.11,0,2.21,2.21,0,0,0,.65-1.57v-4.53a.29.29,0,0,1,.12-.23.45.45,0,0,1,.29-.1.42.42,0,0,1,.28.1.3.3,0,0,1,.12.23v4.53a3.05,3.05,0,0,1-3,3,2.87,2.87,0,0,1-2.12-.91A2.92,2.92,0,0,1,49.15,165.37Z"/><path class="cls-1" d="M57.27,167.93v-7.08q0-.33.4-.33a.44.44,0,0,1,.28.09.29.29,0,0,1,.12.24v.84a2.44,2.44,0,0,1,.88-.91,2.52,2.52,0,0,1,1.36-.36h.59a.35.35,0,0,1,.26.11.4.4,0,0,1,0,.54.35.35,0,0,1-.26.11H60.3a2.13,2.13,0,0,0-1.56.67,2.35,2.35,0,0,0-.67,1.74v4.35a.34.34,0,0,1-.12.25.41.41,0,0,1-.29.12.39.39,0,0,1-.28-.11A.33.33,0,0,1,57.27,167.93Z"/><path class="cls-1" d="M66,167.93V156a.31.31,0,0,1,.12-.25.42.42,0,0,1,.28-.1.44.44,0,0,1,.3.1.31.31,0,0,1,.12.25v11.91a.34.34,0,0,1-.12.25.41.41,0,0,1-.29.12.39.39,0,0,1-.28-.11A.33.33,0,0,1,66,167.93Z"/><path class="cls-1" d="M68.75,165.34v-1.91a3,3,0,0,1,5.14-2.13,2.88,2.88,0,0,1,.91,2.13v1.91a2.94,2.94,0,0,1-.91,2.13,2.89,2.89,0,0,1-4.23,0A2.94,2.94,0,0,1,68.75,165.34Zm.81,0a2.27,2.27,0,0,0,.65,1.59,2.05,2.05,0,0,0,1.56.7,2.08,2.08,0,0,0,1.56-.7,2.26,2.26,0,0,0,.66-1.59v-1.91a2.21,2.21,0,0,0-.66-1.57,2.09,2.09,0,0,0-1.56-.69,2.06,2.06,0,0,0-1.56.69,2.22,2.22,0,0,0-.65,1.57Z"/><path class="cls-1" d="M76,170a1.87,1.87,0,0,1,1.43-1.81,1.18,1.18,0,0,1-1-1.15,1.28,1.28,0,0,1,.81-1.17,2.63,2.63,0,0,1-.87-2.08v-.68a2.63,2.63,0,0,1,.76-1.94,2.67,2.67,0,0,1,2-.76,2.63,2.63,0,0,1,1.94.74,2.24,2.24,0,0,1,.56-.74,1,1,0,0,1,.63-.28.42.42,0,0,1,.32.12.38.38,0,0,1,.11.26.3.3,0,0,1-.3.33,1.18,1.18,0,0,0-1,.74,2.53,2.53,0,0,1,.42,1.53v.68a2.64,2.64,0,0,1-2.75,2.73,2.62,2.62,0,0,1-1.3-.31q-.59.3-.59.73t.54.62a5,5,0,0,0,1.29.25q.76.06,1.51.19a2.61,2.61,0,0,1,1.28.59,1.61,1.61,0,0,1,.53,1.28,2,2,0,0,1-.85,1.69,3.91,3.91,0,0,1-2.3.6,4.19,4.19,0,0,1-2.35-.59A1.8,1.8,0,0,1,76,170Zm.77-.08a1.32,1.32,0,0,0,.66,1.14,3.25,3.25,0,0,0,1.81.44,3,3,0,0,0,1.73-.43,1.35,1.35,0,0,0,.61-1.17,1.08,1.08,0,0,0-.17-.62,1.34,1.34,0,0,0-.42-.4,2.38,2.38,0,0,0-.63-.25,4.26,4.26,0,0,0-.67-.12l-.71-.06-.59-.07Q76.82,168.87,76.82,169.92Zm.43-6.14a2.14,2.14,0,0,0,.53,1.49,2,2,0,0,0,2.85,0,2.11,2.11,0,0,0,.53-1.48v-.68a2.06,2.06,0,0,0-.53-1.46,1.86,1.86,0,0,0-1.43-.57,1.83,1.83,0,0,0-1.42.57,2.08,2.08,0,0,0-.52,1.46Z"/><path class="cls-1" d="M83.73,165.34v-1.91a3,3,0,0,1,5.14-2.13,2.88,2.88,0,0,1,.91,2.13v1.91a2.94,2.94,0,0,1-.91,2.13,2.89,2.89,0,0,1-4.23,0A2.94,2.94,0,0,1,83.73,165.34Zm.81,0a2.27,2.27,0,0,0,.65,1.59,2.05,2.05,0,0,0,1.56.7,2.08,2.08,0,0,0,1.56-.7,2.26,2.26,0,0,0,.66-1.59v-1.91a2.21,2.21,0,0,0-.66-1.57,2.09,2.09,0,0,0-1.56-.69,2.06,2.06,0,0,0-1.56.69,2.22,2.22,0,0,0-.65,1.57Z"/><path class="cls-1" d="M116.58,164.93v-5.22a3.36,3.36,0,0,1,.93-2.62,4,4,0,0,1,4.83-.06,2.44,2.44,0,0,1,.88,1.89.68.68,0,0,1-.1.43.39.39,0,0,1-.31.12q-.41,0-.41-.35a2.29,2.29,0,0,0-.12-.65,3,3,0,0,0-.35-.66,1.59,1.59,0,0,0-.75-.56,3.32,3.32,0,0,0-1.24-.21q-2.54,0-2.54,2.67v5.22q0,2.67,2.59,2.67a3.22,3.22,0,0,0,1-.15,2.3,2.3,0,0,0,.68-.34,1.41,1.41,0,0,0,.4-.53,3.23,3.23,0,0,0,.21-.54q0-.2.1-.54a.35.35,0,0,1,.4-.35.41.41,0,0,1,.33.12.72.72,0,0,1,.1.44,2.42,2.42,0,0,1-.9,1.88,3.55,3.55,0,0,1-2.43.79,3.06,3.06,0,0,1-3.31-3.46Z"/><path class="cls-1" d="M125,167.93V156a.31.31,0,0,1,.12-.25.42.42,0,0,1,.28-.1.44.44,0,0,1,.3.1.31.31,0,0,1,.12.25v5.65a2.38,2.38,0,0,1,.85-.89,2.44,2.44,0,0,1,1.34-.36,2.81,2.81,0,0,1,2.08.89,2.93,2.93,0,0,1,.87,2.13v4.5q0,.36-.41.36t-.4-.36v-4.5a2.21,2.21,0,0,0-.66-1.57,2.08,2.08,0,0,0-3-.07,2.17,2.17,0,0,0-.64,1.64v4.5a.34.34,0,0,1-.12.25.41.41,0,0,1-.29.12.39.39,0,0,1-.28-.11A.33.33,0,0,1,125,167.93Z"/><path class="cls-1" d="M132.72,165.34v-1.91a3,3,0,0,1,5.14-2.13,2.88,2.88,0,0,1,.91,2.13v1.91a2.94,2.94,0,0,1-.91,2.13,2.89,2.89,0,0,1-4.23,0A2.94,2.94,0,0,1,132.72,165.34Zm.81,0a2.27,2.27,0,0,0,.65,1.59,2.05,2.05,0,0,0,1.56.7,2.08,2.08,0,0,0,1.56-.7,2.26,2.26,0,0,0,.66-1.59v-1.91a2.21,2.21,0,0,0-.66-1.57,2.09,2.09,0,0,0-1.56-.69,2.06,2.06,0,0,0-1.56.69,2.22,2.22,0,0,0-.65,1.57Z"/><path class="cls-1" d="M140.31,165.34v-1.91a3,3,0,0,1,5.14-2.13,2.88,2.88,0,0,1,.91,2.13v1.91a2.94,2.94,0,0,1-.91,2.13,2.89,2.89,0,0,1-4.23,0A2.94,2.94,0,0,1,140.31,165.34Zm.81,0a2.27,2.27,0,0,0,.65,1.59,2.05,2.05,0,0,0,1.56.7,2.08,2.08,0,0,0,1.56-.7,2.26,2.26,0,0,0,.66-1.59v-1.91a2.21,2.21,0,0,0-.66-1.57,2.09,2.09,0,0,0-1.56-.69,2.06,2.06,0,0,0-1.56.69,2.22,2.22,0,0,0-.65,1.57Z"/><path class="cls-1" d="M147.73,167.27a.42.42,0,0,1,.09-.25.25.25,0,0,1,.21-.12.38.38,0,0,1,.26.12l.38.26a2.54,2.54,0,0,0,.61.26,3,3,0,0,0,.92.13,2.18,2.18,0,0,0,1.37-.35,1.11,1.11,0,0,0,.44-.91,1.34,1.34,0,0,0-.42-1,2.62,2.62,0,0,0-1-.56l-1.21-.37a2.33,2.33,0,0,1-1-.63,1.68,1.68,0,0,1-.42-1.2,2.12,2.12,0,0,1,.63-1.52,2.48,2.48,0,0,1,1.87-.66,4.25,4.25,0,0,1,1.44.24q.67.24.67.5a.46.46,0,0,1-.12.28.32.32,0,0,1-.25.15l-.58-.22a3.1,3.1,0,0,0-1.15-.22,1.78,1.78,0,0,0-1.33.44,1.38,1.38,0,0,0-.44,1,1,1,0,0,0,.42.87,3.3,3.3,0,0,0,1,.5l1.22.37a2.12,2.12,0,0,1,1,.69,2,2,0,0,1,.42,1.35,1.82,1.82,0,0,1-.68,1.5,3,3,0,0,1-1.89.54,3.83,3.83,0,0,1-1.77-.37Q147.73,167.65,147.73,167.27Z"/><path class="cls-1" d="M154.17,165.34v-2a2.83,2.83,0,0,1,.89-2.09,3,3,0,0,1,2.14-.87,2.91,2.91,0,0,1,2.1.86,2.84,2.84,0,0,1,.88,2.13,2,2,0,0,1-.11.72.69.69,0,0,1-.34.39,1.31,1.31,0,0,1-.42.14,4.33,4.33,0,0,1-.53,0H155v.69a2.07,2.07,0,0,0,.74,1.66,2.86,2.86,0,0,0,1.91.63,2.69,2.69,0,0,0,1-.17,2.65,2.65,0,0,0,.63-.33.64.64,0,0,1,.33-.17.33.33,0,0,1,.26.13.41.41,0,0,1,.11.26q0,.31-.68.66a3.68,3.68,0,0,1-1.68.35,3.61,3.61,0,0,1-2.47-.84A2.8,2.8,0,0,1,154.17,165.34ZM155,164h3.51a1.56,1.56,0,0,0,.74-.12.53.53,0,0,0,.18-.48,2.27,2.27,0,0,0-.63-1.57,2,2,0,0,0-1.58-.69,2.16,2.16,0,0,0-1.57.64,2.08,2.08,0,0,0-.65,1.53Z"/><path class="cls-1" d="M164.38,160.79a.35.35,0,0,1,.15-.28.5.5,0,0,1,.32-.12.27.27,0,0,1,.31.21l2.33,6.34,2.27-6.34a.35.35,0,0,1,.31-.21.5.5,0,0,1,.31.12.34.34,0,0,1,.15.28.44.44,0,0,1,0,.13L167.9,168l-.35.92q-.1.26-.36.88a5.3,5.3,0,0,1-.48.92q-.21.3-.53.69a1.92,1.92,0,0,1-.67.55,1.77,1.77,0,0,1-.75.16.33.33,0,0,1-.37-.38q0-.38.29-.38,1.37,0,2.39-3.38l-2.66-7.1A.55.55,0,0,1,164.38,160.79Z"/><path class="cls-1" d="M171.6,165.34v-1.91a3,3,0,0,1,5.14-2.13,2.88,2.88,0,0,1,.91,2.13v1.91a2.94,2.94,0,0,1-.91,2.13,2.89,2.89,0,0,1-4.23,0A2.94,2.94,0,0,1,171.6,165.34Zm.81,0a2.27,2.27,0,0,0,.65,1.59,2.05,2.05,0,0,0,1.56.7,2.08,2.08,0,0,0,1.56-.7,2.26,2.26,0,0,0,.66-1.59v-1.91a2.21,2.21,0,0,0-.66-1.57,2.09,2.09,0,0,0-1.56-.69,2.06,2.06,0,0,0-1.56.69,2.22,2.22,0,0,0-.65,1.57Z"/><path class="cls-1" d="M179.42,165.37v-4.51a.31.31,0,0,1,.12-.24.43.43,0,0,1,.29-.11.41.41,0,0,1,.27.11.31.31,0,0,1,.12.24v4.51a2.21,2.21,0,0,0,.65,1.57,2.11,2.11,0,0,0,3.11,0,2.22,2.22,0,0,0,.65-1.57v-4.53a.29.29,0,0,1,.12-.23.45.45,0,0,1,.29-.1.42.42,0,0,1,.28.1.29.29,0,0,1,.12.23v4.53a3.05,3.05,0,0,1-3,3,2.87,2.87,0,0,1-2.12-.91A2.92,2.92,0,0,1,179.42,165.37Z"/><path class="cls-1" d="M187.54,167.93v-7.08q0-.33.4-.33a.44.44,0,0,1,.28.09.29.29,0,0,1,.12.24v.84a2.43,2.43,0,0,1,.88-.91,2.52,2.52,0,0,1,1.36-.36h.59a.35.35,0,0,1,.25.11.4.4,0,0,1,0,.54.35.35,0,0,1-.25.11h-.59a2.13,2.13,0,0,0-1.56.67,2.35,2.35,0,0,0-.67,1.74v4.35a.34.34,0,0,1-.12.25.41.41,0,0,1-.29.12.39.39,0,0,1-.28-.11A.34.34,0,0,1,187.54,167.93Z"/><path class="cls-1" d="M196.09,171.8v-11q0-.33.4-.33a.44.44,0,0,1,.28.09.29.29,0,0,1,.12.24v.82a2.36,2.36,0,0,1,2.21-1.25,2.84,2.84,0,0,1,2.09.88,2.92,2.92,0,0,1,.87,2.13v1.91a3,3,0,0,1-.88,2.13,2.75,2.75,0,0,1-2.05.92,2.56,2.56,0,0,1-1.33-.36,2.3,2.3,0,0,1-.89-.89v4.66a.34.34,0,0,1-.12.25.41.41,0,0,1-.29.12.4.4,0,0,1-.28-.11A.34.34,0,0,1,196.09,171.8Zm.81-5.9a1.7,1.7,0,0,0,.66,1.1,2.11,2.11,0,0,0,1.5.63,2,2,0,0,0,1.53-.7,2.26,2.26,0,0,0,.66-1.59v-1.91a2.2,2.2,0,0,0-.67-1.57,2.1,2.1,0,0,0-1.56-.69,2.07,2.07,0,0,0-1.48.62,2.17,2.17,0,0,0-.64,1.64Z"/><path class="cls-1" d="M203.92,167.93v-7.08q0-.33.4-.33a.44.44,0,0,1,.28.09.29.29,0,0,1,.12.24v.84a2.43,2.43,0,0,1,.88-.91,2.52,2.52,0,0,1,1.36-.36h.59a.35.35,0,0,1,.25.11.4.4,0,0,1,0,.54.35.35,0,0,1-.25.11h-.59a2.13,2.13,0,0,0-1.56.67,2.35,2.35,0,0,0-.67,1.74v4.35a.34.34,0,0,1-.12.25.41.41,0,0,1-.29.12.39.39,0,0,1-.28-.11A.34.34,0,0,1,203.92,167.93Z"/><path class="cls-1" d="M208.5,165.34v-1.91a3.05,3.05,0,0,1,3-3,2.94,2.94,0,0,1,2.13.89,2.88,2.88,0,0,1,.91,2.13v1.91a2.94,2.94,0,0,1-.91,2.13,2.89,2.89,0,0,1-4.23,0A2.93,2.93,0,0,1,208.5,165.34Zm.81,0a2.27,2.27,0,0,0,.65,1.59,2.05,2.05,0,0,0,1.56.7,2.08,2.08,0,0,0,1.56-.7,2.26,2.26,0,0,0,.66-1.59v-1.91a2.21,2.21,0,0,0-.66-1.57,2.09,2.09,0,0,0-1.56-.69,2.06,2.06,0,0,0-1.56.69,2.22,2.22,0,0,0-.65,1.57Z"/><path class="cls-1" d="M216.11,165.34v-1.91a2.92,2.92,0,0,1,.87-2.13,2.84,2.84,0,0,1,2.09-.88,2.46,2.46,0,0,1,1.33.35,2.42,2.42,0,0,1,.87.9V156a.31.31,0,0,1,.12-.25.44.44,0,0,1,.3-.1.42.42,0,0,1,.28.1.31.31,0,0,1,.12.25v11.91a.33.33,0,0,1-.12.25.39.39,0,0,1-.28.11.38.38,0,0,1-.28-.12.35.35,0,0,1-.12-.25v-.79a2.29,2.29,0,0,1-.9.89,2.6,2.6,0,0,1-1.34.36,2.75,2.75,0,0,1-2.05-.92A3,3,0,0,1,216.11,165.34Zm.81,0a2.26,2.26,0,0,0,.66,1.59,2,2,0,0,0,1.53.7,2.12,2.12,0,0,0,1.5-.63,1.7,1.7,0,0,0,.66-1.1v-2.47a2.16,2.16,0,0,0-.65-1.63,2.08,2.08,0,0,0-3,.07,2.21,2.21,0,0,0-.66,1.57Z"/><path class="cls-1" d="M224.16,165.37v-4.51a.31.31,0,0,1,.12-.24.42.42,0,0,1,.29-.11.4.4,0,0,1,.27.11.32.32,0,0,1,.12.24v4.51a2.22,2.22,0,0,0,.65,1.57,2.11,2.11,0,0,0,3.11,0,2.22,2.22,0,0,0,.65-1.57v-4.53a.29.29,0,0,1,.12-.23.45.45,0,0,1,.29-.1.42.42,0,0,1,.28.1.29.29,0,0,1,.12.23v4.53a3.05,3.05,0,0,1-3,3,2.87,2.87,0,0,1-2.12-.91A2.92,2.92,0,0,1,224.16,165.37Z"/><path class="cls-1" d="M232,165.34v-1.88a3.12,3.12,0,0,1,.78-2.2,3,3,0,0,1,2.31-.85,3.37,3.37,0,0,1,1.58.34q.64.34.64.67a.39.39,0,0,1-.12.27.35.35,0,0,1-.26.12.64.64,0,0,1-.29-.16,2.83,2.83,0,0,0-.6-.32,2.44,2.44,0,0,0-.94-.16,2.1,2.1,0,0,0-2.31,2.29v1.88a2.08,2.08,0,0,0,2.32,2.29,2.68,2.68,0,0,0,1.61-.49.65.65,0,0,1,.31-.17.33.33,0,0,1,.26.12.41.41,0,0,1,.11.27q0,.35-.67.68a3.63,3.63,0,0,1-1.66.34,3,3,0,0,1-2.31-.84A3.09,3.09,0,0,1,232,165.34Z"/><path class="cls-1" d="M238.94,165.93v-8.85a.3.3,0,0,1,.12-.25.42.42,0,0,1,.27-.1.45.45,0,0,1,.29.1.3.3,0,0,1,.12.25v3.43h2.19a.28.28,0,0,1,.22.11.39.39,0,0,1,.09.26.34.34,0,0,1-.1.24.29.29,0,0,1-.21.11h-2.19v4.71a1.66,1.66,0,0,0,.38,1.24,1.9,1.9,0,0,0,1.32.36h.41a.37.37,0,0,1,.38.38.38.38,0,0,1-.11.26.35.35,0,0,1-.27.12h-.41Q238.94,168.29,238.94,165.93Z"/><path class="cls-1" d="M243.16,167.27a.42.42,0,0,1,.09-.25.26.26,0,0,1,.21-.12.38.38,0,0,1,.26.12l.38.26a2.55,2.55,0,0,0,.61.26,3,3,0,0,0,.92.13,2.18,2.18,0,0,0,1.37-.35,1.12,1.12,0,0,0,.44-.91,1.34,1.34,0,0,0-.42-1,2.62,2.62,0,0,0-1-.56l-1.21-.37a2.32,2.32,0,0,1-1-.63,1.68,1.68,0,0,1-.42-1.2,2.12,2.12,0,0,1,.63-1.52,2.48,2.48,0,0,1,1.87-.66,4.25,4.25,0,0,1,1.44.24q.67.24.67.5a.46.46,0,0,1-.12.28.32.32,0,0,1-.25.15l-.58-.22a3.1,3.1,0,0,0-1.15-.22,1.79,1.79,0,0,0-1.33.44,1.38,1.38,0,0,0-.44,1,1,1,0,0,0,.42.87,3.3,3.3,0,0,0,1,.5l1.22.37a2.12,2.12,0,0,1,1,.69,2,2,0,0,1,.42,1.35,1.82,1.82,0,0,1-.68,1.5,3,3,0,0,1-1.89.54,3.83,3.83,0,0,1-1.77-.37Q243.16,167.65,243.16,167.27Z"/><path class="cls-1" d="M283.06,167.93V156.59q0-.31.38-.35h3a3,3,0,0,1,3.31,3.44v.18a3.06,3.06,0,0,1-3.33,3.46h-2.5v4.6q0,.36-.41.36T283.06,167.93Zm.82-5.35h2.5a2.47,2.47,0,0,0,1.85-.67,2.79,2.79,0,0,0,.65-2v-.18a2.76,2.76,0,0,0-.65-2,2.47,2.47,0,0,0-1.85-.67h-2.5Z"/><path class="cls-1" d="M291.25,167.93v-7.08q0-.33.4-.33a.44.44,0,0,1,.28.09.29.29,0,0,1,.12.24v.84a2.43,2.43,0,0,1,.88-.91,2.52,2.52,0,0,1,1.36-.36h.59a.35.35,0,0,1,.25.11.4.4,0,0,1,0,.54.35.35,0,0,1-.25.11h-.59a2.13,2.13,0,0,0-1.56.67,2.35,2.35,0,0,0-.67,1.74v4.35a.34.34,0,0,1-.12.25.41.41,0,0,1-.29.12.39.39,0,0,1-.28-.11A.34.34,0,0,1,291.25,167.93Z"/><path class="cls-1" d="M296.27,157.45a.54.54,0,0,1,.18-.4.62.62,0,0,1,.44-.17.6.6,0,0,1,.43.17.54.54,0,0,1,.18.4.62.62,0,0,1-.61.61.6.6,0,0,1-.44-.18A.59.59,0,0,1,296.27,157.45Zm.23,10.48v-7.08q0-.33.4-.33t.41.33v7.08a.34.34,0,0,1-.12.25.41.41,0,0,1-.29.12.39.39,0,0,1-.28-.11A.34.34,0,0,1,296.5,167.93Z"/><path class="cls-1" d="M299.48,167.93v-7.08q0-.33.4-.33a.44.44,0,0,1,.28.09.29.29,0,0,1,.12.24v.82a2.36,2.36,0,0,1,.86-.89,2.48,2.48,0,0,1,1.35-.36,2.81,2.81,0,0,1,2.08.89,2.93,2.93,0,0,1,.87,2.13v4.5q0,.36-.41.36c-.26,0-.39-.12-.39-.36v-4.5a2.22,2.22,0,0,0-.66-1.57,2.08,2.08,0,0,0-3-.07,2.17,2.17,0,0,0-.64,1.64v4.5a.34.34,0,0,1-.12.25.41.41,0,0,1-.29.12.39.39,0,0,1-.28-.11A.34.34,0,0,1,299.48,167.93Z"/><path class="cls-1" d="M307.49,165.93v-8.85a.3.3,0,0,1,.12-.25.42.42,0,0,1,.27-.1.45.45,0,0,1,.29.1.3.3,0,0,1,.12.25v3.43h2.19a.28.28,0,0,1,.22.11.39.39,0,0,1,.09.26.34.34,0,0,1-.1.24.29.29,0,0,1-.21.11H308.3v4.71a1.66,1.66,0,0,0,.38,1.24,1.9,1.9,0,0,0,1.32.36h.41a.37.37,0,0,1,.38.38.38.38,0,0,1-.11.26.35.35,0,0,1-.27.12H310Q307.49,168.29,307.49,165.93Z"/><path class="cls-1" d="M314.69,160.79a.35.35,0,0,1,.14-.28.51.51,0,0,1,.32-.12.27.27,0,0,1,.31.21L317.8,167l2.26-6.34a.35.35,0,0,1,.31-.21.5.5,0,0,1,.31.12.35.35,0,0,1,.15.28.44.44,0,0,1,0,.13l-2.61,7.1-.35.92q-.1.26-.36.88a5.31,5.31,0,0,1-.48.92q-.22.3-.53.69a1.92,1.92,0,0,1-.67.55,1.77,1.77,0,0,1-.75.16.33.33,0,0,1-.37-.38c0-.25.1-.38.29-.38q1.37,0,2.39-3.38l-2.66-7.1A.56.56,0,0,1,314.69,160.79Z"/><path class="cls-1" d="M321.91,165.34v-1.91a3.05,3.05,0,0,1,3-3,2.94,2.94,0,0,1,2.13.89,2.88,2.88,0,0,1,.91,2.13v1.91a2.94,2.94,0,0,1-.91,2.13,2.89,2.89,0,0,1-4.23,0A2.93,2.93,0,0,1,321.91,165.34Zm.81,0a2.27,2.27,0,0,0,.65,1.59,2.05,2.05,0,0,0,1.56.7,2.08,2.08,0,0,0,1.56-.7,2.26,2.26,0,0,0,.66-1.59v-1.91a2.21,2.21,0,0,0-.66-1.57,2.09,2.09,0,0,0-1.56-.69,2.06,2.06,0,0,0-1.56.69,2.22,2.22,0,0,0-.65,1.57Z"/><path class="cls-1" d="M329.73,165.37v-4.51a.31.31,0,0,1,.12-.24.42.42,0,0,1,.29-.11.4.4,0,0,1,.27.11.32.32,0,0,1,.12.24v4.51a2.22,2.22,0,0,0,.65,1.57,2.11,2.11,0,0,0,3.11,0,2.22,2.22,0,0,0,.65-1.57v-4.53a.29.29,0,0,1,.12-.23.45.45,0,0,1,.29-.1.42.42,0,0,1,.28.1.29.29,0,0,1,.12.23v4.53a3.05,3.05,0,0,1-3,3,2.87,2.87,0,0,1-2.12-.91A2.92,2.92,0,0,1,329.73,165.37Z"/><path class="cls-1" d="M337.85,167.93v-7.08q0-.33.4-.33a.44.44,0,0,1,.28.09.29.29,0,0,1,.12.24v.84a2.43,2.43,0,0,1,.88-.91,2.52,2.52,0,0,1,1.36-.36h.59a.35.35,0,0,1,.25.11.4.4,0,0,1,0,.54.35.35,0,0,1-.25.11h-.59a2.13,2.13,0,0,0-1.56.67,2.35,2.35,0,0,0-.67,1.74v4.35a.34.34,0,0,1-.12.25.41.41,0,0,1-.29.12.39.39,0,0,1-.28-.11A.34.34,0,0,1,337.85,167.93Z"/><path class="cls-1" d="M346.4,171.8v-11q0-.33.4-.33a.44.44,0,0,1,.28.09.29.29,0,0,1,.12.24v.82a2.36,2.36,0,0,1,2.21-1.25,2.84,2.84,0,0,1,2.09.88,2.92,2.92,0,0,1,.87,2.13v1.91a3,3,0,0,1-.88,2.13,2.75,2.75,0,0,1-2.05.92,2.56,2.56,0,0,1-1.33-.36,2.3,2.3,0,0,1-.89-.89v4.66a.34.34,0,0,1-.12.25.41.41,0,0,1-.29.12.4.4,0,0,1-.28-.11A.34.34,0,0,1,346.4,171.8Zm.81-5.9a1.7,1.7,0,0,0,.66,1.1,2.11,2.11,0,0,0,1.5.63,2,2,0,0,0,1.53-.7,2.26,2.26,0,0,0,.66-1.59v-1.91a2.2,2.2,0,0,0-.67-1.57,2.1,2.1,0,0,0-1.56-.69,2.07,2.07,0,0,0-1.48.62,2.17,2.17,0,0,0-.64,1.64Z"/><path class="cls-1" d="M354.23,167.93v-7.08q0-.33.4-.33a.44.44,0,0,1,.28.09.29.29,0,0,1,.12.24v.84a2.43,2.43,0,0,1,.88-.91,2.52,2.52,0,0,1,1.36-.36h.59a.35.35,0,0,1,.25.11.4.4,0,0,1,0,.54.35.35,0,0,1-.25.11h-.59a2.13,2.13,0,0,0-1.56.67,2.35,2.35,0,0,0-.67,1.74v4.35a.34.34,0,0,1-.12.25.41.41,0,0,1-.29.12.39.39,0,0,1-.28-.11A.34.34,0,0,1,354.23,167.93Z"/><path class="cls-1" d="M358.81,165.34v-1.91a3.05,3.05,0,0,1,3-3,2.94,2.94,0,0,1,2.13.89,2.88,2.88,0,0,1,.91,2.13v1.91a2.94,2.94,0,0,1-.91,2.13,2.89,2.89,0,0,1-4.23,0A2.93,2.93,0,0,1,358.81,165.34Zm.81,0a2.27,2.27,0,0,0,.65,1.59,2.05,2.05,0,0,0,1.56.7,2.08,2.08,0,0,0,1.56-.7,2.26,2.26,0,0,0,.66-1.59v-1.91a2.21,2.21,0,0,0-.66-1.57,2.09,2.09,0,0,0-1.56-.69,2.06,2.06,0,0,0-1.56.69,2.22,2.22,0,0,0-.65,1.57Z"/><path class="cls-1" d="M366.42,165.34v-1.91a2.92,2.92,0,0,1,.87-2.13,2.84,2.84,0,0,1,2.09-.88,2.46,2.46,0,0,1,1.33.35,2.42,2.42,0,0,1,.87.9V156a.31.31,0,0,1,.12-.25.44.44,0,0,1,.3-.1.42.42,0,0,1,.28.1.31.31,0,0,1,.12.25v11.91a.33.33,0,0,1-.12.25.39.39,0,0,1-.28.11.38.38,0,0,1-.28-.12.35.35,0,0,1-.12-.25v-.79a2.29,2.29,0,0,1-.9.89,2.6,2.6,0,0,1-1.34.36,2.75,2.75,0,0,1-2.05-.92A3,3,0,0,1,366.42,165.34Zm.81,0a2.26,2.26,0,0,0,.66,1.59,2,2,0,0,0,1.53.7,2.12,2.12,0,0,0,1.5-.63,1.7,1.7,0,0,0,.66-1.1v-2.47a2.16,2.16,0,0,0-.65-1.63,2.08,2.08,0,0,0-3,.07,2.21,2.21,0,0,0-.66,1.57Z"/><path class="cls-1" d="M374.47,165.37v-4.51a.31.31,0,0,1,.12-.24.42.42,0,0,1,.29-.11.4.4,0,0,1,.27.11.32.32,0,0,1,.12.24v4.51a2.22,2.22,0,0,0,.65,1.57,2.11,2.11,0,0,0,3.11,0,2.22,2.22,0,0,0,.65-1.57v-4.53a.29.29,0,0,1,.12-.23.45.45,0,0,1,.29-.1.42.42,0,0,1,.28.1.29.29,0,0,1,.12.23v4.53a3.05,3.05,0,0,1-3,3,2.87,2.87,0,0,1-2.12-.91A2.92,2.92,0,0,1,374.47,165.37Z"/><path class="cls-1" d="M382.31,165.34v-1.88a3.12,3.12,0,0,1,.78-2.2,3,3,0,0,1,2.31-.85,3.37,3.37,0,0,1,1.58.34q.64.34.64.67a.39.39,0,0,1-.12.27.35.35,0,0,1-.26.12.64.64,0,0,1-.29-.16,2.83,2.83,0,0,0-.6-.32,2.44,2.44,0,0,0-.94-.16,2.1,2.1,0,0,0-2.31,2.29v1.88a2.08,2.08,0,0,0,2.32,2.29,2.68,2.68,0,0,0,1.61-.49.65.65,0,0,1,.31-.17.33.33,0,0,1,.26.12.41.41,0,0,1,.11.27q0,.35-.67.68a3.63,3.63,0,0,1-1.66.34,3,3,0,0,1-2.31-.84A3.09,3.09,0,0,1,382.31,165.34Z"/><path class="cls-1" d="M389.25,165.93v-8.85a.3.3,0,0,1,.12-.25.42.42,0,0,1,.27-.1.45.45,0,0,1,.29.1.3.3,0,0,1,.12.25v3.43h2.19a.28.28,0,0,1,.22.11.39.39,0,0,1,.09.26.34.34,0,0,1-.1.24.29.29,0,0,1-.21.11h-2.19v4.71a1.66,1.66,0,0,0,.38,1.24,1.9,1.9,0,0,0,1.32.36h.41a.37.37,0,0,1,.38.38.38.38,0,0,1-.11.26.35.35,0,0,1-.27.12h-.41Q389.25,168.29,389.25,165.93Z"/><path class="cls-1" d="M393.47,167.27a.42.42,0,0,1,.09-.25.26.26,0,0,1,.21-.12.38.38,0,0,1,.26.12l.38.26a2.55,2.55,0,0,0,.61.26,3,3,0,0,0,.92.13,2.18,2.18,0,0,0,1.37-.35,1.12,1.12,0,0,0,.44-.91,1.34,1.34,0,0,0-.42-1,2.62,2.62,0,0,0-1-.56l-1.21-.37a2.32,2.32,0,0,1-1-.63,1.68,1.68,0,0,1-.42-1.2,2.12,2.12,0,0,1,.63-1.52,2.48,2.48,0,0,1,1.87-.66,4.25,4.25,0,0,1,1.44.24q.67.24.67.5a.46.46,0,0,1-.12.28.32.32,0,0,1-.25.15l-.58-.22a3.1,3.1,0,0,0-1.15-.22,1.79,1.79,0,0,0-1.33.44,1.38,1.38,0,0,0-.44,1,1,1,0,0,0,.42.87,3.3,3.3,0,0,0,1,.5l1.22.37a2.12,2.12,0,0,1,1,.69,2,2,0,0,1,.42,1.35,1.82,1.82,0,0,1-.68,1.5,3,3,0,0,1-1.89.54,3.83,3.83,0,0,1-1.77-.37Q393.47,167.65,393.47,167.27Z"/><path class="cls-1" d="M447.46,167.94V156.61q0-.36.4-.36h2.57a4.49,4.49,0,0,1,2.5.58,2.43,2.43,0,0,1,.88,2.18,3.71,3.71,0,0,1-.38,1.75,2.11,2.11,0,0,1-1,1,2.73,2.73,0,0,1,1.26,1,3.36,3.36,0,0,1,.44,1.86v.3a3.3,3.3,0,0,1-.88,2.56,3.39,3.39,0,0,1-2.36.8h-3a.41.41,0,0,1-.29-.1A.32.32,0,0,1,447.46,167.94Zm.82-6.56h2.22a2.8,2.8,0,0,0,1.89-.52,2.3,2.3,0,0,0,.58-1.79,1.8,1.8,0,0,0-.64-1.61,3.44,3.44,0,0,0-1.89-.43h-2.16Zm0,6.11h2.5q2.49,0,2.49-2.6v-.28a2.46,2.46,0,0,0-.63-1.89,2.64,2.64,0,0,0-1.85-.58h-2.5Z"/><path class="cls-1" d="M455.93,165.37v-4.51a.31.31,0,0,1,.12-.24.42.42,0,0,1,.29-.11.4.4,0,0,1,.27.11.32.32,0,0,1,.12.24v4.51a2.22,2.22,0,0,0,.65,1.57,2.11,2.11,0,0,0,3.11,0,2.22,2.22,0,0,0,.65-1.57v-4.53a.29.29,0,0,1,.12-.23.45.45,0,0,1,.29-.1.42.42,0,0,1,.28.1.29.29,0,0,1,.12.23v4.53a3.05,3.05,0,0,1-3,3,2.87,2.87,0,0,1-2.12-.91A2.92,2.92,0,0,1,455.93,165.37Z"/><path class="cls-1" d="M463.82,157.45a.54.54,0,0,1,.18-.4.62.62,0,0,1,.44-.17.6.6,0,0,1,.43.17.54.54,0,0,1,.18.4.62.62,0,0,1-.61.61.6.6,0,0,1-.44-.18A.59.59,0,0,1,463.82,157.45Zm.23,10.48v-7.08q0-.33.4-.33t.41.33v7.08a.34.34,0,0,1-.12.25.41.41,0,0,1-.29.12.39.39,0,0,1-.28-.11A.34.34,0,0,1,464,167.93Z"/><path class="cls-1" d="M467.16,167.93V156a.32.32,0,0,1,.12-.25.42.42,0,0,1,.28-.1.44.44,0,0,1,.3.1.32.32,0,0,1,.12.25v11.91a.34.34,0,0,1-.12.25.41.41,0,0,1-.29.12.39.39,0,0,1-.28-.11A.34.34,0,0,1,467.16,167.93Z"/><path class="cls-1" d="M470,165.34v-1.91a2.92,2.92,0,0,1,.87-2.13,2.84,2.84,0,0,1,2.09-.88,2.46,2.46,0,0,1,1.33.35,2.42,2.42,0,0,1,.87.9V156a.31.31,0,0,1,.12-.25.44.44,0,0,1,.3-.1.42.42,0,0,1,.28.1.31.31,0,0,1,.12.25v11.91a.33.33,0,0,1-.12.25.39.39,0,0,1-.28.11.38.38,0,0,1-.28-.12.35.35,0,0,1-.12-.25v-.79a2.29,2.29,0,0,1-.9.89,2.6,2.6,0,0,1-1.34.36,2.75,2.75,0,0,1-2.05-.92A3,3,0,0,1,470,165.34Zm.81,0a2.26,2.26,0,0,0,.66,1.59,2,2,0,0,0,1.53.7,2.12,2.12,0,0,0,1.5-.63,1.7,1.7,0,0,0,.66-1.1v-2.47a2.16,2.16,0,0,0-.65-1.63,2.08,2.08,0,0,0-3,.07,2.21,2.21,0,0,0-.66,1.57Z"/><path class="cls-1" d="M480.6,160.79a.35.35,0,0,1,.14-.28.51.51,0,0,1,.32-.12.27.27,0,0,1,.31.21l2.33,6.34,2.26-6.34a.35.35,0,0,1,.31-.21.5.5,0,0,1,.31.12.35.35,0,0,1,.15.28.44.44,0,0,1,0,.13l-2.61,7.1-.35.92q-.1.26-.36.88a5.31,5.31,0,0,1-.48.92q-.22.3-.53.69a1.92,1.92,0,0,1-.67.55,1.77,1.77,0,0,1-.75.16.33.33,0,0,1-.37-.38c0-.25.1-.38.29-.38q1.37,0,2.39-3.38l-2.66-7.1A.56.56,0,0,1,480.6,160.79Z"/><path class="cls-1" d="M487.82,165.34v-1.91a3.05,3.05,0,0,1,3-3,2.94,2.94,0,0,1,2.13.89,2.88,2.88,0,0,1,.91,2.13v1.91a2.94,2.94,0,0,1-.91,2.13,2.89,2.89,0,0,1-4.23,0A2.93,2.93,0,0,1,487.82,165.34Zm.81,0a2.27,2.27,0,0,0,.65,1.59,2.05,2.05,0,0,0,1.56.7,2.08,2.08,0,0,0,1.56-.7,2.26,2.26,0,0,0,.66-1.59v-1.91a2.21,2.21,0,0,0-.66-1.57,2.09,2.09,0,0,0-1.56-.69,2.06,2.06,0,0,0-1.56.69,2.22,2.22,0,0,0-.65,1.57Z"/><path class="cls-1" d="M495.64,165.37v-4.51a.31.31,0,0,1,.12-.24.42.42,0,0,1,.29-.11.4.4,0,0,1,.27.11.32.32,0,0,1,.12.24v4.51a2.22,2.22,0,0,0,.65,1.57,2.11,2.11,0,0,0,3.11,0,2.22,2.22,0,0,0,.65-1.57v-4.53a.29.29,0,0,1,.12-.23.45.45,0,0,1,.29-.1.42.42,0,0,1,.28.1.29.29,0,0,1,.12.23v4.53a3.05,3.05,0,0,1-3,3,2.87,2.87,0,0,1-2.12-.91A2.92,2.92,0,0,1,495.64,165.37Z"/><path class="cls-1" d="M503.76,167.93v-7.08q0-.33.4-.33a.44.44,0,0,1,.28.09.29.29,0,0,1,.12.24v.84a2.43,2.43,0,0,1,.88-.91,2.52,2.52,0,0,1,1.36-.36h.59a.35.35,0,0,1,.25.11.4.4,0,0,1,0,.54.35.35,0,0,1-.25.11h-.59a2.13,2.13,0,0,0-1.56.67,2.35,2.35,0,0,0-.67,1.74v4.35a.34.34,0,0,1-.12.25.41.41,0,0,1-.29.12.39.39,0,0,1-.28-.11A.34.34,0,0,1,503.76,167.93Z"/><path class="cls-1" d="M511.52,160.88a.33.33,0,0,1,.14-.27.5.5,0,0,1,.31-.11.33.33,0,0,1,.32.2l2.24,6.18,1.79-5.67a.32.32,0,0,1,.62,0L518.7,167,521,160.7c0-.13.14-.2.31-.2a.51.51,0,0,1,.31.1.31.31,0,0,1,.13.26.44.44,0,0,1-.07.25l-2.57,7.07a.33.33,0,0,1-.31.23.28.28,0,0,1-.29-.21l-1.83-5.81-1.81,5.72a.37.37,0,0,1-.72,0l-2.55-7A1.34,1.34,0,0,1,511.52,160.88Z"/><path class="cls-1" d="M522.91,165.34v-2a2.82,2.82,0,0,1,.89-2.09,3,3,0,0,1,2.14-.87,2.91,2.91,0,0,1,2.1.86,2.84,2.84,0,0,1,.88,2.13,2,2,0,0,1-.11.72.7.7,0,0,1-.34.39,1.31,1.31,0,0,1-.42.14,4.33,4.33,0,0,1-.53,0h-3.81v.69a2.07,2.07,0,0,0,.74,1.66,2.86,2.86,0,0,0,1.91.63,2.69,2.69,0,0,0,1-.17,2.64,2.64,0,0,0,.63-.33.64.64,0,0,1,.33-.17.33.33,0,0,1,.26.13.41.41,0,0,1,.11.26q0,.31-.68.66a3.68,3.68,0,0,1-1.68.35,3.61,3.61,0,0,1-2.47-.84A2.8,2.8,0,0,1,522.91,165.34Zm.81-1.35h3.51a1.57,1.57,0,0,0,.74-.12.53.53,0,0,0,.18-.48,2.27,2.27,0,0,0-.63-1.57,2,2,0,0,0-1.58-.69,2.16,2.16,0,0,0-1.57.64,2.07,2.07,0,0,0-.65,1.53Z"/><path class="cls-1" d="M530.63,167.93V156a.32.32,0,0,1,.12-.25.42.42,0,0,1,.28-.1.44.44,0,0,1,.3.1.32.32,0,0,1,.12.25v5.65a2.41,2.41,0,0,1,.87-.9,2.46,2.46,0,0,1,1.33-.35,2.84,2.84,0,0,1,2.09.88,2.92,2.92,0,0,1,.87,2.13v1.91a3,3,0,0,1-.88,2.13,2.75,2.75,0,0,1-2.05.92,2.6,2.6,0,0,1-1.34-.36,2.29,2.29,0,0,1-.9-.89v.79a.35.35,0,0,1-.12.25.38.38,0,0,1-.28.12.39.39,0,0,1-.28-.11A.34.34,0,0,1,530.63,167.93Zm.81-2a1.7,1.7,0,0,0,.66,1.1,2.11,2.11,0,0,0,1.5.63,2,2,0,0,0,1.53-.7,2.26,2.26,0,0,0,.66-1.59v-1.91a2.21,2.21,0,0,0-.66-1.57,2.08,2.08,0,0,0-3-.07,2.16,2.16,0,0,0-.65,1.63Z"/><path class="cls-1" d="M538,167.27a.42.42,0,0,1,.09-.25.26.26,0,0,1,.21-.12.38.38,0,0,1,.26.12l.38.26a2.55,2.55,0,0,0,.61.26,3,3,0,0,0,.92.13,2.18,2.18,0,0,0,1.37-.35,1.12,1.12,0,0,0,.44-.91,1.34,1.34,0,0,0-.42-1,2.62,2.62,0,0,0-1-.56l-1.21-.37a2.32,2.32,0,0,1-1-.63,1.68,1.68,0,0,1-.42-1.2,2.12,2.12,0,0,1,.63-1.52,2.48,2.48,0,0,1,1.87-.66,4.25,4.25,0,0,1,1.44.24q.67.24.67.5a.46.46,0,0,1-.12.28.32.32,0,0,1-.25.15l-.58-.22a3.1,3.1,0,0,0-1.15-.22,1.79,1.79,0,0,0-1.33.44,1.38,1.38,0,0,0-.44,1,1,1,0,0,0,.42.87,3.3,3.3,0,0,0,1,.5l1.22.37a2.12,2.12,0,0,1,1,.69,2,2,0,0,1,.42,1.35,1.82,1.82,0,0,1-.68,1.5,3,3,0,0,1-1.89.54,3.83,3.83,0,0,1-1.77-.37Q538,167.65,538,167.27Z"/><path class="cls-1" d="M544.47,157.45a.54.54,0,0,1,.18-.4.62.62,0,0,1,.44-.17.6.6,0,0,1,.43.17.54.54,0,0,1,.18.4.62.62,0,0,1-.61.61.6.6,0,0,1-.44-.18A.59.59,0,0,1,544.47,157.45Zm.23,10.48v-7.08q0-.33.4-.33t.41.33v7.08a.34.34,0,0,1-.12.25.41.41,0,0,1-.29.12.39.39,0,0,1-.28-.11A.34.34,0,0,1,544.7,167.93Z"/><path class="cls-1" d="M547.65,165.93v-8.85a.3.3,0,0,1,.12-.25.42.42,0,0,1,.27-.1.45.45,0,0,1,.29.1.3.3,0,0,1,.12.25v3.43h2.19a.28.28,0,0,1,.22.11.39.39,0,0,1,.09.26.34.34,0,0,1-.1.24.29.29,0,0,1-.21.11h-2.19v4.71a1.66,1.66,0,0,0,.38,1.24,1.9,1.9,0,0,0,1.32.36h.41a.37.37,0,0,1,.38.38.38.38,0,0,1-.11.26.35.35,0,0,1-.27.12h-.41Q547.65,168.29,547.65,165.93Z"/><path class="cls-1" d="M551.9,165.34v-2a2.82,2.82,0,0,1,.89-2.09,3,3,0,0,1,2.14-.87,2.91,2.91,0,0,1,2.1.86,2.84,2.84,0,0,1,.88,2.13,2,2,0,0,1-.11.72.7.7,0,0,1-.34.39,1.31,1.31,0,0,1-.42.14,4.33,4.33,0,0,1-.53,0h-3.81v.69a2.07,2.07,0,0,0,.74,1.66,2.86,2.86,0,0,0,1.91.63,2.69,2.69,0,0,0,1-.17,2.64,2.64,0,0,0,.63-.33.64.64,0,0,1,.33-.17.33.33,0,0,1,.26.13.41.41,0,0,1,.11.26q0,.31-.68.66a3.68,3.68,0,0,1-1.68.35,3.61,3.61,0,0,1-2.47-.84A2.8,2.8,0,0,1,551.9,165.34Zm.81-1.35h3.51a1.57,1.57,0,0,0,.74-.12.53.53,0,0,0,.18-.48,2.27,2.27,0,0,0-.63-1.57,2,2,0,0,0-1.58-.69,2.16,2.16,0,0,0-1.57.64,2.07,2.07,0,0,0-.65,1.53Z"/><path class="cls-1" d="M590,167.93V156.59q0-.35.41-.35t.41.35V167.5h4.86q.31,0,.31.4t-.31.4h-5.29Q590,168.29,590,167.93Z"/><path class="cls-1" d="M596.8,166.21a1.75,1.75,0,0,1,1-1.72,6.63,6.63,0,0,1,2.86-.49h.89v-.43a2.83,2.83,0,0,0-.52-1.71,1.8,1.8,0,0,0-1.56-.72,3,3,0,0,0-1.17.23l-.56.23a.31.31,0,0,1-.26-.15.53.53,0,0,1-.1-.3q0-.28.68-.52a4.34,4.34,0,0,1,1.44-.24,2.55,2.55,0,0,1,2.16.9,3.6,3.6,0,0,1,.69,2.26v4.35a.34.34,0,0,1-.12.25.42.42,0,0,1-.56,0,.33.33,0,0,1-.12-.25v-.79a3.21,3.21,0,0,1-2.47,1.25,2.41,2.41,0,0,1-1.64-.55A2,2,0,0,1,596.8,166.21Zm.81,0a1.38,1.38,0,0,0,.44,1.11,1.71,1.71,0,0,0,1.15.37,2.5,2.5,0,0,0,1.59-.6,1.62,1.62,0,0,0,.75-1.18v-1.22h-.81q-.71,0-1.19,0a5.42,5.42,0,0,0-1,.19,1.36,1.36,0,0,0-.73.46A1.3,1.3,0,0,0,597.61,166.18Z"/><path class="cls-1" d="M604.37,165.37v-4.51a.31.31,0,0,1,.12-.24.42.42,0,0,1,.29-.11.4.4,0,0,1,.27.11.32.32,0,0,1,.12.24v4.51a2.22,2.22,0,0,0,.65,1.57,2.11,2.11,0,0,0,3.11,0,2.22,2.22,0,0,0,.65-1.57v-4.53a.29.29,0,0,1,.12-.23.45.45,0,0,1,.29-.1.42.42,0,0,1,.28.1.29.29,0,0,1,.12.23v4.53a3.05,3.05,0,0,1-3,3,2.87,2.87,0,0,1-2.12-.91A2.92,2.92,0,0,1,604.37,165.37Z"/><path class="cls-1" d="M612.49,167.93v-7.08q0-.33.4-.33a.44.44,0,0,1,.28.09.29.29,0,0,1,.12.24v.82a2.36,2.36,0,0,1,.86-.89,2.48,2.48,0,0,1,1.35-.36,2.81,2.81,0,0,1,2.08.89,2.93,2.93,0,0,1,.87,2.13v4.5q0,.36-.41.36c-.26,0-.39-.12-.39-.36v-4.5a2.22,2.22,0,0,0-.66-1.57,2.08,2.08,0,0,0-3-.07,2.17,2.17,0,0,0-.64,1.64v4.5a.34.34,0,0,1-.12.25.41.41,0,0,1-.29.12.39.39,0,0,1-.28-.11A.34.34,0,0,1,612.49,167.93Z"/><path class="cls-1" d="M620.25,165.34v-1.88a3.12,3.12,0,0,1,.78-2.2,3,3,0,0,1,2.31-.85,3.37,3.37,0,0,1,1.58.34q.64.34.64.67a.39.39,0,0,1-.12.27.35.35,0,0,1-.26.12.64.64,0,0,1-.29-.16,2.83,2.83,0,0,0-.6-.32,2.44,2.44,0,0,0-.94-.16,2.1,2.1,0,0,0-2.31,2.29v1.88a2.08,2.08,0,0,0,2.32,2.29,2.68,2.68,0,0,0,1.61-.49.65.65,0,0,1,.31-.17.33.33,0,0,1,.26.12.41.41,0,0,1,.11.27q0,.35-.67.68a3.63,3.63,0,0,1-1.66.34,3,3,0,0,1-2.31-.84A3.09,3.09,0,0,1,620.25,165.34Z"/><path class="cls-1" d="M627.21,167.93V156a.32.32,0,0,1,.12-.25.42.42,0,0,1,.28-.1.44.44,0,0,1,.3.1.32.32,0,0,1,.12.25v5.65a2.38,2.38,0,0,1,.85-.89,2.44,2.44,0,0,1,1.34-.36,2.81,2.81,0,0,1,2.08.89,2.93,2.93,0,0,1,.87,2.13v4.5q0,.36-.41.36c-.26,0-.39-.12-.39-.36v-4.5a2.22,2.22,0,0,0-.66-1.57,2.08,2.08,0,0,0-3-.07,2.17,2.17,0,0,0-.64,1.64v4.5a.34.34,0,0,1-.12.25.41.41,0,0,1-.29.12.39.39,0,0,1-.28-.11A.34.34,0,0,1,627.21,167.93Z"/><path class="cls-1" d="M637.74,160.79a.35.35,0,0,1,.14-.28.51.51,0,0,1,.32-.12.27.27,0,0,1,.31.21l2.33,6.34,2.26-6.34a.35.35,0,0,1,.31-.21.5.5,0,0,1,.31.12.35.35,0,0,1,.15.28.44.44,0,0,1,0,.13l-2.61,7.1-.35.92q-.1.26-.36.88a5.31,5.31,0,0,1-.48.92q-.22.3-.53.69a1.92,1.92,0,0,1-.67.55,1.77,1.77,0,0,1-.75.16.33.33,0,0,1-.37-.38c0-.25.1-.38.29-.38q1.37,0,2.39-3.38l-2.66-7.1A.56.56,0,0,1,637.74,160.79Z"/><path class="cls-1" d="M645,165.34v-1.91a3.05,3.05,0,0,1,3-3,2.94,2.94,0,0,1,2.13.89,2.88,2.88,0,0,1,.91,2.13v1.91a2.94,2.94,0,0,1-.91,2.13,2.89,2.89,0,0,1-4.23,0A2.93,2.93,0,0,1,645,165.34Zm.81,0a2.27,2.27,0,0,0,.65,1.59,2.05,2.05,0,0,0,1.56.7,2.08,2.08,0,0,0,1.56-.7,2.26,2.26,0,0,0,.66-1.59v-1.91a2.21,2.21,0,0,0-.66-1.57,2.09,2.09,0,0,0-1.56-.69,2.06,2.06,0,0,0-1.56.69,2.22,2.22,0,0,0-.65,1.57Z"/><path class="cls-1" d="M652.78,165.37v-4.51a.31.31,0,0,1,.12-.24.42.42,0,0,1,.29-.11.4.4,0,0,1,.27.11.32.32,0,0,1,.12.24v4.51a2.22,2.22,0,0,0,.65,1.57,2.11,2.11,0,0,0,3.11,0,2.22,2.22,0,0,0,.65-1.57v-4.53a.29.29,0,0,1,.12-.23.45.45,0,0,1,.29-.1.42.42,0,0,1,.28.1.29.29,0,0,1,.12.23v4.53a3.05,3.05,0,0,1-3,3,2.87,2.87,0,0,1-2.12-.91A2.92,2.92,0,0,1,652.78,165.37Z"/><path class="cls-1" d="M660.9,167.93v-7.08q0-.33.4-.33a.44.44,0,0,1,.28.09.29.29,0,0,1,.12.24v.84a2.43,2.43,0,0,1,.88-.91,2.52,2.52,0,0,1,1.36-.36h.59a.35.35,0,0,1,.25.11.4.4,0,0,1,0,.54.35.35,0,0,1-.25.11h-.59a2.13,2.13,0,0,0-1.56.67,2.35,2.35,0,0,0-.67,1.74v4.35a.34.34,0,0,1-.12.25.41.41,0,0,1-.29.12.39.39,0,0,1-.28-.11A.34.34,0,0,1,660.9,167.93Z"/><path class="cls-1" d="M669.14,165.34v-1.91a3.05,3.05,0,0,1,3-3,2.94,2.94,0,0,1,2.13.89,2.88,2.88,0,0,1,.91,2.13v1.91a2.94,2.94,0,0,1-.91,2.13,2.89,2.89,0,0,1-4.23,0A2.93,2.93,0,0,1,669.14,165.34Zm.81,0a2.27,2.27,0,0,0,.65,1.59,2.05,2.05,0,0,0,1.56.7,2.08,2.08,0,0,0,1.56-.7,2.26,2.26,0,0,0,.66-1.59v-1.91a2.21,2.21,0,0,0-.66-1.57,2.09,2.09,0,0,0-1.56-.69,2.06,2.06,0,0,0-1.56.69,2.22,2.22,0,0,0-.65,1.57Z"/><path class="cls-1" d="M677,167.93v-7.08q0-.33.4-.33a.44.44,0,0,1,.28.09.29.29,0,0,1,.12.24v.82a2.36,2.36,0,0,1,.86-.89,2.48,2.48,0,0,1,1.35-.36,2.81,2.81,0,0,1,2.08.89,2.93,2.93,0,0,1,.87,2.13v4.5q0,.36-.41.36c-.26,0-.39-.12-.39-.36v-4.5a2.22,2.22,0,0,0-.66-1.57,2.08,2.08,0,0,0-3-.07,2.17,2.17,0,0,0-.64,1.64v4.5a.34.34,0,0,1-.12.25.41.41,0,0,1-.29.12.39.39,0,0,1-.28-.11A.34.34,0,0,1,677,167.93Z"/><path class="cls-1" d="M685.22,167.93V156a.32.32,0,0,1,.12-.25.42.42,0,0,1,.28-.1.44.44,0,0,1,.3.1.32.32,0,0,1,.12.25v11.91a.34.34,0,0,1-.12.25.41.41,0,0,1-.29.12.39.39,0,0,1-.28-.11A.34.34,0,0,1,685.22,167.93Z"/><path class="cls-1" d="M688.1,157.45a.54.54,0,0,1,.18-.4.62.62,0,0,1,.44-.17.6.6,0,0,1,.43.17.54.54,0,0,1,.18.4.62.62,0,0,1-.61.61.6.6,0,0,1-.44-.18A.59.59,0,0,1,688.1,157.45Zm.23,10.48v-7.08q0-.33.4-.33t.41.33v7.08a.34.34,0,0,1-.12.25.41.41,0,0,1-.29.12.39.39,0,0,1-.28-.11A.34.34,0,0,1,688.33,167.93Z"/><path class="cls-1" d="M691.31,167.93v-7.08q0-.33.4-.33a.44.44,0,0,1,.28.09.29.29,0,0,1,.12.24v.82a2.36,2.36,0,0,1,.86-.89,2.48,2.48,0,0,1,1.35-.36,2.81,2.81,0,0,1,2.08.89,2.93,2.93,0,0,1,.87,2.13v4.5q0,.36-.41.36c-.26,0-.39-.12-.39-.36v-4.5a2.22,2.22,0,0,0-.66-1.57,2.08,2.08,0,0,0-3-.07,2.17,2.17,0,0,0-.64,1.64v4.5a.34.34,0,0,1-.12.25.41.41,0,0,1-.29.12.39.39,0,0,1-.28-.11A.34.34,0,0,1,691.31,167.93Z"/><path class="cls-1" d="M699.05,165.34v-2a2.82,2.82,0,0,1,.89-2.09,3,3,0,0,1,2.14-.87,2.91,2.91,0,0,1,2.1.86,2.84,2.84,0,0,1,.88,2.13,2,2,0,0,1-.11.72.7.7,0,0,1-.34.39,1.31,1.31,0,0,1-.42.14,4.33,4.33,0,0,1-.53,0h-3.81v.69a2.07,2.07,0,0,0,.74,1.66,2.86,2.86,0,0,0,1.91.63,2.69,2.69,0,0,0,1-.17,2.64,2.64,0,0,0,.63-.33.64.64,0,0,1,.33-.17.33.33,0,0,1,.26.13.41.41,0,0,1,.11.26q0,.31-.68.66a3.68,3.68,0,0,1-1.68.35,3.61,3.61,0,0,1-2.47-.84A2.8,2.8,0,0,1,699.05,165.34Zm.81-1.35h3.51a1.57,1.57,0,0,0,.74-.12.53.53,0,0,0,.18-.48,2.27,2.27,0,0,0-.63-1.57,2,2,0,0,0-1.58-.69,2.16,2.16,0,0,0-1.57.64,2.07,2.07,0,0,0-.65,1.53Z"/><path class="cls-1" d="M709.58,167.27a.42.42,0,0,1,.09-.25.26.26,0,0,1,.21-.12.38.38,0,0,1,.26.12l.38.26a2.55,2.55,0,0,0,.61.26,3,3,0,0,0,.92.13,2.18,2.18,0,0,0,1.37-.35,1.12,1.12,0,0,0,.44-.91,1.34,1.34,0,0,0-.42-1,2.62,2.62,0,0,0-1-.56l-1.21-.37a2.32,2.32,0,0,1-1-.63,1.68,1.68,0,0,1-.42-1.2,2.12,2.12,0,0,1,.63-1.52,2.48,2.48,0,0,1,1.87-.66,4.25,4.25,0,0,1,1.44.24q.67.24.67.5a.46.46,0,0,1-.12.28.32.32,0,0,1-.25.15l-.58-.22a3.1,3.1,0,0,0-1.15-.22,1.79,1.79,0,0,0-1.33.44,1.38,1.38,0,0,0-.44,1,1,1,0,0,0,.42.87,3.3,3.3,0,0,0,1,.5l1.22.37a2.12,2.12,0,0,1,1,.69,2,2,0,0,1,.42,1.35,1.82,1.82,0,0,1-.68,1.5,3,3,0,0,1-1.89.54,3.83,3.83,0,0,1-1.77-.37Q709.58,167.65,709.58,167.27Z"/><path class="cls-1" d="M716.29,165.93v-8.85a.3.3,0,0,1,.12-.25.42.42,0,0,1,.27-.1.45.45,0,0,1,.29.1.3.3,0,0,1,.12.25v3.43h2.19a.28.28,0,0,1,.22.11.39.39,0,0,1,.09.26.34.34,0,0,1-.1.24.29.29,0,0,1-.21.11h-2.19v4.71a1.66,1.66,0,0,0,.38,1.24,1.9,1.9,0,0,0,1.32.36h.41a.37.37,0,0,1,.38.38.38.38,0,0,1-.11.26.35.35,0,0,1-.27.12h-.41Q716.28,168.29,716.29,165.93Z"/><path class="cls-1" d="M720.52,165.34v-1.91a3.05,3.05,0,0,1,3-3,2.94,2.94,0,0,1,2.13.89,2.88,2.88,0,0,1,.91,2.13v1.91a2.94,2.94,0,0,1-.91,2.13,2.89,2.89,0,0,1-4.23,0A2.93,2.93,0,0,1,720.52,165.34Zm.81,0a2.27,2.27,0,0,0,.65,1.59,2.05,2.05,0,0,0,1.56.7,2.08,2.08,0,0,0,1.56-.7,2.26,2.26,0,0,0,.66-1.59v-1.91a2.21,2.21,0,0,0-.66-1.57,2.09,2.09,0,0,0-1.56-.69,2.06,2.06,0,0,0-1.56.69,2.22,2.22,0,0,0-.65,1.57Z"/><path class="cls-1" d="M728.43,167.93v-7.08q0-.33.4-.33a.44.44,0,0,1,.28.09.29.29,0,0,1,.12.24v.84a2.43,2.43,0,0,1,.88-.91,2.52,2.52,0,0,1,1.36-.36h.59a.35.35,0,0,1,.25.11.4.4,0,0,1,0,.54.35.35,0,0,1-.25.11h-.59a2.13,2.13,0,0,0-1.56.67,2.35,2.35,0,0,0-.67,1.74v4.35a.34.34,0,0,1-.12.25.41.41,0,0,1-.29.12.39.39,0,0,1-.28-.11A.34.34,0,0,1,728.43,167.93Z"/><path class="cls-1" d="M733,165.34v-2a2.82,2.82,0,0,1,.89-2.09,3,3,0,0,1,2.14-.87,2.91,2.91,0,0,1,2.1.86,2.84,2.84,0,0,1,.88,2.13,2,2,0,0,1-.11.72.7.7,0,0,1-.34.39,1.31,1.31,0,0,1-.42.14,4.33,4.33,0,0,1-.53,0h-3.81v.69a2.07,2.07,0,0,0,.74,1.66,2.86,2.86,0,0,0,1.91.63,2.69,2.69,0,0,0,1-.17,2.64,2.64,0,0,0,.63-.33.64.64,0,0,1,.33-.17.33.33,0,0,1,.26.13.41.41,0,0,1,.11.26q0,.31-.68.66a3.68,3.68,0,0,1-1.68.35,3.61,3.61,0,0,1-2.47-.84A2.8,2.8,0,0,1,733,165.34Zm.81-1.35h3.51a1.57,1.57,0,0,0,.74-.12.53.53,0,0,0,.18-.48,2.27,2.27,0,0,0-.63-1.57,2,2,0,0,0-1.58-.69,2.16,2.16,0,0,0-1.57.64,2.07,2.07,0,0,0-.65,1.53Z"/></svg>