<svg xmlns="http://www.w3.org/2000/svg" viewBox="0 0 360 360"><defs><style>.cls-1{fill:#393;}.cls-2,.cls-3{fill:#fff;}.cls-3,.cls-4{font-size:74.62px;font-family:Dosis-SemiBold, Dosis;font-weight:700;}.cls-4{fill:#c1e0c1;}</style></defs><title>Artboard 2</title><g id="Layer_2" data-name="Layer 2"><rect class="cls-1" width="360" height="360"/><path class="cls-2" d="M100.86,118A25.37,25.37,0,0,1,70,142.93a4.65,4.65,0,0,1-3.22-6.55h0A4.65,4.65,0,0,1,72,133.85a16.06,16.06,0,0,0,10.4-30.16,16,16,0,0,0-6.92-1.57,16.33,16.33,0,0,0-16,16.32V166.2a4.65,4.65,0,0,1-4.65,4.65h0a4.65,4.65,0,0,1-4.65-4.65V118.49a25.65,25.65,0,0,1,25.5-25.65A25.33,25.33,0,0,1,100.86,118Z"/><text class="cls-3" transform="translate(105.54 140.74)">olished</text><path class="cls-2" d="M100.86,231A25.37,25.37,0,0,1,70,255.93a4.65,4.65,0,0,1-3.22-6.55h0A4.65,4.65,0,0,1,72,246.85a16.06,16.06,0,0,0,10.4-30.16,16,16,0,0,0-6.92-1.57,16.33,16.33,0,0,0-16,16.32V279.2a4.65,4.65,0,0,1-4.65,4.65h0a4.65,4.65,0,0,1-4.65-4.65V231.49a25.65,25.65,0,0,1,25.5-25.65A25.33,25.33,0,0,1,100.86,231Z"/><text class="cls-4" transform="translate(105.54 253.74)">olished</text></g></svg>