<svg id="Layer_1" data-name="Layer 1" xmlns="http://www.w3.org/2000/svg" viewBox="0 0 360 360"><defs><style>.cls-1{fill:#fff;}.cls-2{fill:#643510;}.cls-3{fill:#b21e28;}</style></defs><title>cujo</title><path class="cls-1" d="M276.58,198c-1.34,3.62-4.62,8.72-8.43,14.64-2.44,3.78-5,7.83-7.48,12-5.37,9.22-9.81,19-9.39,27.58l-1.94,1.49L238,256.53l-4.53-4.27-16.82,4.82-12-6.7-8.19,4.15-11.49-1.12L170,260.87l-7.31-1.37-8.54,3.69-5,4.3v-5L141.25,253l-13.14,1.69-10.89-3.07-5.89-4.9c-.67-6.67-5.86-15.24-11.65-23.62-1.69-2.48-3.45-4.93-5.16-7.32-4.93-6.89-9.59-13.4-11.21-17.79-2.54-6.9-2-11.18-1.47-15.32a25.87,25.87,0,0,0,.3-6.67l3-2.63,6.65-5.72L104,171.13l12.24-13.56L129.46,159,141,149.44l2.9.36A5.73,5.73,0,0,0,146,156c2,1.68,4.25,2,6.59,2.25a22.19,22.19,0,0,1,7.63,2.06,28,28,0,0,1,2.89,2c3.86,3,11.33,7.28,16.58,7.28,5,0,9.44-4.16,13.45-7a28.22,28.22,0,0,1,3.39-2.21,55,55,0,0,1,6.44-1.43c3.13-.53,5.58-1,8-3a5.71,5.71,0,0,0,2.11-3.25l5.85,3,10.49-.85,4.16,8.06,11-4.27,5.42-15,4.19-2.45L252.14,147l1.59,6.17-3.25,9.11,13.28.63,7.2,7.68,4.49,1.88,2.73,1.15a39.38,39.38,0,0,0,.17,6.89C278.73,185.39,279.19,190.92,276.58,198Z"/><path class="cls-2" d="M249,183.31c3.5,12.5-.51,27.06-11.77,42.31-1.74,2.37-2.53,6.74-3.38,11.34-1.64,9-3.69,20.29-14.35,24.13-10.1,3.63-19.09,1.16-27-1-4.43-1.21-8.6-2.36-12.53-2.36s-8.11,1.15-12.52,2.36c-5,1.37-10.43,2.85-16.29,2.85a31.4,31.4,0,0,1-10.73-1.85C129.74,257.24,127.7,246,126,237c-.83-4.6-1.62-9-3.38-11.34-11.24-15.27-15.27-29.81-11.75-42.31a84.05,84.05,0,0,0-11.15,4.49c.89-.67,16-11.69,31.55-11,5.59.25,10.94,2.31,16.1,4.3,9.86,3.79,19.19,7.36,30.94.08v-2.91a6.2,6.2,0,0,1,1.37-3.87l.22-.27.22.27a6.11,6.11,0,0,1,1.37,3.87v2.91c11.77,7.28,21.1,3.71,30.94-.08,5.18-2,10.51-4,16.1-4.3,15.53-.68,30.65,10.34,31.55,11A84.4,84.4,0,0,0,249,183.31Z"/><path class="cls-1" d="M230.16,198.94a24.79,24.79,0,0,1-11.7,17.18s1.45-14.89,0-18.17c-.61-1.4-1.86-3.38-2.91-5.61-2.12,8.84-6.82,11.53-6.82,11.53s-4.19-1.47-6.21-9.51c-1.66,8.15-5.61,9.51-5.61,9.51s-3-1.15-4.87-7.05c-2.1,8-6.13,9.33-6.13,9.33s-3.63-1.39-5.8-8.6c-2.12,6.9-5.59,8.22-5.59,8.22s-3.85-1.31-5.91-8.89c-1.88,5.86-4.86,7-4.86,7s-3.95-1.35-5.61-9.52c-2,8.06-6.21,9.52-6.21,9.52s-4.6-2.91-6.77-11.66c-1.05,2.28-2.34,4.3-3,5.73-1.45,3.28,0,18.15,0,18.15a24.73,24.73,0,0,1-11.7-17.17,26.78,26.78,0,0,1,3.41-18.7,50.1,50.1,0,0,1,10.18,3c.73.27,1.47.54,2.2.83l.41.16a73.55,73.55,0,0,0,10.73,3.47c.56.13,1.11.24,1.67.35a32.55,32.55,0,0,0,5.46.49c.94,0,1.88,0,2.83-.14s1.75-.22,2.64-.4a29.49,29.49,0,0,0,8.44-3.2c.48-.25,1-.54,1.47-.84.59.37,1.16.7,1.74,1a29.26,29.26,0,0,0,8.95,3.17,25,25,0,0,0,2.61.33c.7,0,1.4.08,2.1.08a31.67,31.67,0,0,0,6.19-.64c.57-.11,1.13-.24,1.69-.38a79.59,79.59,0,0,0,10.4-3.46l.41-.16,2.52-1a45.74,45.74,0,0,1,10.11-2.8A26.8,26.8,0,0,1,230.16,198.94Z"/><path class="cls-1" d="M225.43,252.66a14.13,14.13,0,0,1-7,5.43,26.93,26.93,0,0,1-5.38,1.35c-.59.1-1.18.16-1.77.21a37.75,37.75,0,0,1-11.66-1l-.33-.08c-2-.46-4-1-6-1.54l-1.45-.4-2.5-.65a44.74,44.74,0,0,0-7.56-1.35c-.62,0-1.24-.06-1.86-.06-.37,0-.72,0-1.08,0a38.64,38.64,0,0,0-7.58,1.19c-.81.19-1.64.41-2.48.64l-2.21.61c-1.72.48-3.44.94-5.19,1.37l-1.39.32a38.53,38.53,0,0,1-10.62,1q-.88,0-1.77-.14a29.12,29.12,0,0,1-6.15-1.47,13.91,13.91,0,0,1-6-4.16,29,29,0,0,1-.22-10.84c2-12.34,10.65-17.17,10.65-17.17s-1.31,14.89,0,18.17c.57,1.43,1.75,3.46,2.72,5.73,2-8.74,6.16-11.67,6.16-11.67s3.81,1.47,5.65,9.54c1.5-8.19,5.11-9.54,5.11-9.54s2.71,1.15,4.41,7c1.88-7.6,5.4-8.9,5.4-8.9s3.07,1.29,5,7.95c1.91-6.66,5-7.95,5-7.95s3.52,1.31,5.4,8.9c1.7-5.88,4.41-7,4.41-7s3.6,1.35,5.11,9.48c1.83-8.11,5.65-9.57,5.65-9.57s4.2,2.91,6.16,11.66c1-2.28,2.12-4.3,2.69-5.72,1.32-3.3,0-18.17,0-18.17s8.62,4.83,10.67,17.17A29.28,29.28,0,0,1,225.43,252.66Z"/><path class="cls-1" d="M250.67,256.44l-11.62,2.92.46,4.51-1.9,2.44,2,10.36-2.17-5.19-1.23-3.85L234,269.2l-4.47,1.06,4.24-2.58,3.25-3.69-1-5.16-3.42-3.22-16.38,4.68-11.72-6.54L197,257.59l-11.5-1.12-15,7.52L163,262.62l-7.48,3.22-9.43,8.27V263.59L140,256.16l-12.1,1.56-12.1-3.42-6.6-5.49c.9,24.31,11.69,55.33,26.88,63.51,11.44,6.16,23.25,12.53,64.07,11.71l4.38-3.72-3.3-.43L198,315.51l-2.7-3.61v0l-1.8-3.09-1.8-7.7,2.94,5.85,2.53,3.33,2.71,2.77,3,4,5.41.7,9,.84C234.49,313.31,254,284.1,255,253.13Zm-43.47,48.9a4.25,4.25,0,1,1,4.24-4.24A4.24,4.24,0,0,1,207.21,305.34Z"/><path class="cls-1" d="M251.17,23.08C226,8.59,195.15,1.24,168.5,3.36l-4.27,7.33-3.18,5.4,4.47,4.45,2.19,5-3.57-4.57-4.24-2.82-2.67,3.66-5.31,3.63,4.44-5.68,5.17-10.51L154.89,5.6c-3.91,1.2-25.9,8-37.68,12.88-12.41,5.16-48,30.13-48.54,75.83a217.81,217.81,0,0,0,1.86,28.81c.36,3,.75,6,1.12,8.83.25,2,.51,3.93.75,5.82,2.29,18.27,4.84,32.12,5.89,37.56l6-5.14,6.84-5.91,11.9,3.45,11.63-12.88c.3-1.65,1-5.71,1.59-8.84l-4.44-5,1.33-8-5.2-9.8c-8-3.7-17.12-9.73-17.82-16.35a27.43,27.43,0,0,1,9.35-23.55,131.55,131.55,0,0,0-15.38,2.35c.9-.48,20.57-10.61,46.47-3.48C141,85,149.36,89.52,155.48,92.74c5.17,2.73,9.25,4.87,11.23,4.39,3.76-.94,5-10.55,5-10.55.69,3.82.91,12.16-4.32,13.46a5.52,5.52,0,0,1-1.33.15,10.37,10.37,0,0,1-3.15-.58c.1,4.35-.49,15.56-8.53,21.36-6.81,4.92-17.3,6.69-26.1,6.69-1.24,0-2.46,0-3.63-.1l-8.63,6L115,140.06l4.45,5.05-.13.72c-.87,4.87-1.33,7.49-1.6,8.89l10.82,1.18,11.54-9.59,5.47.67,12.07-12.76,10.06,2.53,12.83-10.25,7.58,5,11.83,1.66L207,146.3l12.55,6.33,11.65-.94,3.84,7.43,7.24-2.8,5.31-14.7,8.32-4.84,2.14-6.61,6.21-3,7.73-3.67-7.7,5.82-3.73,2.8-.72,2.32-4.54,12.68,1.59,6.18-2.2,6.16,10.45.49,7.61,8.09,3.55,1.5,6.06,2.55c1.06-6.54,4.68-29,6.79-47.86a204.15,204.15,0,0,0,1.57-21.9c-.09-9.76-2.76-26.91-10-43.05C273.58,43.35,262.26,29.47,251.17,23.08Z"/><circle class="cls-3" cx="159.11" cy="280.67" r="4.25"/><circle class="cls-3" cx="182.09" cy="55.96" r="4.25"/><circle class="cls-3" cx="214.74" cy="47.46" r="4.25"/><circle class="cls-3" cx="242.52" cy="38.97" r="4.25"/><circle class="cls-3" cx="149.45" cy="47.46" r="4.25"/><circle class="cls-3" cx="121.67" cy="38.97" r="4.25"/><circle class="cls-3" cx="159.11" cy="301.09" r="4.25"/><circle class="cls-3" cx="207.2" cy="301.09" r="4.25"/><circle class="cls-3" cx="207.2" cy="280.67" r="4.25"/><path class="cls-2" d="M232.88,82.1c-10.5,2.89-18.83,7.42-24.94,10.64-5.17,2.73-9.25,4.87-11.23,4.39-3.76-.94-5-10.56-5-10.56C191,90.4,190.76,98.73,196,100a5.51,5.51,0,0,0,1.33.15,10.37,10.37,0,0,0,3.15-.58c-.1,4.35.49,15.56,8.53,21.36,6.81,4.92,17.3,6.69,26.1,6.69a50.9,50.9,0,0,0,10.52-1c7.21-1.56,26.67-10.07,27.7-19.89A27.43,27.43,0,0,0,264,83.22a128.38,128.38,0,0,1,15.41,2.37S259.4,74.79,232.88,82.1Zm37.46,24.36c-.75,7.08-16.89,15.44-25.36,17.28-8.71,1.9-25.44,1.14-34.22-5.2-7.9-5.73-7.34-18.41-7.24-20.19,1.71-.79,3.63-1.81,5.82-3,6-3.16,14.21-7.49,24.37-10.4,7.88-2.26,16.94-2.58,24.88-2.16C266.94,88.39,271.32,97.18,270.34,106.45Z"/><path class="cls-3" d="M270.34,106.45c-.75,7.08-16.89,15.44-25.36,17.28-8.71,1.9-25.44,1.14-34.22-5.2-7.9-5.73-7.34-18.41-7.24-20.19,1.71-.79,3.63-1.81,5.82-3,6-3.16,14.21-7.49,24.37-10.4,7.88-2.26,16.94-2.58,24.88-2.16C266.94,88.39,271.32,97.18,270.34,106.45Z"/><path class="cls-2" d="M203.8,85s4.9-13.64,30.81-19c24.78-5.15,38.59,4.52,38.59,4.52C239,55.86,204.15,84.66,203.8,85Z"/><path class="cls-3" d="M93.07,106.45c.54,5.12,9.13,10.91,17.05,14.42.7,2.88,5.07,9.6,5.07,9.6s6.92-3.89,8.63-6c9.08.7,21.63-.75,28.83-6,7.9-5.73,7.34-18.41,7.24-20.19-1.71-.79-3.63-1.81-5.82-3-6-3.16-14.21-7.49-24.37-10.4-7.88-2.26-16.94-2.58-24.88-2.16C96.48,88.39,92.1,97.18,93.07,106.45Z"/><path class="cls-2" d="M159.61,85s-4.9-13.64-30.81-19C104,60.77,90.21,70.44,90.21,70.44,124.45,55.86,159.26,84.66,159.61,85Z"/><path class="cls-2" d="M181.78,100.29h0a1.37,1.37,0,0,1-1.37-1.48l.41-5a1.37,1.37,0,0,0,0-.23l-.41-5a1.37,1.37,0,0,1,1.37-1.48h0a1.37,1.37,0,0,1,1.37,1.5l-.47,4.93a1.37,1.37,0,0,0,0,.26l.47,4.93A1.37,1.37,0,0,1,181.78,100.29Z"/><path class="cls-2" d="M336.79,218s1.69,0,1.69-1.32-6.93-10.67-7.86-11.24-.57-4.87-.57-4.87.19,1.32,2.07,0-.56-4.68-2.82-6.75a29.88,29.88,0,0,1-4.5-6s1.5-.93,1.32-2.06-7.32-8.82-8.62-9.93-2.25-5.81-2.25-6.75,6.17-.93,6.17-2.12-6-7.63-5.24-7.63,3.57-.75,3.75-2.21-3.55-6-5-7.33,0-1.13,0-2.52-3.94-4.8-3.94-4.8a2.08,2.08,0,0,0,1.87-2.12c0-1.93-2.25-3.5-3.72-4.06s.34-1.5-.58-2.82,1.67-2.25,0-3.38-1.5,0-2.08,0-.92-1.3-1.3-2.43-5.84-3.55-7.72-5.43,0-3.18-1.32-4.86a7.27,7.27,0,0,0-3.06-2c.45-5,.69-9.51.66-13-.09-10.07-2.83-27.69-10.23-44.26-7.49-16.76-19-30.81-30.8-37.6C226.73,5.56,194.88-2,167.46.44l-.76.06-3.6,6.16-7.9-4.28-.59.17c-.24.08-25.51,7.77-38.54,13.17S66.24,47,65.67,94.28a197.1,197.1,0,0,0,1,21.14,7,7,0,0,0-2.86,1.94c-1.3,1.68.55,3-1.3,4.85s-7.25,4.33-7.61,5.44-.76,2.45-1.32,2.45-.38-1.13-2.07,0,.94,2,0,3.37.91,2.25-.57,2.83-3.74,2.13-3.74,4.06a2.09,2.09,0,0,0,1.87,2.12s-3.92,3.42-3.92,4.8,1.5,1.19,0,2.51-5.24,5.87-5.07,7.33,3,2.22,3.75,2.22-5.24,6.46-5.24,7.63,6.17,1.16,6.17,2.11-.93,5.62-2.25,6.75-8.42,8.8-8.6,9.94,1.3,2,1.3,2a30.12,30.12,0,0,1-4.5,6c-2.24,2-4.69,5.44-2.81,6.75s2.06,0,2.06,0,.38,4.3-.55,4.86-7.88,9.93-7.88,11.24S23.21,218,23.21,218s-3.55,7.85-1.69,8.61,1.88,0,1.88,0,.55,11.06.18,12-2.25,5.82-1.13,7.14a2.62,2.62,0,0,0,2.25,1.11s1.81,4.5,3.49,5.8,1.13,8.45,3.57,8.45c2.23,0,1.46-1.28,1.33-1.48.71.6,12,10.12,18.33,11,6.57.94,6.18-.93,6.38,0s5,3,7.86,2.82a8.7,8.7,0,0,0,5.07-2.62s6.92,2.81,7.49,1.87a2.86,2.86,0,0,0,0-2.24s1.86-.18,2.43-.93c0,0,3.9,2.68,7.16.83s2.71-4.47,2.44-4.93a3.31,3.31,0,0,0,.21-5.55c5.07.4,5.82-1.42,5.79-2.31-.08-1.07-1-2.28-.6-3.22.57,1.79,1,3.61,2,2.9s1.56-3.15.24-8.85c2.2-3.42,2.87-13.22,3.07-18,3,4.72,5.5,9.29,6.69,13.25l-1.51-1.26v3.19c0,32.3,14.75,62,28.52,69.39,13.07,7.06,29.14,12.14,58.17,12.14,2.5,0,5.15,0,7.88-.09h.54l7.3-6.18,9,.84.27-.08c22.92-6.76,40.43-44,40.17-71.53l0-3-3.75,2.85c.26-4.94,2.12-10.35,4.71-15.8.26,4.07,1,11.08,3,14.24-1.31,5.71-.8,8.16.23,8.85s1.46-1.12,2-2.9c.38.93-.52,2.16-.58,3.22,0,.89.72,2.71,5.79,2.31a3.31,3.31,0,0,0,.21,5.55c-.29.47-.82,3.09,2.43,4.93s7.15-.85,7.15-.85c.57.76,2.45,1,2.45,1a2.77,2.77,0,0,0,0,2.24c.55.93,7.49-1.87,7.49-1.87a8.78,8.78,0,0,0,5,2.62c2.82.19,7.69-1.87,7.87-2.8s-.18.92,6.37,0c6.36-.92,17.63-10.44,18.33-11-.12.19-.89,1.48,1.35,1.48,2.43,0,1.87-7.13,3.55-8.43s1.13-4.5,1.13-4.5a2.66,2.66,0,0,0,2.24-1.13c1.13-1.32-.75-6.19-1.12-7.12s2.67-13.31,2.67-13.31,0,.75,1.86,0S336.79,218,336.79,218ZM255,253.13c-1,31-20.52,60.18-37.72,65.48l-9-.83-5.41-.71-3-4-2.71-2.78-2.53-3.32-2.94-5.84,1.81,7.7,1.8,3.09v0l2.7,3.61,3.26,4.36,3.3.44L200.14,324c-36.39.86-52.63-5.54-64.07-11.71-15.18-8.18-26-39.19-26.87-63.51l6.59,5.49,12.1,3.42,12.1-1.55,6.14,7.44v10.51l9.43-8.27,7.48-3.22,7.43,1.38,15-7.52L197,257.59l7.54-3.83,11.72,6.53,16.39-4.68,3.42,3.22,1,5.16-3.25,3.69-4.24,2.58L234,269.2l2.19-1.56,1.22,3.85,2.17,5.18-2-10.35,1.9-2.45-.47-4.51,11.62-2.92ZM276.58,198c-1.34,3.62-4.62,8.72-8.43,14.64-2.44,3.78-5,7.83-7.48,12-5.37,9.22-9.81,19-9.39,27.58l-1.94,1.49L238,256.53l-4.53-4.27-16.82,4.82-12-6.7-8.19,4.15-11.49-1.12L170,260.87l-7.31-1.37-8.54,3.69-5,4.3v-5L141.25,253l-13.14,1.69-10.89-3.07-5.89-4.9c-.67-6.67-5.86-15.24-11.65-23.62-1.69-2.48-3.45-4.93-5.16-7.32-4.93-6.89-9.59-13.4-11.21-17.79-2.54-6.9-2-11.18-1.47-15.32a25.87,25.87,0,0,0,.3-6.67l3-2.63,6.65-5.72L104,171.13l12.24-13.56L129.46,159,141,149.44l2.9.36A5.73,5.73,0,0,0,146,156c2,1.68,4.25,2,6.59,2.25a22.19,22.19,0,0,1,7.63,2.06,28,28,0,0,1,2.89,2c3.86,3,11.33,7.28,16.58,7.28,5,0,9.44-4.16,13.45-7a28.22,28.22,0,0,1,3.39-2.21,55,55,0,0,1,6.44-1.43c3.13-.53,5.58-1,8-3a5.71,5.71,0,0,0,2.11-3.25l5.85,3,10.49-.85,4.16,8.06,11-4.27,5.42-15,4.19-2.45L252.14,147l1.59,6.17-3.25,9.11,13.28.63,7.2,7.68,4.49,1.88,2.73,1.15a39.38,39.38,0,0,0,.17,6.89C278.73,185.39,279.19,190.92,276.58,198Zm12.54-73.7c-2.12,18.9-5.73,41.33-6.79,47.86l-6.06-2.54-3.55-1.5L265.11,160l-10.45-.5,2.2-6.16-1.59-6.17,4.54-12.68.72-2.33,3.73-2.8,7.71-5.82-7.74,3.67-6.2,3-2.15,6.61-8.32,4.84-5.3,14.7L235,159.11l-3.83-7.44-11.65,1L207,146.3l-7.11-13.15-11.82-1.66-7.59-5-12.22,9.78-.6.48-.66-.17-9.4-2.37L145.52,147l-5.48-.67-11.53,9.59-10.82-1.18c.27-1.4.73-4,1.6-8.89l.14-.72-4.46-5,1.08-6.53,8.64-6c1.17.08,2.38.11,3.62.11,8.81,0,19.3-1.77,26.11-6.68,8-5.81,8.63-17,8.52-21.36a10.55,10.55,0,0,0,3.15.58,5.5,5.5,0,0,0,1.34-.16c5.23-1.3,5-9.63,4.31-13.46,0,0-1.27,9.6-5,10.55-2,.48-6.06-1.67-11.23-4.4C149.36,89.51,141,85,130.53,82.09c-25.9-7.14-45.57,3-46.46,3.48a132.67,132.67,0,0,1,15.38-2.35,27.44,27.44,0,0,0-9.36,23.55c.71,6.62,9.78,12.65,17.82,16.35l5.2,9.81-1.34,8,4.44,5c-.56,3.13-1.28,7.19-1.58,8.84L103,167.73l-11.9-3.45-6.83,5.9-6,5.15c-1-5.45-3.59-19.29-5.89-37.57-.23-1.88-.49-3.83-.75-5.82-.37-2.84-.76-5.8-1.13-8.83a218.72,218.72,0,0,1-1.85-28.81c.55-45.7,36.13-70.67,48.53-75.82C129,13.61,151,6.81,154.89,5.6l6.64,3.61-5.17,10.51-4.44,5.68,5.31-3.63,2.67-3.66,4.24,2.83,3.56,4.57-2.18-5-4.47-4.45,3.17-5.4,4.27-7.33C195.15,1.24,226,8.59,251.17,23.09c11.09,6.38,22.41,20.26,29.54,36.22,7.22,16.15,9.89,33.29,10,43.06A201.39,201.39,0,0,1,289.12,124.26Zm-179-3.39c-7.93-3.5-16.52-9.3-17.06-14.42-1-9.28,3.4-18.06,11.75-23.62,7.94-.42,17-.11,24.88,2.16,10.16,2.91,18.38,7.24,24.38,10.41,2.18,1.14,4.11,2.16,5.82,3,.1,1.79.66,14.47-7.24,20.19-7.21,5.19-19.75,6.64-28.82,6l-8.64,6Z"/><path class="cls-1" d="M193.55,147c2.58-.94-3.23-11.66-4.71-11S188.17,149,193.55,147Z"/><path class="cls-1" d="M168.67,139.8c-.24,3.67-1.8,8.53-5.34,7.24-1.57-.57,0-4.78,1.75-7.82l3.28.82Z"/><path class="cls-3" d="M196.42,254.52a12,12,0,0,1-1,2.91s0,.08-.07.11c-.39.86-.89,1.84-1.47,2.9-1.55,2.86-3.62,6.27-5.65,9.47-2.56,4-4.44,14.14-4.08,23.56.19,4.78,2.06,11.17,2.42,14.52s-.47,7.3-6.28,7.31c-4.59,0-7-4.77-7-8.36,0-4,4.87-9.07,3.8-15.13-.28-1.6-1.83-9.13-1.83-11.16s-3.23-7.11-5.27-8.52-5.87,0-8.73.61-7.3-.21-9.13.81-5.49,6.09-4.87,9.14.62,11.57.62,14.15-2.23,6.75-2.45,11.32c-.17,3.89,2.76,7,4.19,10.07a7.75,7.75,0,0,1,.6,1.59,5.2,5.2,0,0,1,.12,1.82c-.29,3.15-2.92,6.62-3.09,11.38-.19,5.68,8.73,27-3.45,27s-2.84-22.72-2-25.77c.56-2.13-2-10.12-4.3-17.85-.41-1.35-.8-2.68-1.18-4-.54-1.91-1-3.73-1.41-5.36-2.12-9.14.39-16.24,1.19-17.66s-.19-8.32-.19-10.16,2-8.93,1-12.57c-.83-3-4.51-5.32-7.15-9.17a16.22,16.22,0,0,1-1.58-2.83l3.54-.45,3.75-.5,5.84-.75,1.38,1.66,3.92,4.77a10.56,10.56,0,0,0,1.07.17c.58.06,1.18.11,1.77.14a38.67,38.67,0,0,0,10.63-1l1.38-.32c1.76-.44,3.48-.88,5.18-1.36l2.22-.62c.83-.22,1.68-.43,2.49-.62a37.33,37.33,0,0,1,7.57-1.2l1.09,0c.62,0,1.25,0,1.86.06l.58.06.22-.1,2.31-1.16Z"/></svg>