<svg xmlns="http://www.w3.org/2000/svg" viewBox="0 0 266.83 96.69"><defs><style>.cls-1{fill:#393;}</style></defs><title>logo-polished</title><g id="Layer_2" data-name="Layer 2"><path class="cls-1" d="M50.69,43.89A25.37,25.37,0,0,1,19.87,68.78a4.65,4.65,0,0,1-3.22-6.55h0a4.65,4.65,0,0,1,5.21-2.53,16.06,16.06,0,0,0,10.4-30.16A16,16,0,0,0,25.34,28a16.33,16.33,0,0,0-16,16.32V92a4.65,4.65,0,0,1-4.65,4.65h0A4.65,4.65,0,0,1,0,92V44.33A25.65,25.65,0,0,1,25.5,18.68,25.33,25.33,0,0,1,50.69,43.89Z"/><path class="cls-1" d="M58.06,52.33V45.46a13.89,13.89,0,0,1,4.55-10.3,15.63,15.63,0,0,1,21.71,0,13.75,13.75,0,0,1,4.63,10.33v6.86a14,14,0,0,1-4.66,10.33,15.22,15.22,0,0,1-21.6,0A14,14,0,0,1,58.06,52.33Zm7.83,0a7.79,7.79,0,0,0,2.24,5.45,7.15,7.15,0,0,0,10.71,0,7.73,7.73,0,0,0,2.28-5.45V45.49a7.52,7.52,0,0,0-2.28-5.34,7.23,7.23,0,0,0-10.71,0,7.58,7.58,0,0,0-2.24,5.34Z"/><path class="cls-1" d="M96.48,64V12.71a2.12,2.12,0,0,1,1.08-1.83,5,5,0,0,1,2.8-.71,5.27,5.27,0,0,1,2.8.71,2.1,2.1,0,0,1,1.16,1.83V64a2.26,2.26,0,0,1-1.19,1.79,4.75,4.75,0,0,1-2.76.82,4.54,4.54,0,0,1-2.76-.82A2.27,2.27,0,0,1,96.48,64Z"/><path class="cls-1" d="M112.52,18.23a3.75,3.75,0,0,1,1.34-2.91,4.91,4.91,0,0,1,6.42,0,3.78,3.78,0,0,1,0,5.78,4.8,4.8,0,0,1-6.42,0A3.79,3.79,0,0,1,112.52,18.23ZM113.2,64V33.75a2.12,2.12,0,0,1,1.08-1.83,5,5,0,0,1,2.8-.71,5.21,5.21,0,0,1,2.83.71A2.11,2.11,0,0,1,121,33.75V64a2.27,2.27,0,0,1-1.16,1.79,4.71,4.71,0,0,1-2.8.82,4.54,4.54,0,0,1-2.76-.82A2.28,2.28,0,0,1,113.2,64Z"/><path class="cls-1" d="M127,61.21a4.2,4.2,0,0,1,.79-2.31,2.28,2.28,0,0,1,1.92-1.19,3.69,3.69,0,0,1,1.88.88,17,17,0,0,0,3.23,1.75,12.29,12.29,0,0,0,4.89.88q6.39,0,6.39-4.05a3.89,3.89,0,0,0-1.87-3.42,15.33,15.33,0,0,0-4.51-2q-2.65-.71-5.26-1.61A10.18,10.18,0,0,1,130,47.1a8.35,8.35,0,0,1-1.87-5.63,10.34,10.34,0,0,1,3.13-7.54q3.13-3.16,9.63-3.16a21.79,21.79,0,0,1,7.72,1.31q3.47,1.31,3.47,3.1a4.77,4.77,0,0,1-.86,2.43A2.49,2.49,0,0,1,149.09,39,14.92,14.92,0,0,1,146,37.85a12.68,12.68,0,0,0-5-1.12,6.63,6.63,0,0,0-4.51,1.35,4,4,0,0,0-1.53,3,3.18,3.18,0,0,0,1.87,2.85,18.44,18.44,0,0,0,4.55,1.73,49.26,49.26,0,0,1,5.29,1.65A9.68,9.68,0,0,1,153,56.85a9.17,9.17,0,0,1-3.43,7.58q-3.43,2.75-9.7,2.75a20.24,20.24,0,0,1-9.07-1.87Q127,63.45,127,61.21Z"/><path class="cls-1" d="M159.46,64V12.78A2.11,2.11,0,0,1,160.54,11a5,5,0,0,1,2.8-.71,5.26,5.26,0,0,1,2.8.71,2.1,2.1,0,0,1,1.16,1.83V36.5a10.52,10.52,0,0,1,9.55-5.73A11.84,11.84,0,0,1,186,35.09a15.09,15.09,0,0,1,3.84,10.37V64a2.14,2.14,0,0,1-1.19,1.9,5.3,5.3,0,0,1-2.76.71,5.17,5.17,0,0,1-2.69-.71A2.14,2.14,0,0,1,182,64V45.52a7.63,7.63,0,0,0-2.24-5.36,7,7,0,0,0-5.3-2.38,6.93,6.93,0,0,0-5,2.12,7.51,7.51,0,0,0-2.16,5.62V64a2.25,2.25,0,0,1-1.19,1.79,4.76,4.76,0,0,1-2.76.82,4.54,4.54,0,0,1-2.76-.82A2.27,2.27,0,0,1,159.46,64Z"/><path class="cls-1" d="M196.39,52.33V45.24a13.53,13.53,0,0,1,4.55-10.19,15.42,15.42,0,0,1,11-4.29,15.23,15.23,0,0,1,10.48,3.88,12.55,12.55,0,0,1,4.37,9.8,10.81,10.81,0,0,1-.52,3.69,3.43,3.43,0,0,1-1.64,2,7.08,7.08,0,0,1-2.09.72A17,17,0,0,1,220,51H204.23v1.73a7.35,7.35,0,0,0,2.69,6,10.66,10.66,0,0,0,7,2.22,12.28,12.28,0,0,0,5.78-1.43A12.24,12.24,0,0,1,223,58.05a2.64,2.64,0,0,1,2.16,1.2,3.91,3.91,0,0,1,.9,2.32q0,1.84-3.58,3.72a18.77,18.77,0,0,1-8.8,1.88q-7.61,0-12.46-4.1A13.39,13.39,0,0,1,196.39,52.33ZM204.23,46h12.39a3.81,3.81,0,0,0,2.2-.44,2.17,2.17,0,0,0,.56-1.76,6.63,6.63,0,0,0-2.16-5,7.5,7.5,0,0,0-5.37-2.06,7.92,7.92,0,0,0-5.37,1.95,6.28,6.28,0,0,0-2.24,5Z"/><path class="cls-1" d="M231.76,52.33V45.46a14.92,14.92,0,0,1,3.92-10.37,12.29,12.29,0,0,1,9.44-4.33,10.4,10.4,0,0,1,5.82,1.66,11.6,11.6,0,0,1,3.88,4.07V12.78A2.1,2.1,0,0,1,255.94,11a5.22,5.22,0,0,1,2.84-.71,5,5,0,0,1,2.8.71,2.12,2.12,0,0,1,1.08,1.83V64a2.27,2.27,0,0,1-1.12,1.79,4.54,4.54,0,0,1-2.76.82,4,4,0,0,1-2.5-.83,2.32,2.32,0,0,1-1.08-1.81V61.3a10.26,10.26,0,0,1-4.07,4.15,11.76,11.76,0,0,1-15.41-2.78A15.23,15.23,0,0,1,231.76,52.33Zm7.83,0a7.79,7.79,0,0,0,2.24,5.45,7,7,0,0,0,5.3,2.41,7.54,7.54,0,0,0,5.3-2.26q2.39-2.26,2.39-3.89V45.49a7.25,7.25,0,0,0-2.31-5.56,7.57,7.57,0,0,0-5.3-2.15,7.17,7.17,0,0,0-5.34,2.37,7.52,7.52,0,0,0-2.28,5.34Z"/></g></svg>