<svg xmlns="http://www.w3.org/2000/svg" viewBox="0 0 266.83 94.69"><defs><style>.cls-1,.cls-2{fill:#fff;}.cls-2{font-size:74.62px;font-family:Dosis-SemiBold, Dosis;font-weight:700;}</style></defs><title>logo-polished</title><g id="Layer_2" data-name="Layer 2"><path class="cls-1" d="M50.69,41.89A25.37,25.37,0,0,1,19.87,66.78a4.65,4.65,0,0,1-3.22-6.55h0a4.65,4.65,0,0,1,5.21-2.53,16.06,16.06,0,0,0,10.4-30.16A16,16,0,0,0,25.34,26a16.33,16.33,0,0,0-16,16.32V90a4.65,4.65,0,0,1-4.65,4.65h0A4.65,4.65,0,0,1,0,90V42.33A25.65,25.65,0,0,1,25.5,16.68,25.33,25.33,0,0,1,50.69,41.89Z"/><text class="cls-2" transform="translate(55.37 64.58)">olished</text></g></svg>
