<?xml version="1.0" encoding="utf-8"?>
<!-- Generator: Adobe Illustrator 21.1.0, SVG Export Plug-In . SVG Version: 6.00 Build 0)  -->
<svg version="1.1" id="Layer_1" xmlns="http://www.w3.org/2000/svg" xmlns:xlink="http://www.w3.org/1999/xlink" x="0px" y="0px"
	 viewBox="0 0 273 94.7" style="enable-background:new 0 0 273 94.7;" xml:space="preserve">
<style type="text/css">
	.st0{fill:#339933;}
	.st1{enable-background:new    ;}
</style>
<title>logo-polished</title>
<g id="Layer_2">
	<path class="st0" d="M50.7,41.9c0.1,14-11.2,25.4-25.3,25.5c-1.9,0-3.7-0.2-5.6-0.6c-2.5-0.5-4.1-3-3.6-5.5c0.1-0.4,0.2-0.7,0.4-1
		l0,0c0.9-2,3.1-3,5.2-2.5c8.7,1.9,17.2-3.6,19.1-12.3c1.6-7.3-2-14.7-8.7-17.9c-2.2-1-4.5-1.6-6.9-1.5c-8.9,0.2-16,7.4-16,16.3V90
		c0,2.6-2.1,4.7-4.6,4.7c0,0,0,0,0,0l0,0c-2.6,0-4.7-2-4.7-4.6c0,0,0,0,0,0V42.3c0-14.1,11.4-25.6,25.5-25.7
		C39.4,16.8,50.6,28,50.7,41.9z"/>
	<g class="st1">
		<path class="st0" d="M58.1,50.3v-6.9c0-3.9,1.5-7.4,4.6-10.3c3-2.9,6.7-4.4,10.9-4.4c4.1,0,7.7,1.5,10.8,4.4
			c3.1,2.9,4.6,6.4,4.6,10.3v6.9c0,3.9-1.6,7.3-4.7,10.3c-3.1,3-6.7,4.5-10.8,4.5c-4.1,0-7.7-1.5-10.8-4.5
			C59.6,57.7,58.1,54.3,58.1,50.3z M65.9,50.3c0,2,0.7,3.8,2.2,5.4c1.5,1.6,3.3,2.4,5.4,2.4c2,0,3.8-0.8,5.3-2.4
			c1.5-1.6,2.3-3.4,2.3-5.4v-6.8c0-2-0.8-3.8-2.3-5.3c-1.5-1.6-3.3-2.4-5.3-2.4c-2.1,0-3.9,0.8-5.4,2.4c-1.5,1.6-2.2,3.4-2.2,5.3
			V50.3z"/>
		<path class="st0" d="M96.5,62V10.7c0-0.7,0.4-1.4,1.1-1.8c0.7-0.5,1.7-0.7,2.8-0.7c1.1,0,2,0.2,2.8,0.7c0.8,0.5,1.2,1.1,1.2,1.8
			V62c0,0.6-0.4,1.2-1.2,1.8c-0.8,0.5-1.7,0.8-2.8,0.8c-1.1,0-2-0.3-2.8-0.8C96.9,63.2,96.5,62.6,96.5,62z"/>
		<path class="st0" d="M112.5,16.2c0-1.1,0.4-2.1,1.3-2.9c0.9-0.8,2-1.2,3.2-1.2c1.2,0,2.3,0.4,3.2,1.2s1.3,1.8,1.3,2.9
			c0,1.1-0.4,2.1-1.3,2.9c-0.9,0.8-2,1.2-3.2,1.2c-1.2,0-2.3-0.4-3.2-1.2C113,18.3,112.5,17.3,112.5,16.2z M113.2,62V31.8
			c0-0.7,0.4-1.4,1.1-1.8c0.7-0.5,1.7-0.7,2.8-0.7c1.1,0,2.1,0.2,2.8,0.7c0.7,0.5,1.1,1.1,1.1,1.8V62c0,0.6-0.4,1.2-1.2,1.8
			c-0.8,0.5-1.7,0.8-2.8,0.8c-1.1,0-2-0.3-2.8-0.8C113.6,63.2,113.2,62.6,113.2,62z"/>
		<path class="st0" d="M127,59.2c0-0.7,0.3-1.5,0.8-2.3s1.2-1.2,1.9-1.2c0.5,0,1.1,0.3,1.9,0.9c0.8,0.6,1.9,1.2,3.2,1.8
			s3,0.9,4.9,0.9c4.3,0,6.4-1.4,6.4-4.1c0-1.5-0.6-2.6-1.9-3.4c-1.2-0.8-2.7-1.5-4.5-2c-1.8-0.5-3.5-1-5.3-1.6
			c-1.7-0.6-3.2-1.6-4.5-3.1c-1.2-1.5-1.9-3.3-1.9-5.6c0-2.9,1-5.4,3.1-7.5s5.3-3.2,9.6-3.2c2.8,0,5.4,0.4,7.7,1.3
			c2.3,0.9,3.5,1.9,3.5,3.1c0,0.7-0.3,1.5-0.9,2.4c-0.6,0.9-1.3,1.4-2.1,1.4c-0.3,0-1.3-0.4-3.1-1.1c-1.7-0.7-3.4-1.1-5-1.1
			c-2,0-3.5,0.5-4.5,1.4c-1,0.9-1.5,1.9-1.5,3c0,1.2,0.6,2.2,1.9,2.9c1.2,0.7,2.8,1.3,4.6,1.7s3.6,1,5.3,1.7s3.2,1.8,4.4,3.4
			c1.2,1.6,1.8,3.7,1.8,6.2c0,3.2-1.1,5.7-3.4,7.6c-2.3,1.8-5.5,2.7-9.7,2.7c-3.5,0-6.6-0.6-9.1-1.9C128.3,62.1,127,60.7,127,59.2z"
			/>
		<path class="st0" d="M159.5,62V10.8c0-0.7,0.4-1.4,1.1-1.8c0.7-0.5,1.7-0.7,2.8-0.7c1.1,0,2,0.2,2.8,0.7c0.8,0.5,1.2,1.1,1.2,1.8
			v23.7c0.8-1.6,2-3,3.7-4.1c1.7-1.1,3.6-1.7,5.9-1.7c3.5,0,6.6,1.4,9.1,4.3c2.6,2.9,3.8,6.3,3.8,10.4V62c0,0.8-0.4,1.4-1.2,1.9
			c-0.8,0.5-1.7,0.7-2.8,0.7c-1,0-1.9-0.2-2.7-0.7c-0.8-0.5-1.2-1.1-1.2-1.9V43.5c0-2-0.7-3.8-2.2-5.4c-1.5-1.6-3.3-2.4-5.3-2.4
			c-1.9,0-3.6,0.7-5,2.1c-1.4,1.4-2.2,3.3-2.2,5.6V62c0,0.6-0.4,1.2-1.2,1.8s-1.7,0.8-2.8,0.8c-1.1,0-2-0.3-2.8-0.8
			C159.8,63.2,159.5,62.6,159.5,62z"/>
		<path class="st0" d="M196.4,50.3v-7.1c0-3.9,1.5-7.3,4.6-10.2c3-2.9,6.7-4.3,11-4.3c4.1,0,7.6,1.3,10.5,3.9
			c2.9,2.6,4.4,5.9,4.4,9.8c0,1.5-0.2,2.8-0.5,3.7c-0.3,0.9-0.9,1.6-1.6,2c-0.7,0.4-1.4,0.6-2.1,0.7c-0.6,0.1-1.5,0.2-2.5,0.2h-15.7
			v1.7c0,2.5,0.9,4.5,2.7,6s4.1,2.2,7,2.2c2,0,4-0.5,5.8-1.4c1.8-1,2.9-1.4,3.3-1.4c0.8,0,1.6,0.4,2.2,1.2c0.6,0.8,0.9,1.6,0.9,2.3
			c0,1.2-1.2,2.5-3.6,3.7c-2.4,1.3-5.3,1.9-8.8,1.9c-5.1,0-9.2-1.4-12.5-4.1C198,58.3,196.4,54.8,196.4,50.3z M204.2,44h12.4
			c1.1,0,1.8-0.1,2.2-0.4s0.6-0.9,0.6-1.8c0-2-0.7-3.6-2.2-5c-1.4-1.4-3.2-2.1-5.4-2.1c-2.1,0-3.9,0.6-5.4,1.9c-1.5,1.3-2.2,3-2.2,5
			V44z"/>
		<path class="st0" d="M231.8,50.3v-6.9c0-4,1.3-7.5,3.9-10.4c2.6-2.9,5.8-4.3,9.4-4.3c2.2,0,4.1,0.6,5.8,1.7c1.7,1.1,3,2.5,3.9,4.1
			V10.8c0-0.7,0.4-1.4,1.1-1.8c0.7-0.5,1.7-0.7,2.8-0.7c1.1,0,2.1,0.2,2.8,0.7c0.7,0.5,1.1,1.1,1.1,1.8V62c0,0.6-0.4,1.2-1.1,1.8
			c-0.7,0.5-1.7,0.8-2.8,0.8c-0.9,0-1.8-0.3-2.5-0.8c-0.7-0.6-1.1-1.2-1.1-1.8v-2.6c-0.8,1.6-2.2,3-4.1,4.1c-1.9,1.2-4,1.7-6.2,1.7
			c-3.5,0-6.5-1.5-9.2-4.5C233.1,57.7,231.8,54.2,231.8,50.3z M239.6,50.3c0,2,0.7,3.8,2.2,5.4c1.5,1.6,3.3,2.4,5.3,2.4
			c1.9,0,3.7-0.8,5.3-2.3c1.6-1.5,2.4-2.8,2.4-3.9v-8.5c0-2.3-0.8-4.1-2.3-5.6c-1.5-1.4-3.3-2.2-5.3-2.2c-2,0-3.8,0.8-5.3,2.4
			c-1.5,1.6-2.3,3.4-2.3,5.3V50.3z"/>
	</g>
</g>
</svg>
