<?xml version="1.0" encoding="utf-8"?>
<!-- Generator: Adobe Illustrator 21.0.2, SVG Export Plug-In . SVG Version: 6.00 Build 0)  -->
<svg version="1.1" id="Layer_1" xmlns="http://www.w3.org/2000/svg" xmlns:xlink="http://www.w3.org/1999/xlink" x="0px" y="0px"
	 viewBox="0 0 687.3 691" style="enable-background:new 0 0 687.3 691;" xml:space="preserve">
<style type="text/css">
	.st0{fill:#FFFFFF;stroke:#000000;stroke-width:15;stroke-miterlimit:10;}
	.st1{stroke:#040D6A;stroke-width:9;stroke-miterlimit:10;}
	.st2{fill:#FFFFFF;stroke:#040D6A;stroke-width:9;stroke-miterlimit:10;}
	.st3{fill:#C8C8C8;}
	.st4{fill:#040D6A;}
	.st5{fill:none;stroke:#000000;stroke-width:3;stroke-linejoin:round;}
	.st6{fill:none;stroke:#000000;stroke-width:2;stroke-linejoin:round;}
</style>
<title>north-star</title>
<path class="st0" d="M344.2,665.8l-94-66C166.3,541,115.6,445.6,113.8,343.2l-3.2-178.5l53.4-37.3c108-75.4,251.8-74.8,359.1,1.6
	l50.2,35.8l4.2,151.8c3.3,114.5-50.8,223.1-144.2,289.5L344.2,665.8z"/>
<path class="st1" d="M344.2,658.5l-90.6-64.4C172.8,536.7,124,443.7,122.2,343.8l-3.1-174.1l51.5-36.4
	c103.7-73.6,242.8-73,345.9,1.5l48.4,34.9l4.1,148c3.1,111.7-49,217.6-138.9,282.3L344.2,658.5z"/>
<path class="st2" d="M343.6,658.5l-90.6-64.4c-80.8-57.4-129.6-150.4-131.3-250.3l-3.1-174.1l51.5-36.4
	c50.6-35.9,111.2-55,173.2-54.8C343.4,160.7,343.6,658.5,343.6,658.5z"/>
<polygon class="st3" points="343.7,344 284.5,284.2 344.2,1.5 "/>
<polygon class="st3" points="243.3,293 151.7,152.6 283.8,284.5 "/>
<polyline class="st3" points="537.2,537.3 405.1,405.5 445.6,397 "/>
<polyline class="st3" points="536.2,151.1 404.3,283.3 395.9,242.7 "/>
<polyline class="st3" points="152,537.3 283.9,405.1 292.4,445.7 "/>
<polygon class="st3" points="344.8,345.5 404,405.3 344.3,688 "/>
<polygon class="st3" points="343.7,345 283.8,404.2 1.2,344.5 "/>
<polygon class="st4" points="284.5,284.2 150,150.2 293.4,241.9 "/>
<polyline class="st4" points="395.3,446.4 404.2,404.2 538.7,538.2 "/>
<polyline class="st4" points="446.4,293.3 404.2,284.4 538.2,149.9 "/>
<polyline class="st4" points="241.7,395.5 284,404.4 150,538.9 "/>
<polygon class="st3" points="344.2,343.7 404,284.5 686.7,344.2 "/>
<polygon class="st4" points="344.2,345 404,404.2 686.7,344.5 "/>
<polygon class="st4" points="343.7,345.5 284.5,405.3 344.2,688 "/>
<polygon class="st4" points="343.7,343.7 283.8,284.5 1.2,344.2 "/>
<polygon class="st4" points="344.8,344 404,284.2 344.3,1.5 "/>
<polygon class="st5" points="344.2,344.5 344.2,689.5 292.4,444.5 284,404.8 "/>
<polygon class="st5" points="404.1,404.5 395.7,444.5 344.2,689.5 344.2,344.5 "/>
<polygon class="st5" points="685.8,344.5 445.2,395.5 404.2,404.2 404.1,404.5 344.2,344.5 344.2,344.5 "/>
<polygon class="st5" points="685.8,344.5 344.2,344.5 404.4,284.2 445.2,293 "/>
<polygon class="st5" points="404.4,284.2 344.2,344.5 344.2,1.5 395.4,242.9 404.2,284.2 "/>
<polygon class="st5" points="344.2,1.5 344.2,344.5 344.2,344.5 284,284.3 284.5,284.2 293.4,241.9 "/>
<polygon class="st5" points="344.2,344.5 284,404.8 283.8,404.2 242.7,395.5 1.5,344.5 344.2,344.5 "/>
<polygon class="st5" points="344.2,344.5 1.5,344.5 243.3,293 243.6,292.9 283.8,284.5 283.7,284.4 284,284.3 "/>
<polygon class="st6" points="293.4,241.9 284.5,284.2 284,284.3 150,150.2 "/>
<polygon class="st6" points="283.7,284.4 243.6,292.9 243.3,293 150,150.2 "/>
<polygon class="st6" points="538.3,150.2 404.4,284.2 404.2,284.2 395.4,242.9 "/>
<line class="st6" x1="395.4" y1="242.9" x2="395.3" y2="243"/>
<polygon class="st6" points="538.3,150.2 445.2,293 404.4,284.2 "/>
<polygon class="st6" points="538.3,538.8 404.1,404.5 404.2,404.2 445.2,395.5 "/>
<polygon class="st6" points="538.3,538.8 395.7,444.5 404.1,404.5 "/>
<polygon class="st6" points="292.4,444.5 150,538.8 284,404.8 "/>
<polygon class="st6" points="284,404.8 150,538.8 242.7,395.5 283.8,404.2 "/>
</svg>
