<svg xmlns="http://www.w3.org/2000/svg" viewBox="0 0 720 720"><defs><style>.cls-1{isolation:isolate;}.cls-2{fill:#5e0d8b;}.cls-17,.cls-3{fill:#fff;}.cls-4{fill:#f47d30;}.cls-11,.cls-12,.cls-13,.cls-14,.cls-15,.cls-16,.cls-5{fill:none;}.cls-14,.cls-17,.cls-5{stroke:#fff;}.cls-11,.cls-12,.cls-13,.cls-14,.cls-17,.cls-5{stroke-miterlimit:10;}.cls-5{stroke-width:10.96px;}.cls-6,.cls-8{opacity:0.25;}.cls-7{fill:#bbb6b4;}.cls-8{mix-blend-mode:darken;}.cls-9{fill:#cdc9c8;}.cls-10{fill:#98918f;}.cls-11,.cls-13,.cls-15{stroke:#000;}.cls-11,.cls-12{stroke-width:2.43px;}.cls-12,.cls-16{stroke:#5e0d8b;}.cls-13{stroke-linecap:round;stroke-width:0.61px;}.cls-14{stroke-width:9.39px;}.cls-15,.cls-16{stroke-linejoin:round;}.cls-15{stroke-width:23.48px;}.cls-16{stroke-width:15.65px;}.cls-17{stroke-width:1.2px;}</style></defs><title>osba-sq</title><g class="cls-1"><g id="Layer_1" data-name="Layer 1"><path d="M352.38,207.26c133.41,0,241.57,108.15,241.57,241.57S485.8,690.39,352.38,690.39,110.82,582.24,110.82,448.82,219,207.26,352.38,207.26m0-26.61a267.42,267.42,0,1,0,104.39,21.09,266.52,266.52,0,0,0-104.39-21.09Z"/><path class="cls-2" d="M352.38,207.26c133.41,0,241.57,108.15,241.57,241.57S485.8,690.39,352.38,690.39,110.82,582.24,110.82,448.82,219,207.26,352.38,207.26m0-18.78a259.59,259.59,0,1,0,101.34,20.47,258.74,258.74,0,0,0-101.34-20.47Z"/><path class="cls-3" d="M352.38,207.26c133.41,0,241.57,108.15,241.57,241.57S485.8,690.39,352.38,690.39,110.82,582.24,110.82,448.82,219,207.26,352.38,207.26m0-7.83A248.64,248.64,0,1,0,449.46,219a247.84,247.84,0,0,0-97.08-19.6Z"/><circle class="cls-4" cx="352.38" cy="448.82" r="241.57"/><ellipse class="cls-5" cx="352.38" cy="440.61" rx="243.65" ry="162.39"/><path class="cls-6" d="M412.85,436.26l-19-.23-5.24-248c4.32.59,8.62,1.3,12.88,2.11Z"/><path class="cls-7" d="M310.39,377.67,309.22,436c-51.46.9-100,3.41-143.62,7.24L164.41,385C208.7,381.12,258,378.55,310.39,377.67Z"/><path class="cls-8" d="M111,367.41l-8.41,1,14.88-35.63,15-1.86s-7.53,14-8.56,16.24S111,367.41,111,367.41Z"/><path class="cls-2" d="M163.94,361.77c-18.58,1.64-36.27,3.53-52.92,5.64v0l6.49-31.15q19.27-2.34,40.24-4.27Z"/><path class="cls-9" d="M393.87,436q-20.85-.38-42.33-.37t-42.33.37l6.17-305.94H387.7Z"/><rect class="cls-2" x="311.47" y="123.21" width="80.15" height="17.57"/><path class="cls-2" d="M310.86,354.34l-.47,23.32c-52.36.88-101.69,3.46-146,7.37l-.47-23.27C208.48,357.82,258.13,355.22,310.86,354.34Z"/><path class="cls-9" d="M165.6,443.26c-18.56,1.63-36.26,3.49-52.92,5.56L111,367.41c16.65-2.12,34.34-4,52.92-5.64Z"/><path class="cls-10" d="M151.09,427.57q-12.57,1-24.75,2.07l-.81-39c4.22-.38,8.49-9.31,12.78-9.67,4-.33,8,7.91,12,7.6Z"/><path class="cls-7" d="M392.69,377.67,393.86,436c51.46.9,100,3.41,143.62,7.24L538.67,385C494.38,381.12,445.05,378.55,392.69,377.67Z"/><path class="cls-8" d="M592.09,367.43l8.28.89-11-35.27-17-2s7.44,14.26,8.48,16.47S592.09,367.43,592.09,367.43Z"/><path class="cls-2" d="M539.14,361.77c18.58,1.64,36.27,3.53,52.92,5.64v0l-6.49-31.15q-19.27-2.34-40.24-4.27Z"/><path class="cls-2" d="M392.22,354.34l.47,23.32c52.36.88,101.69,3.46,146,7.37l.47-23.27C494.6,357.82,445,355.22,392.22,354.34Z"/><path class="cls-9" d="M537.48,443.26c18.56,1.63,36.26,3.49,52.92,5.56l1.66-81.41c-16.65-2.12-34.34-4-52.92-5.64Z"/><polygon class="cls-2" points="335.28 61.44 319.73 130.09 383.36 130.09 367.81 61.44 335.28 61.44"/><polygon class="cls-8" points="163.94 361.77 173.03 360.99 174.08 442.54 165.6 443.26 163.94 361.77"/><path class="cls-10" d="M195.89,425.61q-8.34.65-16.42,1.38l-.54-25.88c2.8-.25,4.7-6.17,7.55-6.41,2.63-.22,6.22,5.24,8.89,5Z"/><path class="cls-10" d="M228.76,423.37c-5.55.32-11,.66-16.44,1.05l-.53-25.89c2.81-.19,4.71-6.06,7.55-6.24,2.64-.17,6.22,5.35,8.89,5.19Z"/><path class="cls-10" d="M261.64,421.7c-5.53.23-11,.48-16.42.77l-.54-25.91c2.82-.14,4.72-6,7.56-6.08,2.64-.12,6.22,5.44,8.88,5.34Z"/><path class="cls-10" d="M294.53,420.6q-8.27.21-16.44.48l-.53-25.89c2.82-.1,4.71-5.87,7.55-6,2.64-.08,6.21,5.53,8.87,5.46Z"/><path class="cls-10" d="M507.2,425.61q8.34.65,16.42,1.38l.54-25.88c-2.8-.25-4.7-6.17-7.55-6.41-2.63-.22-6.22,5.24-8.89,5Z"/><path class="cls-10" d="M474.33,423.37c5.55.32,11,.66,16.44,1.05l.53-25.89c-2.81-.19-4.71-6.06-7.55-6.24-2.64-.17-6.22,5.35-8.89,5.19Z"/><path class="cls-10" d="M441.45,421.7c5.53.23,11,.48,16.42.77l.54-25.91c-2.82-.14-4.72-6-7.56-6.08-2.64-.12-6.22,5.44-8.88,5.34Z"/><path class="cls-10" d="M408.56,420.6q8.27.21,16.44.48l.53-25.89c-2.82-.1-4.71-5.87-7.55-6-2.64-.08-6.21,5.53-8.87,5.46Z"/><polygon class="cls-8" points="392.22 354.34 409.09 354.68 412.85 436.25 393.86 436.03 392.22 354.34"/><g class="cls-8"><circle class="cls-11" cx="352.76" cy="186.02" r="21.3"/><circle class="cls-11" cx="351.55" cy="184.81" r="21.3"/></g><circle class="cls-3" cx="351.55" cy="184.81" r="21.3"/><circle class="cls-12" cx="351.55" cy="184.81" r="21.3"/><circle cx="351.55" cy="184.81" r="2.61"/><path d="M354.23,186.36a3.07,3.07,0,0,1-1.48,1.29l13.9,5.87-12-9.1A3.07,3.07,0,0,1,354.23,186.36Z"/><path d="M340.14,184.81l8.5,1.06a2.93,2.93,0,0,1,0-2.12Z"/><line class="cls-13" x1="351.55" y1="199" x2="351.55" y2="203.15"/><line class="cls-13" x1="351.55" y1="201.08" x2="351.55" y2="203.15"/><line class="cls-13" x1="363.05" y1="196.31" x2="364.52" y2="197.78"/><line class="cls-13" x1="363.05" y1="173.31" x2="364.52" y2="171.84"/><line class="cls-13" x1="340.04" y1="173.31" x2="338.57" y2="171.84"/><line class="cls-13" x1="340.04" y1="196.31" x2="338.57" y2="197.78"/><line class="cls-13" x1="365.73" y1="184.81" x2="369.89" y2="184.81"/><line class="cls-13" x1="351.55" y1="170.62" x2="351.55" y2="166.46"/><line class="cls-13" x1="337.36" y1="184.81" x2="333.2" y2="184.81"/><path class="cls-10" d="M552,427.57q12.57,1,24.75,2.07l.81-39c-4.22-.38-8.49-9.31-12.78-9.67-4-.33-8,7.91-12,7.6Z"/><path class="cls-10" d="M373.93,435.76V372.6C364.11,371.19,358.1,359,351.55,359S339,371.19,329.16,372.6v63.16q11.12-.1,22.39-.11T373.93,435.76Z"/><g class="cls-8"><path d="M360.5,123.21V98c-3.93-.57-6.33-5.46-9-5.46s-5,4.89-9,5.46v25.25q4.44,0,9,0T360.5,123.21Z"/></g><polygon class="cls-10" points="344.76 331.95 331.25 331.95 332.54 227.11 345.21 227.11 344.76 331.95"/><polygon class="cls-10" points="371.79 331.95 358.28 331.95 357.89 227.11 370.57 227.11 371.79 331.95"/><path class="cls-14" d="M593.95,448.82c0-.08,0-.16,0-.24-64.46-9.33-149-15-241.56-15s-177.11,5.66-241.56,15c0,.08,0,.16,0,.24"/><path class="cls-15" d="M81.07,494.06c-1.24-13.48,6.59-21.43,22.56-22.9l19-1.75c16-1.47,25.13,4.92,26.37,18.4l5.44,59.08c1.24,13.48-6.59,21.43-22.56,22.9l-19,1.75c-16,1.47-25.13-4.91-26.37-18.4Zm45.4,57.57c4.42-.41,6.62-2.49,6.27-6.36l-4.78-51.91c-.34-3.73-2.91-5.52-7.33-5.11l-10.87,1c-4.42.41-6.61,2.63-6.27,6.36l4.78,51.91c.36,3.87,2.91,5.52,7.32,5.11Z"/><path class="cls-15" d="M237.66,461.95c1.87-.1,2.77.72,2.85,2.16l.76,14.38c.08,1.44-.73,2.35-2.6,2.45l-19.76,1,4.18,79.38c.08,1.58-.73,2.35-2.6,2.44l-17.72.94c-1.7.09-2.76-.57-2.85-2.16l-4.18-79.38-19.76,1c-1.7.09-2.77-.72-2.85-2.16l-.76-14.38c-.08-1.44.9-2.36,2.6-2.45Z"/><path class="cls-15" d="M322.66,459.71c1.88,0,2.75.8,2.78,2.24l.33,14.4c0,1.44-.8,2.32-2.68,2.37l-19.79.45,1.8,79.47c0,1.58-.8,2.32-2.68,2.36l-17.74.4c-1.71,0-2.75-.66-2.78-2.24l-1.8-79.47-19.79.45c-1.71,0-2.75-.8-2.78-2.24l-.33-14.4c0-1.44,1-2.33,2.68-2.36Z"/><path class="cls-15" d="M399.52,560.59a2.52,2.52,0,0,1-2.72-2l-5.37-18.17-32.08-.15L354,558.35a2.52,2.52,0,0,1-2.74,2l-16.72-.08c-1.88,0-2.73-.88-2.21-2.46l28.78-96.21c.35-1.44,1.37-2,2.91-2l23.72.11c1.54,0,2.56.59,2.89,2l27.87,96.47c.5,1.59-.35,2.45-2.4,2.44Zm-23.87-76.15-10.93,39.12,21.5.1Z"/><path class="cls-15" d="M543,464.61c2.39.1,3.53,1.3,3.11,3.16l-20.39,94.41c-.41,1.71-1.64,2.53-3.86,2.43l-18.41-.78c-2-.09-3.2-1-3.64-2.75l-13.18-59.65-18.35,58.32c-.58,1.7-1.81,2.52-3.86,2.43l-18.75-.79c-2.22-.09-3.37-1-3.63-2.89l-11.66-95.62c-.26-1.88,1-3,3.37-2.88l16,.68c2,.09,3.2,1,3.46,2.88L459,524l.85,0,19.26-59.72c.58-1.56,1.81-2.37,3.85-2.29l10.4.44c2,.09,3.2,1,3.65,2.6l14.15,61.14.85,0,11.24-59.77c.42-1.86,1.48-2.68,3.7-2.58Z"/><path class="cls-15" d="M617.86,572.28a2.52,2.52,0,0,1-2.54-2.25l-3.82-18.56-31.95-2.85-6.88,17.6a2.52,2.52,0,0,1-2.9,1.77l-16.65-1.49c-1.87-.17-2.64-1.1-2-2.64l36.78-93.44c.47-1.4,1.54-1.89,3.07-1.75l23.62,2.11c1.53.14,2.5.8,2.71,2.27l19.64,98.48c.37,1.62-.56,2.41-2.6,2.23Zm-17.37-77.89L586.3,532.45l21.41,1.91Z"/><path class="cls-16" d="M81.07,494.06c-1.24-13.48,6.59-21.43,22.56-22.9l19-1.75c16-1.47,25.13,4.92,26.37,18.4l5.44,59.08c1.24,13.48-6.59,21.43-22.56,22.9l-19,1.75c-16,1.47-25.13-4.91-26.37-18.4Zm45.4,57.57c4.42-.41,6.62-2.49,6.27-6.36l-4.78-51.91c-.34-3.73-2.91-5.52-7.33-5.11l-10.87,1c-4.42.41-6.61,2.63-6.27,6.36l4.78,51.91c.36,3.87,2.91,5.52,7.32,5.11Z"/><path class="cls-16" d="M237.66,461.95c1.87-.1,2.77.72,2.85,2.16l.76,14.38c.08,1.44-.73,2.35-2.6,2.45l-19.76,1,4.18,79.38c.08,1.58-.73,2.35-2.6,2.44l-17.72.94c-1.7.09-2.76-.57-2.85-2.16l-4.18-79.38-19.76,1c-1.7.09-2.77-.72-2.85-2.16l-.76-14.38c-.08-1.44.9-2.36,2.6-2.45Z"/><path class="cls-16" d="M322.66,459.71c1.88,0,2.75.8,2.78,2.24l.33,14.4c0,1.44-.8,2.32-2.68,2.37l-19.79.45,1.8,79.47c0,1.58-.8,2.32-2.68,2.36l-17.74.4c-1.71,0-2.75-.66-2.78-2.24l-1.8-79.47-19.79.45c-1.71,0-2.75-.8-2.78-2.24l-.33-14.4c0-1.44,1-2.33,2.68-2.36Z"/><path class="cls-16" d="M399.52,560.59a2.52,2.52,0,0,1-2.72-2l-5.37-18.17-32.08-.15L354,558.35a2.52,2.52,0,0,1-2.74,2l-16.72-.08c-1.88,0-2.73-.88-2.21-2.46l28.78-96.21c.35-1.44,1.37-2,2.91-2l23.72.11c1.54,0,2.56.59,2.89,2l27.87,96.47c.5,1.59-.35,2.45-2.4,2.44Zm-23.87-76.15-10.93,39.12,21.5.1Z"/><path class="cls-16" d="M543,464.61c2.39.1,3.53,1.3,3.11,3.16l-20.39,94.41c-.41,1.71-1.64,2.53-3.86,2.43l-18.41-.78c-2-.09-3.2-1-3.64-2.75l-13.18-59.65-18.35,58.32c-.58,1.7-1.81,2.52-3.86,2.43l-18.75-.79c-2.22-.09-3.37-1-3.63-2.89l-11.66-95.62c-.26-1.88,1-3,3.37-2.88l16,.68c2,.09,3.2,1,3.46,2.88L459,524l.85,0,19.26-59.72c.58-1.56,1.81-2.37,3.85-2.29l10.4.44c2,.09,3.2,1,3.65,2.6l14.15,61.14.85,0,11.24-59.77c.42-1.86,1.48-2.68,3.7-2.58Z"/><path class="cls-16" d="M617.86,572.28a2.52,2.52,0,0,1-2.54-2.25l-3.82-18.56-31.95-2.85-6.88,17.6a2.52,2.52,0,0,1-2.9,1.77l-16.65-1.49c-1.87-.17-2.64-1.1-2-2.64l36.78-93.44c.47-1.4,1.54-1.89,3.07-1.75l23.62,2.11c1.53.14,2.5.8,2.71,2.27l19.64,98.48c.37,1.62-.56,2.41-2.6,2.23Zm-17.37-77.89L586.3,532.45l21.41,1.91Z"/><path class="cls-3" d="M81.07,494.06c-1.24-13.48,6.59-21.43,22.56-22.9l19-1.75c16-1.47,25.13,4.92,26.37,18.4l5.44,59.08c1.24,13.48-6.59,21.43-22.56,22.9l-19,1.75c-16,1.47-25.13-4.91-26.37-18.4Zm45.4,57.57c4.42-.41,6.62-2.49,6.27-6.36l-4.78-51.91c-.34-3.73-2.91-5.52-7.33-5.11l-10.87,1c-4.42.41-6.61,2.63-6.27,6.36l4.78,51.91c.36,3.87,2.91,5.52,7.32,5.11Z"/><path class="cls-3" d="M237.66,461.95c1.87-.1,2.77.72,2.85,2.16l.76,14.38c.08,1.44-.73,2.35-2.6,2.45l-19.76,1,4.18,79.38c.08,1.58-.73,2.35-2.6,2.44l-17.72.94c-1.7.09-2.76-.57-2.85-2.16l-4.18-79.38-19.76,1c-1.7.09-2.77-.72-2.85-2.16l-.76-14.38c-.08-1.44.9-2.36,2.6-2.45Z"/><path class="cls-3" d="M322.66,459.71c1.88,0,2.75.8,2.78,2.24l.33,14.4c0,1.44-.8,2.32-2.68,2.37l-19.79.45,1.8,79.47c0,1.58-.8,2.32-2.68,2.36l-17.74.4c-1.71,0-2.75-.66-2.78-2.24l-1.8-79.47-19.79.45c-1.71,0-2.75-.8-2.78-2.24l-.33-14.4c0-1.44,1-2.33,2.68-2.36Z"/><path class="cls-3" d="M399.52,560.59a2.52,2.52,0,0,1-2.72-2l-5.37-18.17-32.08-.15L354,558.35a2.52,2.52,0,0,1-2.74,2l-16.72-.08c-1.88,0-2.73-.88-2.21-2.46l28.78-96.21c.35-1.44,1.37-2,2.91-2l23.72.11c1.54,0,2.56.59,2.89,2l27.87,96.47c.5,1.59-.35,2.45-2.4,2.44Zm-23.87-76.15-10.93,39.12,21.5.1Z"/><path class="cls-3" d="M543,464.61c2.39.1,3.53,1.3,3.11,3.16l-20.39,94.41c-.41,1.71-1.64,2.53-3.86,2.43l-18.41-.78c-2-.09-3.2-1-3.64-2.75l-13.18-59.65-18.35,58.32c-.58,1.7-1.81,2.52-3.86,2.43l-18.75-.79c-2.22-.09-3.37-1-3.63-2.89l-11.66-95.62c-.26-1.88,1-3,3.37-2.88l16,.68c2,.09,3.2,1,3.46,2.88L459,524l.85,0,19.26-59.72c.58-1.56,1.81-2.37,3.85-2.29l10.4.44c2,.09,3.2,1,3.65,2.6l14.15,61.14.85,0,11.24-59.77c.42-1.86,1.48-2.68,3.7-2.58Z"/><path class="cls-3" d="M617.86,572.28a2.52,2.52,0,0,1-2.54-2.25l-3.82-18.56-31.95-2.85-6.88,17.6a2.52,2.52,0,0,1-2.9,1.77l-16.65-1.49c-1.87-.17-2.64-1.1-2-2.64l36.78-93.44c.47-1.4,1.54-1.89,3.07-1.75l23.62,2.11c1.53.14,2.5.8,2.71,2.27l19.64,98.48c.37,1.62-.56,2.41-2.6,2.23Zm-17.37-77.89L586.3,532.45l21.41,1.91Z"/><path class="cls-15" d="M206,591.29c12.53-.7,19.51,4.56,20.1,15.14l.41,7.43c.06,1.13-.57,1.84-2,1.92l-13.47.75c-1.33.07-2.17-.56-2.23-1.68l-.26-4.73c-.16-2.93-2-4.4-5.58-4.2l-7.33.41c-3.33.19-5.25,1.87-5.08,4.8l.53,9.57,32.75,7c2.3.55,3.58,1.83,3.7,4l1.18,21.16c.59,10.58-5.77,16.57-18.3,17.27l-14.93.83c-12.4.69-19.51-4.56-20.1-15.14l-.41-7.31c-.07-1.24.7-1.85,2-1.92l13.47-.75c1.47-.08,2.16.44,2.23,1.68l.26,4.73c.17,3,2.25,4.39,5.58,4.2l7.2-.4c3.47-.19,5.25-1.76,5.08-4.8l-.63-11.37-32.49-7c-2.44-.54-3.71-1.83-3.83-4l-1.08-19.47c-.59-10.58,5.9-16.58,18.3-17.27Z"/><path class="cls-15" d="M254.11,605.32c-.28-10.59,6.25-16.4,18.8-16.72l14.95-.39c12.55-.33,19.37,5.13,19.64,15.72l1.21,46.42c.28,10.59-6.25,16.4-18.8,16.72l-14.95.39c-12.55.33-19.37-5.13-19.64-15.72Zm32.49,47.29c3.47-.09,5.3-1.6,5.22-4.64l-1.06-40.78c-.08-2.93-2-4.46-5.46-4.37l-8.54.22c-3.47.09-5.3,1.72-5.22,4.64l1.06,40.78c.08,3,2,4.46,5.46,4.37Z"/><path class="cls-15" d="M386.15,587.42a2.5,2.5,0,0,1,2.67,2.26l-.07,60.4c0,10.59-6.69,16.22-19.25,16.2l-15,0c-12.55,0-19.22-5.66-19.21-16.25l.07-60.4a2.49,2.49,0,0,1,2.67-2.25l12.82,0a2.5,2.5,0,0,1,2.67,2.26l-.07,57.25c0,3,1.86,4.51,5.34,4.51h6.94c3.47,0,5.34-1.46,5.35-4.5l.07-57.25a2.5,2.5,0,0,1,2.67-2.25Z"/><path class="cls-15" d="M465.64,589.13c1.47,0,2.12.73,2.09,1.86l-.3,11.27c0,1.13-.72,1.78-2.18,1.74l-15.48-.42-1.67,62.19c0,1.24-.72,1.78-2.18,1.75L432,667.14c-1.33,0-2.12-.62-2.09-1.86l1.67-62.19-15.48-.42c-1.33,0-2.12-.73-2.09-1.86l.3-11.27c0-1.13.85-1.78,2.18-1.74Z"/><path class="cls-15" d="M528.59,594c.06-1.13.9-1.76,2.23-1.68l13.73.76c1.6.09,2.23.8,2.17,1.93l-4.17,75.17c-.06,1.13-.77,1.76-2.37,1.68l-13.73-.76c-1.33-.07-2.1-.79-2-1.92l1.66-29.93L509,638.27l-1.66,29.93c-.06,1.13-.9,1.76-2.23,1.68l-13.73-.76c-1.6-.09-2.23-.8-2.17-1.93L493.39,592c.06-1.13.77-1.76,2.37-1.68l13.73.76c1.33.07,2.1.79,2,1.92l-1.69,30.38,17.07.95Z"/><path class="cls-16" d="M206,591.29c12.53-.7,19.51,4.56,20.1,15.14l.41,7.43c.06,1.13-.57,1.84-2,1.92l-13.47.75c-1.33.07-2.17-.56-2.23-1.68l-.26-4.73c-.16-2.93-2-4.4-5.58-4.2l-7.33.41c-3.33.19-5.25,1.87-5.08,4.8l.53,9.57,32.75,7c2.3.55,3.58,1.83,3.7,4l1.18,21.16c.59,10.58-5.77,16.57-18.3,17.27l-14.93.83c-12.4.69-19.51-4.56-20.1-15.14l-.41-7.31c-.07-1.24.7-1.85,2-1.92l13.47-.75c1.47-.08,2.16.44,2.23,1.68l.26,4.73c.17,3,2.25,4.39,5.58,4.2l7.2-.4c3.47-.19,5.25-1.76,5.08-4.8l-.63-11.37-32.49-7c-2.44-.54-3.71-1.83-3.83-4l-1.08-19.47c-.59-10.58,5.9-16.58,18.3-17.27Z"/><path class="cls-16" d="M254.11,605.32c-.28-10.59,6.25-16.4,18.8-16.72l14.95-.39c12.55-.33,19.37,5.13,19.64,15.72l1.21,46.42c.28,10.59-6.25,16.4-18.8,16.72l-14.95.39c-12.55.33-19.37-5.13-19.64-15.72Zm32.49,47.29c3.47-.09,5.3-1.6,5.22-4.64l-1.06-40.78c-.08-2.93-2-4.46-5.46-4.37l-8.54.22c-3.47.09-5.3,1.72-5.22,4.64l1.06,40.78c.08,3,2,4.46,5.46,4.37Z"/><path class="cls-16" d="M386.15,587.42a2.5,2.5,0,0,1,2.67,2.26l-.07,60.4c0,10.59-6.69,16.22-19.25,16.2l-15,0c-12.55,0-19.22-5.66-19.21-16.25l.07-60.4a2.49,2.49,0,0,1,2.67-2.25l12.82,0a2.5,2.5,0,0,1,2.67,2.26l-.07,57.25c0,3,1.86,4.51,5.34,4.51h6.94c3.47,0,5.34-1.46,5.35-4.5l.07-57.25a2.5,2.5,0,0,1,2.67-2.25Z"/><path class="cls-16" d="M465.64,589.13c1.47,0,2.12.73,2.09,1.86l-.3,11.27c0,1.13-.72,1.78-2.18,1.74l-15.48-.42-1.67,62.19c0,1.24-.72,1.78-2.18,1.75L432,667.14c-1.33,0-2.12-.62-2.09-1.86l1.67-62.19-15.48-.42c-1.33,0-2.12-.73-2.09-1.86l.3-11.27c0-1.13.85-1.78,2.18-1.74Z"/><path class="cls-16" d="M528.59,594c.06-1.13.9-1.76,2.23-1.68l13.73.76c1.6.09,2.23.8,2.17,1.93l-4.17,75.17c-.06,1.13-.77,1.76-2.37,1.68l-13.73-.76c-1.33-.07-2.1-.79-2-1.92l1.66-29.93L509,638.27l-1.66,29.93c-.06,1.13-.9,1.76-2.23,1.68l-13.73-.76c-1.6-.09-2.23-.8-2.17-1.93L493.39,592c.06-1.13.77-1.76,2.37-1.68l13.73.76c1.33.07,2.1.79,2,1.92l-1.69,30.38,17.07.95Z"/><path class="cls-3" d="M206,591.29c12.53-.7,19.51,4.56,20.1,15.14l.41,7.43c.06,1.13-.57,1.84-2,1.92l-13.47.75c-1.33.07-2.17-.56-2.23-1.68l-.26-4.73c-.16-2.93-2-4.4-5.58-4.2l-7.33.41c-3.33.19-5.25,1.87-5.08,4.8l.53,9.57,32.75,7c2.3.55,3.58,1.83,3.7,4l1.18,21.16c.59,10.58-5.77,16.57-18.3,17.27l-14.93.83c-12.4.69-19.51-4.56-20.1-15.14l-.41-7.31c-.07-1.24.7-1.85,2-1.92l13.47-.75c1.47-.08,2.16.44,2.23,1.68l.26,4.73c.17,3,2.25,4.39,5.58,4.2l7.2-.4c3.47-.19,5.25-1.76,5.08-4.8l-.63-11.37-32.49-7c-2.44-.54-3.71-1.83-3.83-4l-1.08-19.47c-.59-10.58,5.9-16.58,18.3-17.27Z"/><path class="cls-3" d="M254.11,605.32c-.28-10.59,6.25-16.4,18.8-16.72l14.95-.39c12.55-.33,19.37,5.13,19.64,15.72l1.21,46.42c.28,10.59-6.25,16.4-18.8,16.72l-14.95.39c-12.55.33-19.37-5.13-19.64-15.72Zm32.49,47.29c3.47-.09,5.3-1.6,5.22-4.64l-1.06-40.78c-.08-2.93-2-4.46-5.46-4.37l-8.54.22c-3.47.09-5.3,1.72-5.22,4.64l1.06,40.78c.08,3,2,4.46,5.46,4.37Z"/><path class="cls-3" d="M386.15,587.42a2.5,2.5,0,0,1,2.67,2.26l-.07,60.4c0,10.59-6.69,16.22-19.25,16.2l-15,0c-12.55,0-19.22-5.66-19.21-16.25l.07-60.4a2.49,2.49,0,0,1,2.67-2.25l12.82,0a2.5,2.5,0,0,1,2.67,2.26l-.07,57.25c0,3,1.86,4.51,5.34,4.51h6.94c3.47,0,5.34-1.46,5.35-4.5l.07-57.25a2.5,2.5,0,0,1,2.67-2.25Z"/><path class="cls-3" d="M465.64,589.13c1.47,0,2.12.73,2.09,1.86l-.3,11.27c0,1.13-.72,1.78-2.18,1.74l-15.48-.42-1.67,62.19c0,1.24-.72,1.78-2.18,1.75L432,667.14c-1.33,0-2.12-.62-2.09-1.86l1.67-62.19-15.48-.42c-1.33,0-2.12-.73-2.09-1.86l.3-11.27c0-1.13.85-1.78,2.18-1.74Z"/><path class="cls-3" d="M528.59,594c.06-1.13.9-1.76,2.23-1.68l13.73.76c1.6.09,2.23.8,2.17,1.93l-4.17,75.17c-.06,1.13-.77,1.76-2.37,1.68l-13.73-.76c-1.33-.07-2.1-.79-2-1.92l1.66-29.93L509,638.27l-1.66,29.93c-.06,1.13-.9,1.76-2.23,1.68l-13.73-.76c-1.6-.09-2.23-.8-2.17-1.93L493.39,592c.06-1.13.77-1.76,2.37-1.68l13.73.76c1.33.07,2.1.79,2,1.92l-1.69,30.38,17.07.95Z"/><rect class="cls-9" x="349.87" y="7.46" width="3.35" height="53.98"/><circle class="cls-2" cx="351.55" cy="6.15" r="2.15"/><path class="cls-2" d="M389.22,8.84q0,8.46,0,16.92c-12,5.35-24-4.27-36,1.08V7.76C365.22,3.12,377.22,13.47,389.22,8.84Z"/><path class="cls-17" d="M380.22,27.43c-6-.13-12-2.14-18-2.27V6.62c6,.49,12,2.86,18,3.35Z"/><path class="cls-2" d="M370.95,24c0-.09,0-.18,0-.27,0-.25,0-.51,0-.76s0-.57,0-.85,0-.47,0-.7,0-.36,0-.54a.39.39,0,0,0-.2-.33.27.27,0,0,0-.1,0l-.55,0-.6,0-.57,0-.54,0-.54,0h-.13s0,0,0,0L368,20c0-.13.09-.25.12-.38a.44.44,0,0,0-.14-.42q-1.12-1.12-2.24-2.22l-.74-.72,0,0,.31-.11.37-.12c.12,0,.16-.11.13-.25s-.08-.35-.13-.53l-.41-1.57s0,0,0,0l1.35.5.36.14a.23.23,0,0,0,.33-.14l.21-.71v0l.05.07.77,1,.58.77a.55.55,0,0,0,.19.17c.14.07.24,0,.28-.11a.75.75,0,0,0,0-.31l-.15-.86-.15-.85-.16-.88-.12-.67v0l0,0,.79.58a.81.81,0,0,0,.23.12.24.24,0,0,0,.29-.08c.06-.09.11-.18.17-.27l.93-1.53s0,0,0,0l.12.25,1,2a.41.41,0,0,0,.3.25.55.55,0,0,0,.26,0l.79-.24h0l0,.15-.2,1-.23,1.15-.15.76a.54.54,0,0,0,0,.23.26.26,0,0,0,.28.21.33.33,0,0,0,.19-.09l1.17-1.06.22-.2h0l.08.3.14.51a.33.33,0,0,0,.32.24c.56,0,1.13,0,1.69-.07.06,0,.06,0,0,.05l-.51,1.75a.57.57,0,0,0,0,.14.23.23,0,0,0,.14.24l.25.15.39.23,0,0-.18.12-1.18.77-1.22.77-.44.28a.33.33,0,0,0-.13.4l.25.85s0,0,0,0l-.61-.19-.67-.22-.62-.21-.51-.17-.48-.15-.06,0a.14.14,0,0,0-.15,0,.25.25,0,0,0-.12.24c0,.24,0,.47,0,.71l0,1,0,.66,0,.8Z"/></g></g></svg>