<svg id="Layer_1" data-name="Layer 1" xmlns="http://www.w3.org/2000/svg" viewBox="0 0 360 360"><defs><style>.cls-1{fill:#393;}</style></defs><title>polished-p-green</title><path class="cls-1" d="M297,116.34c.33,63.6-50.95,116.28-114.54,117.57a117.54,117.54,0,0,1-27.7-2.71A21.48,21.48,0,0,1,139.87,201h0a21.47,21.47,0,0,1,24.06-11.67,74.09,74.09,0,0,0,48-139.19A73.59,73.59,0,0,0,180,42.89c-40.74,0-74.06,34.56-74.06,75.3V338.56A21.44,21.44,0,0,1,84.48,360h0A21.44,21.44,0,0,1,63,338.56V118.38C63,53.64,116-.39,180.73,0A116.88,116.88,0,0,1,297,116.34Z"/></svg>