<svg id="Layer_1" data-name="Layer 1" xmlns="http://www.w3.org/2000/svg" viewBox="0 0 485 100"><defs><style>.cls-1{fill:#fc0;}</style></defs><title>rating-5</title><polygon class="cls-1" points="42.5 9.58 55.63 36.19 85 40.46 63.75 61.17 68.77 90.42 42.5 76.61 16.23 90.42 21.25 61.17 0 40.46 29.37 36.19 42.5 9.58"/><polygon class="cls-1" points="142.5 9.58 155.63 36.19 185 40.46 163.75 61.17 168.77 90.42 142.5 76.61 116.23 90.42 121.25 61.17 100 40.46 129.37 36.19 142.5 9.58"/><polygon class="cls-1" points="242.5 9.58 255.63 36.19 285 40.46 263.75 61.17 268.77 90.42 242.5 76.61 216.23 90.42 221.25 61.17 200 40.46 229.37 36.19 242.5 9.58"/><polygon class="cls-1" points="342.5 9.58 355.63 36.19 385 40.46 363.75 61.17 368.77 90.42 342.5 76.61 316.23 90.42 321.25 61.17 300 40.46 329.37 36.19 342.5 9.58"/><polygon class="cls-1" points="442.5 9.58 455.63 36.19 485 40.46 463.75 61.17 468.77 90.42 442.5 76.61 416.23 90.42 421.25 61.17 400 40.46 429.37 36.19 442.5 9.58"/></svg>