<svg id="Layer_1" data-name="Layer 1" xmlns="http://www.w3.org/2000/svg" viewBox="0 0 460 258.75"><defs><style>.cls-1{fill:none;}.cls-1,.cls-2{stroke:#ddd;stroke-linecap:round;stroke-miterlimit:10;stroke-width:2px;}.cls-2,.cls-6{fill:#fff;}.cls-3{fill:#007500;}.cls-4{fill:#393;}.cls-5{fill:#333;}</style></defs><title>step-print</title><path class="cls-1" d="M0,161.4H371.85a14.75,14.75,0,0,1,14.75,14.75v0a14.75,14.75,0,0,1-14.75,14.75H0a0,0,0,0,1,0,0V161.4A0,0,0,0,1,0,161.4Z"/><rect class="cls-2" x="34.84" y="95" width="100.5" height="100.5"/><circle class="cls-1" cx="371.85" cy="176.15" r="14.75"/><circle class="cls-1" cx="302.25" cy="176.15" r="14.75"/><polyline class="cls-2" points="295.68 258.75 295.68 176.15 308.83 176.15 308.83 258.75"/><circle class="cls-2" cx="302.25" cy="176.15" r="6.58"/><circle class="cls-1" cx="232.66" cy="176.15" r="14.75"/><circle class="cls-1" cx="163.06" cy="176.15" r="14.75"/><circle class="cls-1" cx="16.86" cy="176.15" r="14.75"/><rect class="cls-1" x="74.67" y="86.74" width="20.83" height="8.26"/><polygon class="cls-1" points="90.13 68.33 80.05 68.33 77.27 86.74 92.91 86.74 90.13 68.33"/><line class="cls-1" x1="82.34" y1="82.17" x2="83.17" y2="74.33"/><line class="cls-1" x1="74.8" y1="68.33" x2="62.96" y2="56.5"/><line class="cls-1" x1="95.38" y1="68.33" x2="107.22" y2="56.5"/><line class="cls-1" x1="85.09" y1="62.42" x2="85.09" y2="45.83"/><polyline class="cls-2" points="156.48 258.75 156.48 176.15 169.64 176.15 169.64 258.75"/><circle class="cls-2" cx="163.06" cy="176.15" r="6.58"/><polyline class="cls-2" points="10.28 258.75 10.28 176.15 23.43 176.15 23.43 258.75"/><circle class="cls-2" cx="16.86" cy="176.15" r="6.58"/><rect class="cls-3" x="193.51" y="119.98" width="14.9" height="10.75"/><rect class="cls-4" x="190.85" y="129.32" width="20.22" height="31.79" rx="3.3" ry="3.3"/><rect class="cls-4" x="190.85" y="114.46" width="20.22" height="6.94" rx="2.35" ry="2.35"/><rect class="cls-5" x="193.51" y="109.71" width="14.9" height="4.74" rx="1.67" ry="1.67"/><rect class="cls-5" x="198.48" y="106.31" width="4.96" height="3.41" rx="0.81" ry="0.81"/><path class="cls-6" d="M207.3,141.76a6.34,6.34,0,0,1-7.71,6.22,1.16,1.16,0,0,1-.81-1.64h0a1.16,1.16,0,0,1,1.3-.63,4,4,0,0,0,2.6-7.54,4,4,0,0,0-1.73-.39,4.08,4.08,0,0,0-4,4.08V153.8a1.16,1.16,0,0,1-1.16,1.16h0a1.16,1.16,0,0,1-1.16-1.16V141.87a6.41,6.41,0,0,1,6.38-6.41,6.33,6.33,0,0,1,6.3,6.3Z"/><rect class="cls-3" x="244.8" y="119.98" width="14.9" height="10.75"/><rect class="cls-4" x="242.14" y="129.32" width="20.22" height="31.79" rx="3.3" ry="3.3"/><rect class="cls-4" x="242.14" y="114.46" width="20.22" height="6.94" rx="2.35" ry="2.35"/><rect class="cls-5" x="244.8" y="109.71" width="14.9" height="4.74" rx="1.67" ry="1.67"/><rect class="cls-5" x="249.77" y="106.31" width="4.96" height="3.41" rx="0.81" ry="0.81"/><path class="cls-6" d="M258.59,141.76a6.34,6.34,0,0,1-7.71,6.22,1.16,1.16,0,0,1-.81-1.64h0a1.16,1.16,0,0,1,1.3-.63,4,4,0,0,0,2.6-7.54,4,4,0,0,0-1.73-.39,4.08,4.08,0,0,0-4,4.08V153.8a1.16,1.16,0,0,1-1.16,1.16h0a1.16,1.16,0,0,1-1.16-1.16V141.87a6.41,6.41,0,0,1,6.38-6.41,6.33,6.33,0,0,1,6.3,6.3Z"/><rect class="cls-3" x="141.25" y="119.98" width="14.9" height="10.75"/><rect class="cls-4" x="138.58" y="129.32" width="20.22" height="31.79" rx="3.3" ry="3.3"/><rect class="cls-4" x="138.58" y="114.46" width="20.22" height="6.94" rx="2.35" ry="2.35"/><rect class="cls-5" x="141.25" y="109.71" width="14.9" height="4.74" rx="1.67" ry="1.67"/><rect class="cls-5" x="146.22" y="106.31" width="4.96" height="3.41" rx="0.81" ry="0.81"/><path class="cls-6" d="M155,141.76a6.34,6.34,0,0,1-7.71,6.22,1.16,1.16,0,0,1-.81-1.64h0a1.16,1.16,0,0,1,1.3-.63,4,4,0,0,0,2.6-7.54,4,4,0,0,0-1.73-.39,4.08,4.08,0,0,0-4,4.08V153.8a1.16,1.16,0,0,1-1.16,1.16h0a1.16,1.16,0,0,1-1.16-1.16V141.87a6.41,6.41,0,0,1,6.38-6.41,6.33,6.33,0,0,1,6.3,6.3Z"/><rect class="cls-3" x="9.41" y="119.98" width="14.9" height="10.75"/><rect class="cls-4" x="6.75" y="129.32" width="20.22" height="31.79" rx="3.3" ry="3.3"/><rect class="cls-4" x="6.75" y="114.46" width="20.22" height="6.94" rx="2.35" ry="2.35"/><rect class="cls-5" x="9.41" y="109.71" width="14.9" height="4.74" rx="1.67" ry="1.67"/><rect class="cls-5" x="14.38" y="106.31" width="4.96" height="3.41" rx="0.81" ry="0.81"/><rect class="cls-3" x="296.09" y="119.98" width="14.9" height="10.75"/><rect class="cls-4" x="293.43" y="129.32" width="20.22" height="31.79" rx="3.3" ry="3.3"/><rect class="cls-4" x="293.43" y="114.46" width="20.22" height="6.94" rx="2.35" ry="2.35"/><rect class="cls-5" x="296.09" y="109.71" width="14.9" height="4.74" rx="1.67" ry="1.67"/><rect class="cls-5" x="301.07" y="106.31" width="4.96" height="3.41" rx="0.81" ry="0.81"/><path class="cls-6" d="M309.88,141.76a6.34,6.34,0,0,1-7.71,6.22,1.16,1.16,0,0,1-.81-1.64h0a1.16,1.16,0,0,1,1.3-.63,4,4,0,0,0,2.6-7.54,4,4,0,0,0-1.73-.39,4.08,4.08,0,0,0-4,4.08V153.8a1.16,1.16,0,0,1-1.16,1.16h0a1.16,1.16,0,0,1-1.16-1.16V141.87a6.41,6.41,0,0,1,6.38-6.41,6.33,6.33,0,0,1,6.3,6.3Z"/><rect class="cls-3" x="347.39" y="119.98" width="14.9" height="10.75"/><rect class="cls-4" x="344.73" y="129.32" width="20.22" height="31.79" rx="3.3" ry="3.3"/><rect class="cls-4" x="344.73" y="114.46" width="20.22" height="6.94" rx="2.35" ry="2.35"/><rect class="cls-5" x="347.39" y="109.71" width="14.9" height="4.74" rx="1.67" ry="1.67"/><rect class="cls-5" x="352.36" y="106.31" width="4.96" height="3.41" rx="0.81" ry="0.81"/><path class="cls-6" d="M361.17,141.76a6.34,6.34,0,0,1-7.71,6.22,1.16,1.16,0,0,1-.81-1.64h0a1.16,1.16,0,0,1,1.3-.63,4,4,0,0,0,2.6-7.54,4,4,0,0,0-1.73-.39,4.08,4.08,0,0,0-4,4.08V153.8a1.16,1.16,0,0,1-1.16,1.16h0a1.16,1.16,0,0,1-1.16-1.16V141.87a6.41,6.41,0,0,1,6.38-6.41,6.33,6.33,0,0,1,6.3,6.3Z"/><rect class="cls-3" x="406.22" y="136.86" width="14.9" height="10.75" transform="translate(149.85 -206.69) rotate(33.93)"/><rect class="cls-4" x="392.47" y="142.81" width="20.22" height="31.79" rx="3.3" ry="3.3" transform="translate(157.16 -197.7) rotate(33.93)"/><rect class="cls-4" x="407.7" y="132.6" width="20.22" height="6.94" rx="2.35" ry="2.35" transform="translate(147.11 -210.06) rotate(33.93)"/><rect class="cls-5" x="413.62" y="128.85" width="14.9" height="4.74" rx="1.67" ry="1.67" transform="translate(144.96 -212.71) rotate(33.93)"/><rect class="cls-5" x="420.87" y="126.14" width="4.96" height="3.41" rx="0.81" ry="0.81" transform="translate(143.46 -214.55) rotate(33.93)"/><path class="cls-6" d="M409.77,159.38a6.34,6.34,0,0,1-9.87.86,1.16,1.16,0,0,1,.25-1.81h0a1.16,1.16,0,0,1,1.43.2,4,4,0,0,0,6.37-4.81,4,4,0,0,0-1.22-1.29,4.08,4.08,0,0,0-5.61,1.15l-6.67,9.91a1.16,1.16,0,0,1-1.61.32h0a1.16,1.16,0,0,1-.32-1.61l6.66-9.9a6.41,6.41,0,0,1,8.87-1.76,6.33,6.33,0,0,1,1.71,8.75Z"/><rect class="cls-3" x="429.71" y="194.5" width="14.9" height="10.75" transform="translate(381.41 -277.56) rotate(58.77)"/><rect class="cls-4" x="410.07" y="194.28" width="20.22" height="31.79" rx="3.3" ry="3.3" transform="matrix(0.52, 0.86, -0.86, 0.52, 382.04, -258.09)"/><rect class="cls-4" x="433.4" y="192.55" width="20.22" height="6.94" rx="2.35" ry="2.35" transform="translate(381.18 -284.85) rotate(58.77)"/><rect class="cls-5" x="441.06" y="190.62" width="14.9" height="4.74" rx="1.67" ry="1.67" transform="translate(380.99 -290.58) rotate(58.77)"/><rect class="cls-5" x="449.51" y="189.18" width="4.96" height="3.41" rx="0.81" ry="0.81" transform="translate(380.86 -294.58) rotate(58.77)"/><path class="cls-6" d="M426.42,213.8a6.34,6.34,0,0,1-9.32-3.36,1.16,1.16,0,0,1,1-1.54h0a1.16,1.16,0,0,1,1.22.79,4,4,0,0,0,7.8-1.69,4,4,0,0,0-.56-1.68A4.08,4.08,0,0,0,421,205l-10.21,6.19a1.16,1.16,0,0,1-1.6-.39h0a1.16,1.16,0,0,1,.39-1.6l10.2-6.19a6.41,6.41,0,0,1,8.79,2.13,6.33,6.33,0,0,1-2.12,8.65Z"/><circle class="cls-2" cx="61.09" cy="29.75" r="4.25"/><polygon class="cls-2" points="79.09 29.75 43.09 29.75 54.93 14.75 67.26 14.75 79.09 29.75"/><polyline class="cls-2" points="59.34 0 59.34 14.75 62.84 14.75 62.84 0"/><circle class="cls-2" cx="173.7" cy="29.75" r="4.25"/><polygon class="cls-2" points="191.7 29.75 155.7 29.75 167.53 14.75 179.86 14.75 191.7 29.75"/><polyline class="cls-2" points="171.95 0 171.95 14.75 175.45 14.75 175.45 0"/><circle class="cls-2" cx="286.3" cy="29.75" r="4.25"/><polygon class="cls-2" points="304.3 29.75 268.3 29.75 280.14 14.75 292.47 14.75 304.3 29.75"/><polyline class="cls-2" points="284.55 0 284.55 14.75 288.05 14.75 288.05 0"/><circle class="cls-2" cx="398.91" cy="29.75" r="4.25"/><polygon class="cls-2" points="416.91 29.75 380.91 29.75 392.74 14.75 405.07 14.75 416.91 29.75"/><polyline class="cls-2" points="397.16 0 397.16 14.75 400.66 14.75 400.66 0"/></svg>