<svg id="Layer_1" data-name="Layer 1" xmlns="http://www.w3.org/2000/svg" xmlns:xlink="http://www.w3.org/1999/xlink" viewBox="0 0 460 258.75"><defs><style>.cls-1,.cls-3,.cls-8,.cls-9{fill:none;}.cls-2{clip-path:url(#clip-path);}.cls-3,.cls-9{stroke:#ddd;}.cls-3,.cls-8,.cls-9{stroke-linecap:round;stroke-miterlimit:10;}.cls-3,.cls-8{stroke-width:2px;}.cls-4{fill:#393;}.cls-5{fill:#007500;}.cls-6{fill:#333;}.cls-7{fill:#fff;}.cls-8{stroke:#333;}</style><clipPath id="clip-path"><rect class="cls-1" width="460" height="258.75"/></clipPath></defs><title>step-webstore</title><g class="cls-2"><line class="cls-3" x1="31.13" y1="360.88" x2="31.13" y2="17.34"/><line class="cls-3" x1="428.87" y1="360.88" x2="428.87" y2="17.34"/><line class="cls-3" x1="31.13" y1="17.34" x2="428.87" y2="17.34"/><line class="cls-3" x1="31.13" y1="59.77" x2="428.87" y2="59.77"/><path class="cls-4" d="M66.81,38.87a6.85,6.85,0,0,1-8.32,6.72,1.26,1.26,0,0,1-.87-1.77h0A1.26,1.26,0,0,1,59,43.14,4.33,4.33,0,0,0,61.84,35,4.31,4.31,0,0,0,60,34.57,4.41,4.41,0,0,0,55.64,39V51.87a1.25,1.25,0,0,1-1.25,1.25h0a1.25,1.25,0,0,1-1.25-1.25V39A6.92,6.92,0,0,1,60,32.06a6.84,6.84,0,0,1,6.8,6.81Z"/><path class="cls-4" d="M68.8,41.15V39.29A3.75,3.75,0,0,1,70,36.51a4.22,4.22,0,0,1,5.86,0,3.71,3.71,0,0,1,1.25,2.79v1.85a3.78,3.78,0,0,1-1.26,2.79,4.11,4.11,0,0,1-5.83,0A3.78,3.78,0,0,1,68.8,41.15Zm2.12,0a2.11,2.11,0,0,0,.6,1.47,1.93,1.93,0,0,0,2.89,0A2.09,2.09,0,0,0,75,41.14V39.3a2,2,0,0,0-.61-1.44,2,2,0,0,0-2.89,0,2,2,0,0,0-.6,1.44Z"/><path class="cls-4" d="M79.17,44.29V30.45a.57.57,0,0,1,.29-.49,1.36,1.36,0,0,1,.76-.19A1.42,1.42,0,0,1,81,30a.57.57,0,0,1,.31.49V44.29a.61.61,0,0,1-.32.48,1.28,1.28,0,0,1-.75.22,1.22,1.22,0,0,1-.75-.22A.61.61,0,0,1,79.17,44.29Z"/><path class="cls-4" d="M83.51,31.94a1,1,0,0,1,.36-.79,1.33,1.33,0,0,1,1.73,0,1,1,0,0,1,0,1.56,1.29,1.29,0,0,1-1.73,0A1,1,0,0,1,83.51,31.94Zm.18,12.35V36.13a.57.57,0,0,1,.29-.49,1.35,1.35,0,0,1,.75-.19,1.41,1.41,0,0,1,.77.19.57.57,0,0,1,.3.49v8.16a.61.61,0,0,1-.31.48,1.27,1.27,0,0,1-.76.22,1.22,1.22,0,0,1-.75-.22A.61.61,0,0,1,83.69,44.29Z"/><path class="cls-4" d="M87.41,43.54a1.13,1.13,0,0,1,.21-.62.62.62,0,0,1,.52-.32,1,1,0,0,1,.51.24,4.59,4.59,0,0,0,.87.47,3.32,3.32,0,0,0,1.32.24q1.73,0,1.73-1.09a1.05,1.05,0,0,0-.5-.92A4.15,4.15,0,0,0,90.85,41q-.71-.19-1.42-.44a2.74,2.74,0,0,1-1.21-.83,2.25,2.25,0,0,1-.5-1.52,2.79,2.79,0,0,1,.85-2,3.52,3.52,0,0,1,2.6-.85,5.89,5.89,0,0,1,2.08.35q.94.35.94.84a1.29,1.29,0,0,1-.23.65.67.67,0,0,1-.57.37,4,4,0,0,1-.83-.3,3.43,3.43,0,0,0-1.35-.3A1.79,1.79,0,0,0,90,37.3a1.07,1.07,0,0,0-.41.81.86.86,0,0,0,.5.77,5,5,0,0,0,1.23.47,13.39,13.39,0,0,1,1.43.45,2.61,2.61,0,0,1,1.69,2.57,2.48,2.48,0,0,1-.93,2,4.09,4.09,0,0,1-2.62.74,5.48,5.48,0,0,1-2.45-.5Q87.41,44.15,87.41,43.54Z"/><path class="cls-4" d="M96.18,44.29V30.47a.57.57,0,0,1,.29-.49,1.36,1.36,0,0,1,.76-.19A1.42,1.42,0,0,1,98,30a.57.57,0,0,1,.31.49v6.4a2.84,2.84,0,0,1,2.58-1.55,3.2,3.2,0,0,1,2.47,1.17,4.07,4.07,0,0,1,1,2.8v5a.58.58,0,0,1-.32.51,1.43,1.43,0,0,1-.75.19,1.39,1.39,0,0,1-.73-.19.58.58,0,0,1-.32-.51v-5a2.06,2.06,0,0,0-.6-1.45,1.9,1.9,0,0,0-1.43-.64,1.87,1.87,0,0,0-1.35.57,2,2,0,0,0-.58,1.52v5a.61.61,0,0,1-.32.48,1.28,1.28,0,0,1-.75.22,1.23,1.23,0,0,1-.75-.22A.61.61,0,0,1,96.18,44.29Z"/><path class="cls-4" d="M106.15,41.15V39.23a3.66,3.66,0,0,1,1.23-2.75,4.16,4.16,0,0,1,3-1.16,4.11,4.11,0,0,1,2.83,1A3.39,3.39,0,0,1,114.35,39a2.92,2.92,0,0,1-.14,1,.93.93,0,0,1-.44.53,1.93,1.93,0,0,1-.56.2,4.6,4.6,0,0,1-.68,0h-4.25v.47a2,2,0,0,0,.73,1.61,2.88,2.88,0,0,0,1.89.6,3.32,3.32,0,0,0,1.56-.39,3.29,3.29,0,0,1,.9-.39.71.71,0,0,1,.58.32,1.05,1.05,0,0,1,.24.63q0,.5-1,1a5.72,5.72,0,0,1-5.74-.6A3.62,3.62,0,0,1,106.15,41.15Zm2.12-1.71h3.34a1,1,0,0,0,.59-.12.59.59,0,0,0,.15-.48,1.79,1.79,0,0,0-.58-1.35,2,2,0,0,0-1.45-.56,2.14,2.14,0,0,0-1.45.53,1.7,1.7,0,0,0-.6,1.34Z"/><path class="cls-4" d="M115.7,41.15V39.29a4,4,0,0,1,1.06-2.8,3.32,3.32,0,0,1,2.55-1.17,2.81,2.81,0,0,1,1.57.45,3.13,3.13,0,0,1,1,1.1v-6.4a.57.57,0,0,1,.3-.49,1.41,1.41,0,0,1,.77-.19,1.35,1.35,0,0,1,.75.19.57.57,0,0,1,.29.49V44.29a.61.61,0,0,1-.3.48A1.23,1.23,0,0,1,123,45a1.08,1.08,0,0,1-.67-.22.62.62,0,0,1-.29-.49v-.71a2.77,2.77,0,0,1-1.1,1.12,3.17,3.17,0,0,1-4.16-.75A4.11,4.11,0,0,1,115.7,41.15Zm2.12,0a2.11,2.11,0,0,0,.6,1.47,1.89,1.89,0,0,0,1.43.65,2,2,0,0,0,1.43-.61,1.65,1.65,0,0,0,.64-1.05V39.3a2,2,0,0,0-.62-1.5,2,2,0,0,0-1.43-.58,1.94,1.94,0,0,0-1.44.64,2,2,0,0,0-.61,1.44Z"/><rect class="cls-4" x="368.54" y="29.35" width="41.92" height="18.4" rx="9.2" ry="9.2"/><rect class="cls-4" x="320.74" y="29.35" width="41.92" height="18.4" rx="9.2" ry="9.2"/><rect class="cls-4" x="272.94" y="29.35" width="41.92" height="18.4" rx="9.2" ry="9.2"/><rect class="cls-5" x="117.74" y="129.75" width="30.14" height="21.75"/><rect class="cls-4" x="112.36" y="148.64" width="40.91" height="64.3" rx="6.69" ry="6.69"/><rect class="cls-4" x="112.36" y="118.57" width="40.91" height="14.04" rx="4.75" ry="4.75"/><rect class="cls-6" x="117.74" y="108.98" width="30.14" height="9.6" rx="3.37" ry="3.37"/><rect class="cls-6" x="127.8" y="102.09" width="10.03" height="6.89" rx="1.65" ry="1.65"/><path class="cls-7" d="M145.63,173.81A12.83,12.83,0,0,1,130,186.4a2.35,2.35,0,0,1-1.63-3.31h0a2.35,2.35,0,0,1,2.64-1.28,8.12,8.12,0,0,0,5.26-15.26,8.07,8.07,0,0,0-3.5-.79,8.26,8.26,0,0,0-8.12,8.25v24.15a2.35,2.35,0,0,1-2.35,2.35h0a2.35,2.35,0,0,1-2.35-2.35V174a13,13,0,0,1,12.9-13,12.81,12.81,0,0,1,12.74,12.75Z"/><rect class="cls-3" x="59.97" y="84.67" width="145.69" height="145.69" rx="17.68" ry="17.68"/><path class="cls-4" d="M244,101.4V88.06a.59.59,0,0,1,.28-.51,1.16,1.16,0,0,1,.67-.19h3.67a5.13,5.13,0,0,1,3,.77,3.08,3.08,0,0,1,1.11,2.72q0,2.5-1.71,3.26a3.28,3.28,0,0,1,1.55,1.16,3.86,3.86,0,0,1,.52,2.21v.38a4.21,4.21,0,0,1-1.09,3.22,4.13,4.13,0,0,1-2.92,1H245a1.09,1.09,0,0,1-.68-.2A.59.59,0,0,1,244,101.4Zm2.12-8.14h2.4a1.82,1.82,0,0,0,2-2.08q0-1.93-2.08-1.93h-2.36Zm0,6.93h2.52q2.28,0,2.28-2.5v-.32a2.52,2.52,0,0,0-.57-1.85,2.34,2.34,0,0,0-1.7-.56h-2.52Z"/><path class="cls-4" d="M254.86,98.28v-5a.6.6,0,0,1,.32-.49,1.33,1.33,0,0,1,.75-.21,1.28,1.28,0,0,1,.74.21.6.6,0,0,1,.31.49v5a2,2,0,0,0,.61,1.45,2,2,0,0,0,2.89,0,2,2,0,0,0,.6-1.46v-5a.58.58,0,0,1,.31-.48,1.37,1.37,0,0,1,.75-.2,1.26,1.26,0,0,1,.74.2.58.58,0,0,1,.29.48v5.06a3.75,3.75,0,0,1-1.23,2.78,4.2,4.2,0,0,1-5.85,0A3.73,3.73,0,0,1,254.86,98.28Z"/><path class="cls-4" d="M264.41,105.71q0-.91.58-.91a2.59,2.59,0,0,0,1.79-.87,4,4,0,0,0,1.09-2.44l-3.38-7.82a.44.44,0,0,1-.08-.28.86.86,0,0,1,.46-.69,1.65,1.65,0,0,1,.93-.31.61.61,0,0,1,.64.38L269,99.33l2.18-6.55a.62.62,0,0,1,.6-.38,1.74,1.74,0,0,1,.92.31.88.88,0,0,1,.49.74.48.48,0,0,1,0,.24l-3,7.88-.34.91-.37.87a8.05,8.05,0,0,1-.43.89l-.48.75a2.78,2.78,0,0,1-.6.69q-.3.23-.69.48a2.65,2.65,0,0,1-.85.36,4.24,4.24,0,0,1-1,.11Q264.41,106.62,264.41,105.71Z"/><path class="cls-4" d="M278.77,101.38V88.06q0-.7,1.07-.71a1.5,1.5,0,0,1,.91.25,2.76,2.76,0,0,1,.71,1l4.47,8.72V88a.55.55,0,0,1,.31-.51,1.75,1.75,0,0,1,1.51,0,.55.55,0,0,1,.31.51v13.34a.58.58,0,0,1-.31.51,1.41,1.41,0,0,1-.75.19,1.36,1.36,0,0,1-1.27-.79l-4.81-9.17v9.25a.58.58,0,0,1-.31.51,1.57,1.57,0,0,1-1.5,0A.58.58,0,0,1,278.77,101.38Z"/><path class="cls-4" d="M290,98.24V96.38a3.75,3.75,0,0,1,1.23-2.78,4.22,4.22,0,0,1,5.86,0,3.71,3.71,0,0,1,1.25,2.79v1.85A3.78,3.78,0,0,1,297.1,101a4.11,4.11,0,0,1-5.83,0A3.78,3.78,0,0,1,290,98.24Zm2.12,0a2.11,2.11,0,0,0,.6,1.47,1.93,1.93,0,0,0,2.89,0,2.09,2.09,0,0,0,.61-1.47V96.39a2,2,0,0,0-.61-1.44,2,2,0,0,0-2.89,0,2,2,0,0,0-.6,1.44Z"/><path class="cls-4" d="M299.3,93.34a.74.74,0,0,1,.44-.62,1.76,1.76,0,0,1,.91-.26.61.61,0,0,1,.64.38l2.24,6.27,1.71-5.56a.83.83,0,0,1,1.49,0l1.69,5.6,2.26-6.31a.57.57,0,0,1,.63-.38,1.79,1.79,0,0,1,.9.26.75.75,0,0,1,.45.64.72.72,0,0,1-.08.32l-3.12,8.18q-.16.42-.85.42t-.87-.4L306,96.69l-1.73,5.14q-.18.46-.91.46a.8.8,0,0,1-.85-.46l-3.12-8.14A1.29,1.29,0,0,1,299.3,93.34Z"/><path class="cls-4" d="M313.81,101.1a1,1,0,0,1,.38-.78,1.36,1.36,0,0,1,.92-.32,1.16,1.16,0,0,1,.82.32,1.05,1.05,0,0,1,0,1.56,1.14,1.14,0,0,1-.82.33,1.33,1.33,0,0,1-.92-.33A1,1,0,0,1,313.81,101.1Zm.12-12.9a.88.88,0,0,1,.32-.73,1.29,1.29,0,0,1,.83-.26,1,1,0,0,1,.75.27,1,1,0,0,1,.24.72q0,1.47,0,4.81T316,97.82a.54.54,0,0,1-.29.48,1.14,1.14,0,0,1-.6.17q-.91,0-.91-.65,0-1.47-.12-4.81T313.93,88.2Z"/><line class="cls-8" x1="242.69" y1="108.98" x2="410.46" y2="108.98"/><line class="cls-9" x1="242.69" y1="123.51" x2="410.46" y2="123.51"/><line class="cls-9" x1="242.69" y1="133.23" x2="410.46" y2="133.23"/><line class="cls-9" x1="242.69" y1="142.94" x2="410.46" y2="142.94"/><line class="cls-9" x1="242.69" y1="152.65" x2="410.46" y2="152.65"/><line class="cls-9" x1="242.69" y1="162.37" x2="410.46" y2="162.37"/><line class="cls-9" x1="242.69" y1="172.08" x2="410.46" y2="172.08"/><line class="cls-9" x1="242.69" y1="181.79" x2="410.46" y2="181.79"/><line class="cls-9" x1="242.69" y1="191.51" x2="384.26" y2="191.51"/><polygon class="cls-4" points="254.61 201.6 258.29 209.06 266.53 210.26 260.57 216.07 261.98 224.27 254.61 220.4 247.25 224.27 248.65 216.07 242.69 210.26 250.93 209.06 254.61 201.6"/><polygon class="cls-4" points="282.65 201.6 286.33 209.06 294.56 210.26 288.61 216.07 290.01 224.27 282.65 220.4 275.28 224.27 276.69 216.07 270.73 210.26 278.97 209.06 282.65 201.6"/><polygon class="cls-4" points="310.69 201.6 314.37 209.06 322.6 210.26 316.64 216.07 318.05 224.27 310.69 220.4 303.32 224.27 304.73 216.07 298.77 210.26 307.01 209.06 310.69 201.6"/><polygon class="cls-4" points="338.73 201.6 342.41 209.06 350.64 210.26 344.68 216.07 346.09 224.27 338.73 220.4 331.36 224.27 332.77 216.07 326.81 210.26 335.04 209.06 338.73 201.6"/><polygon class="cls-4" points="366.76 201.6 370.44 209.06 378.68 210.26 372.72 216.07 374.13 224.27 366.76 220.4 359.4 224.27 360.81 216.07 354.85 210.26 363.08 209.06 366.76 201.6"/></g></svg>