<svg id="Layer_1" data-name="Layer 1" xmlns="http://www.w3.org/2000/svg" viewBox="0 0 460 258.75"><defs><style>.cls-1,.cls-8,.cls-9{fill:none;}.cls-1{stroke:#ddd;stroke-width:2px;}.cls-1,.cls-6,.cls-7,.cls-8,.cls-9{stroke-linecap:round;stroke-miterlimit:10;}.cls-2{fill:#007500;}.cls-3,.cls-7{fill:#393;}.cls-4{fill:#333;}.cls-5{fill:#fff;}.cls-6{fill:#005600;}.cls-6,.cls-7,.cls-8,.cls-9{stroke:#333;}.cls-6,.cls-7,.cls-9{stroke-width:4px;}.cls-8{stroke-width:6px;}</style></defs><title>step-choose</title><line class="cls-1" x1="89" x2="89" y2="258.75"/><line class="cls-1" x1="102.33" x2="102.33" y2="258.75"/><line class="cls-1" x1="357.67" x2="357.67" y2="258.75"/><line class="cls-1" x1="371" x2="371" y2="258.75"/><line class="cls-1" x1="102.33" y1="217.33" x2="357.67" y2="217.33"/><line class="cls-1" x1="102.33" y1="81.53" x2="357.67" y2="81.53"/><line class="cls-1" x1="102.33" y1="73.53" x2="357.67" y2="73.53"/><line class="cls-1" x1="56.92" x2="56.92" y2="258.75"/><line class="cls-1" x1="70.25" x2="70.25" y2="258.75"/><line class="cls-1" y1="217.33" x2="56.92" y2="217.33"/><line class="cls-1" y1="209.33" x2="56.92" y2="209.33"/><line class="cls-1" y1="81.53" x2="56.92" y2="81.53"/><line class="cls-1" y1="73.53" x2="56.92" y2="73.53"/><line class="cls-1" x1="403.08" x2="403.08" y2="258.75"/><line class="cls-1" x1="389.75" x2="389.75" y2="258.75"/><line class="cls-1" x1="460" y1="217.33" x2="403.08" y2="217.33"/><line class="cls-1" x1="460" y1="209.33" x2="403.08" y2="209.33"/><line class="cls-1" x1="460" y1="81.53" x2="403.08" y2="81.53"/><line class="cls-1" x1="460" y1="73.53" x2="403.08" y2="73.53"/><line class="cls-1" x1="122.92" y1="152.67" x2="164.75" y2="110.83"/><line class="cls-1" x1="123.59" y1="188.33" x2="211.59" y2="100.33"/><line class="cls-1" x1="122.92" y1="287.18" x2="164.75" y2="245.34"/><line class="cls-1" x1="123.59" y1="322.84" x2="211.59" y2="234.84"/><line class="cls-1" x1="122.92" y1="15.83" x2="138.75"/><line class="cls-1" x1="123.59" y1="51.5" x2="175.09"/><rect class="cls-2" x="159.89" y="132.57" width="27.81" height="20.07"/><rect class="cls-3" x="154.92" y="150" width="37.75" height="59.33" rx="6.17" ry="6.17"/><rect class="cls-3" x="154.92" y="122.26" width="37.75" height="12.95" rx="4.38" ry="4.38"/><rect class="cls-4" x="159.89" y="113.4" width="27.81" height="8.86" rx="3.11" ry="3.11"/><rect class="cls-4" x="169.17" y="107.04" width="9.26" height="6.36" rx="1.52" ry="1.52"/><path class="cls-5" d="M185.62,173.23a11.84,11.84,0,0,1-14.39,11.62,2.17,2.17,0,0,1-1.5-3.06h0a2.17,2.17,0,0,1,2.43-1.18A7.49,7.49,0,0,0,177,166.53a7.44,7.44,0,0,0-3.23-.73,7.62,7.62,0,0,0-7.49,7.62V195.7a2.17,2.17,0,0,1-2.17,2.17h0A2.17,2.17,0,0,1,162,195.7V173.43a12,12,0,0,1,11.9-12,11.82,11.82,0,0,1,11.76,11.77Z"/><rect class="cls-4" x="286.78" y="164.8" width="5.27" height="1.87" rx="0.93" ry="0.93"/><line class="cls-1" x1="102.33" y1="209.33" x2="357.67" y2="209.33"/><path class="cls-6" d="M254.86,205.75c28.9,5.84,60.73,2.5,68.73-.66L304.5,191.62l-33.25.38C270.75,192,254.86,205.75,254.86,205.75Z"/><path class="cls-7" d="M324,206.8c-11-5.55-40.32-17.07-69.14-.34C254.85,154.17,324,156.5,324,206.8Z"/><path class="cls-8" d="M250.31,209.33c37.83-26.07,78.22,0,78.22,0"/><line class="cls-9" x1="323.99" y1="206.81" x2="323.99" y2="206.8"/><path class="cls-5" d="M295.2,179.58a5.78,5.78,0,0,1-7,5.68,1.06,1.06,0,0,1-.73-1.49h0a1.06,1.06,0,0,1,1.19-.58,3.66,3.66,0,0,0,2.37-6.88,3.64,3.64,0,0,0-1.58-.36,3.72,3.72,0,0,0-3.66,3.72v10.89a1.06,1.06,0,0,1-1.06,1.06h0a1.06,1.06,0,0,1-1.06-1.06V179.68a5.85,5.85,0,0,1,5.82-5.85,5.78,5.78,0,0,1,5.74,5.75Z"/></svg>