<svg xmlns="http://www.w3.org/2000/svg" viewBox="0 0 460 258.75"><defs><style>.cls-1{isolation:isolate;}.cls-12,.cls-2{fill:#fff;}.cls-2,.cls-3{stroke:#ddd;}.cls-2,.cls-3,.cls-4{stroke-linecap:round;stroke-width:2px;}.cls-2,.cls-3,.cls-4,.cls-6{stroke-miterlimit:10;}.cls-3,.cls-4,.cls-6{fill:none;}.cls-4,.cls-6{stroke:#333;}.cls-5{fill:#333;}.cls-6{stroke-width:7px;}.cls-7{fill:#198c19;}.cls-8{fill:#ddd;}.cls-9{fill:#999;}.cls-10{fill:#393;}.cls-11{opacity:0.5;mix-blend-mode:darken;}</style></defs><title>step-build-logo</title><g class="cls-1"><g id="Layer_1" data-name="Layer 1"><path class="cls-2" d="M243.19,77.53a14.64,14.64,0,0,1-.25-2.88,19.49,19.49,0,0,1,19.49-19.49,20.7,20.7,0,0,1,5.75.84,21.46,21.46,0,0,1,39.93-4.67,19.41,19.41,0,0,1,15.31-7.49,18.27,18.27,0,0,1,5.07.68,25.13,25.13,0,0,1,50.11,2.72v.12a21.47,21.47,0,0,1,33.25,18,12.58,12.58,0,0,1-.09,1.55,14.36,14.36,0,0,1,5.66-1.18,14.17,14.17,0,0,1,14,11.82"/><line class="cls-2" x1="332.9" y1="77.53" x2="438.53" y2="77.53"/><line class="cls-2" x1="240.4" y1="87.59" x2="364.14" y2="87.59"/><line class="cls-2" x1="226.69" y1="77.53" x2="254.11" y2="77.53"/><path class="cls-2" d="M50.21,57.93A10.72,10.72,0,0,1,50,55.82,14.27,14.27,0,0,1,64.3,41.55a15.16,15.16,0,0,1,4.21.61,15.72,15.72,0,0,1,29.24-3.42A14.22,14.22,0,0,1,109,33.26a13.38,13.38,0,0,1,3.71.5,18.4,18.4,0,0,1,36.7,2v.09A15.72,15.72,0,0,1,173.73,49a9.21,9.21,0,0,1-.07,1.13,10.52,10.52,0,0,1,4.15-.86A10.37,10.37,0,0,1,188,57.93"/><line class="cls-2" x1="115.9" y1="57.93" x2="193.26" y2="57.93"/><line class="cls-2" x1="48.17" y1="65.29" x2="138.78" y2="65.29"/><line class="cls-2" x1="38.13" y1="57.93" x2="58.21" y2="57.93"/><rect class="cls-2" x="27.67" y="121.69" width="53.52" height="87.64"/><rect class="cls-2" x="103.39" y="81.49" width="49.31" height="127.84"/><line class="cls-3" x1="4.33" y1="209.33" x2="441.67" y2="209.33"/><line class="cls-4" x1="288.41" y1="138.27" x2="276.51" y2="156.05"/><line class="cls-4" x1="296.41" y1="152.42" x2="288.41" y2="138.27"/><line class="cls-4" x1="325.63" y1="157.68" x2="288.41" y2="138.27"/><line class="cls-4" x1="254.18" y1="156.05" x2="288.41" y2="138.27"/><path class="cls-5" d="M281,58.82l-72.17,88.81L188,133.3l81.25-74.48H281m10.35-9h-25.6l-92.17,84.49,37,25.44,80.77-99.39V49.82Z"/><polyline class="cls-6" points="185.04 131.73 224.65 131.73 224.65 95.59 253.35 95.59 253.35 69.99 277.45 69.99"/><rect class="cls-7" x="151.81" y="185.39" width="51.81" height="13.34"/><path class="cls-8" d="M143.73,227.5a15.64,15.64,0,1,1,0-31.27h68a15.64,15.64,0,0,1,0,31.27Z"/><path class="cls-5" d="M211.7,198.73a13.14,13.14,0,0,1,13.14,13.14h0A13.14,13.14,0,0,1,211.7,225h-68a13.14,13.14,0,0,1-13.14-13.14h0a13.14,13.14,0,0,1,13.14-13.14h68m0-5h-68a18.14,18.14,0,0,0,0,36.27h68a18.14,18.14,0,0,0,0-36.27Z"/><path class="cls-5" d="M143.73,223a11.14,11.14,0,1,1,11.14-11.14A11.15,11.15,0,0,1,143.73,223Z"/><path class="cls-9" d="M143.73,202.73a9.14,9.14,0,1,1-9.14,9.14,9.15,9.15,0,0,1,9.14-9.14m0-4a13.14,13.14,0,1,0,13.14,13.14,13.14,13.14,0,0,0-13.14-13.14Z"/><path class="cls-5" d="M211.7,223a11.14,11.14,0,1,1,11.14-11.14A11.15,11.15,0,0,1,211.7,223Z"/><path class="cls-9" d="M211.7,202.73a9.14,9.14,0,1,1-9.14,9.14,9.15,9.15,0,0,1,9.14-9.14m0-4a13.14,13.14,0,1,0,13.14,13.14,13.14,13.14,0,0,0-13.14-13.14Z"/><path class="cls-10" d="M224.46,159.11v10.35a15.93,15.93,0,0,1-15.93,15.93H146.9A15.93,15.93,0,0,1,131,169.46v-31.7a15.93,15.93,0,0,1,15.93-15.93h24.3l6.52,37.29Z"/><rect class="cls-11" x="151.81" y="185.39" width="51.81" height="2.59"/><path class="cls-12" d="M180.24,156.11l-5.47-31.29h4.64a12.91,12.91,0,0,1,7.33,2.27l29.12,20a12.93,12.93,0,0,1,5.5,9Z"/><path class="cls-5" d="M179.41,127.82a9.91,9.91,0,0,1,5.62,1.74l29.13,20a9.93,9.93,0,0,1,3.14,3.51H182.76l-4.42-25.29h1.07m0-6H171.2l6.52,37.29h46.75v-1.32a15.93,15.93,0,0,0-6.91-13.13l-29.13-20a16,16,0,0,0-9-2.8Z"/><line class="cls-6" x1="288.41" y1="49.82" x2="288.41" y2="138.27"/><circle class="cls-9" cx="288.41" cy="138.27" r="4.38"/><rect class="cls-2" x="63" y="154.67" width="44" height="54.67"/><rect class="cls-2" x="381" y="96.67" width="49.33" height="112.67"/><rect class="cls-2" x="355.67" y="131.55" width="50.67" height="77.78"/><path class="cls-10" d="M261.26,162.5a7.88,7.88,0,0,1-9.58,7.74,1.45,1.45,0,0,1-1-2h0a1.45,1.45,0,0,1,1.62-.79,5,5,0,0,0,3.23-9.37,5,5,0,0,0-2.15-.49,5.07,5.07,0,0,0-5,5.07v14.84a1.44,1.44,0,0,1-1.44,1.44h0a1.44,1.44,0,0,1-1.44-1.44V162.64a8,8,0,0,1,7.93-8,7.87,7.87,0,0,1,7.83,7.83Z"/><path class="cls-10" d="M263.55,165.13V163a4.32,4.32,0,0,1,1.41-3.2,4.86,4.86,0,0,1,6.75,0,4.27,4.27,0,0,1,1.44,3.21v2.13a4.35,4.35,0,0,1-1.45,3.21,4.73,4.73,0,0,1-6.71,0A4.36,4.36,0,0,1,263.55,165.13Zm2.43,0a2.42,2.42,0,0,0,.7,1.69,2.22,2.22,0,0,0,3.33,0,2.4,2.4,0,0,0,.71-1.69V163a2.34,2.34,0,0,0-.71-1.66,2.25,2.25,0,0,0-3.33,0A2.36,2.36,0,0,0,266,163Z"/><path class="cls-10" d="M275.5,168.74V152.81a.66.66,0,0,1,.34-.57,1.56,1.56,0,0,1,.87-.22,1.63,1.63,0,0,1,.87.22.65.65,0,0,1,.36.57v15.93a.7.7,0,0,1-.37.56,1.48,1.48,0,0,1-.86.25,1.41,1.41,0,0,1-.86-.25A.71.71,0,0,1,275.5,168.74Z"/><path class="cls-10" d="M280.48,154.53a1.17,1.17,0,0,1,.42-.9,1.53,1.53,0,0,1,2,0,1.18,1.18,0,0,1,0,1.8,1.49,1.49,0,0,1-2,0A1.18,1.18,0,0,1,280.48,154.53Zm.21,14.22v-9.39a.66.66,0,0,1,.34-.57,1.56,1.56,0,0,1,.87-.22,1.61,1.61,0,0,1,.88.22.65.65,0,0,1,.35.57v9.39a.7.7,0,0,1-.36.56,1.46,1.46,0,0,1-.87.25,1.41,1.41,0,0,1-.86-.25A.71.71,0,0,1,280.69,168.74Z"/><path class="cls-10" d="M285,167.88a1.3,1.3,0,0,1,.25-.72.71.71,0,0,1,.6-.37,1.15,1.15,0,0,1,.58.27,5.28,5.28,0,0,0,1,.54,3.82,3.82,0,0,0,1.52.27q2,0,2-1.26a1.21,1.21,0,0,0-.58-1.06,4.75,4.75,0,0,0-1.4-.61q-.82-.22-1.64-.5a3.16,3.16,0,0,1-1.39-1,2.6,2.6,0,0,1-.58-1.75,3.21,3.21,0,0,1,1-2.34,4.06,4.06,0,0,1,3-1,6.77,6.77,0,0,1,2.4.41q1.08.41,1.08,1a1.49,1.49,0,0,1-.27.75.77.77,0,0,1-.66.43,4.63,4.63,0,0,1-1-.35,4,4,0,0,0-1.55-.35,2.07,2.07,0,0,0-1.4.42,1.23,1.23,0,0,0-.47.93,1,1,0,0,0,.58.89,5.77,5.77,0,0,0,1.42.54,15.32,15.32,0,0,1,1.64.51,3,3,0,0,1,2,3,2.85,2.85,0,0,1-1.07,2.35,4.71,4.71,0,0,1-3,.85,6.29,6.29,0,0,1-2.82-.58Q285,168.58,285,167.88Z"/><path class="cls-10" d="M295.07,168.74V152.83a.66.66,0,0,1,.34-.57,1.56,1.56,0,0,1,.87-.22,1.63,1.63,0,0,1,.87.22.65.65,0,0,1,.36.57v7.37a3.27,3.27,0,0,1,3-1.78,3.68,3.68,0,0,1,2.84,1.35,4.69,4.69,0,0,1,1.19,3.22v5.75a.67.67,0,0,1-.37.59,1.64,1.64,0,0,1-.86.22,1.61,1.61,0,0,1-.83-.22.66.66,0,0,1-.37-.59V163a2.37,2.37,0,0,0-.7-1.67,2.18,2.18,0,0,0-1.65-.74,2.15,2.15,0,0,0-1.55.66,2.34,2.34,0,0,0-.67,1.75v5.74a.7.7,0,0,1-.37.56,1.48,1.48,0,0,1-.86.25,1.41,1.41,0,0,1-.86-.25A.7.7,0,0,1,295.07,168.74Z"/><path class="cls-10" d="M306.55,165.13v-2.2a4.2,4.2,0,0,1,1.41-3.17,4.79,4.79,0,0,1,3.41-1.33,4.73,4.73,0,0,1,3.26,1.21,3.9,3.9,0,0,1,1.36,3,3.35,3.35,0,0,1-.16,1.15,1.07,1.07,0,0,1-.51.62,2.22,2.22,0,0,1-.65.22,5.33,5.33,0,0,1-.79,0H309v.54a2.29,2.29,0,0,0,.83,1.86,3.32,3.32,0,0,0,2.18.69,3.82,3.82,0,0,0,1.8-.44,3.8,3.8,0,0,1,1-.44.82.82,0,0,1,.67.37,1.21,1.21,0,0,1,.28.72q0,.57-1.11,1.16a6.59,6.59,0,0,1-6.61-.69A4.16,4.16,0,0,1,306.55,165.13Zm2.43-2h3.85a1.19,1.19,0,0,0,.68-.14.68.68,0,0,0,.17-.55,2.06,2.06,0,0,0-.67-1.55,2.33,2.33,0,0,0-1.67-.64,2.46,2.46,0,0,0-1.67.61,2,2,0,0,0-.7,1.54Z"/><path class="cls-10" d="M317.54,165.13V163a4.64,4.64,0,0,1,1.22-3.22,3.82,3.82,0,0,1,2.93-1.35,3.24,3.24,0,0,1,1.81.52,3.61,3.61,0,0,1,1.21,1.27v-7.37a.65.65,0,0,1,.35-.57,1.61,1.61,0,0,1,.88-.22,1.57,1.57,0,0,1,.87.22.66.66,0,0,1,.34.57v15.91a.7.7,0,0,1-.35.56,1.41,1.41,0,0,1-.86.25,1.24,1.24,0,0,1-.78-.26.72.72,0,0,1-.34-.56v-.82a3.19,3.19,0,0,1-1.26,1.29,3.65,3.65,0,0,1-4.79-.86A4.73,4.73,0,0,1,317.54,165.13Zm2.43,0a2.43,2.43,0,0,0,.7,1.69,2.18,2.18,0,0,0,1.65.75,2.34,2.34,0,0,0,1.65-.7,1.9,1.9,0,0,0,.74-1.21V163a2.25,2.25,0,0,0-.72-1.73,2.35,2.35,0,0,0-1.65-.67,2.23,2.23,0,0,0-1.66.74A2.34,2.34,0,0,0,320,163Z"/></g></g></svg>