<?xml version="1.0" encoding="utf-8"?>
<!-- Generator: Adobe Illustrator 21.0.2, SVG Export Plug-In . SVG Version: 6.00 Build 0)  -->
<svg version="1.1" id="Layer_1" xmlns="http://www.w3.org/2000/svg" xmlns:xlink="http://www.w3.org/1999/xlink" x="0px" y="0px"
	 viewBox="0 0 328.9 328.9" style="enable-background:new 0 0 328.9 328.9;" xml:space="preserve">
<style type="text/css">
	.st0{fill:#BD2C22;}
	.st1{fill:#C13027;}
	.st2{fill:#A4271E;}
	.st3{fill:#C4402E;}
	.st4{fill:#C5422F;}
	.st5{fill:#AE312A;}
	.st6{fill:#C02A2C;}
	.st7{fill:#AD322B;}
	.st8{fill:#9A2420;}
	.st9{fill:#580200;}
	.st10{fill:#6D1009;}
	.st11{fill:#7E1913;}
	.st12{fill:#660C03;}
	.st13{fill:#881D18;}
	.st14{fill:none;}
</style>
<title>tc-jersey-logo</title>
<g>
	<polygon class="st0" points="36.3,255.3 5.5,241.5 28.8,223.5 	"/>
	<polygon class="st1" points="60.4,211.7 60.4,211.7 36.3,255.3 28.8,223.5 	"/>
	<polygon class="st2" points="85.5,277.4 36.3,255.3 76.3,253.3 	"/>
	<polygon class="st1" points="130.5,282.3 85.5,277.4 129.1,260.9 	"/>
	<polygon class="st3" points="129.1,260.9 85.5,277.4 98.8,239.2 	"/>
	<polygon class="st4" points="128.9,132.1 114.8,194.3 101.2,86.8 	"/>
	<polygon class="st1" points="132.9,96.5 128.9,132.1 101.2,86.8 	"/>
	<polygon class="st1" points="164.5,34.9 164.5,89.7 132.9,96.5 	"/>
	<polygon class="st1" points="243.2,277.5 212.3,289.9 164.3,286 207.3,281.4 	"/>
	<polygon class="st2" points="261.8,293.9 212.3,289.9 243.2,277.5 	"/>
	<polygon class="st0" points="328.4,169.2 279.1,204.3 267.5,178 	"/>
	<polygon class="st1" points="279.1,204.3 258.2,219.2 258.2,219.2 214,194.4 	"/>
	<polygon class="st2" points="267.5,178 214,194.4 258.1,150.1 	"/>
	<polygon class="st4" points="164.5,89.7 164.4,156.7 132.9,96.5 	"/>
	<polygon class="st5" points="28.8,223.5 0.5,168.9 22.5,184.7 22.5,184.7 	"/>
	<polygon class="st6" points="60.4,211.7 28.8,223.5 22.5,184.7 	"/>
	<polygon class="st1" points="98.8,239.2 85.5,277.4 76.3,253.3 60.4,211.7 	"/>
	<polygon class="st7" points="164.3,286 130.5,282.3 129.1,260.9 	"/>
	<polygon class="st2" points="203.1,258.4 164.3,286 184.2,249.4 	"/>
	<polygon class="st4" points="76.3,253.3 36.3,255.3 60.4,211.7 60.4,211.7 	"/>
	<polygon class="st0" points="164.4,156.7 128.9,132.1 132.9,96.5 	"/>
	<polygon class="st1" points="164.4,156.7 136,233.6 114.8,194.3 	"/>
	<polygon class="st2" points="164.4,156.7 114.8,194.3 128.9,132.1 	"/>
	<polygon class="st0" points="164.4,156.7 164.4,247.2 136,233.6 	"/>
	<polygon class="st5" points="164.4,247.2 164.3,286 136,233.6 	"/>
	<polygon class="st1" points="279.1,204.3 214,194.4 267.5,178 	"/>
	<polygon class="st4" points="258.2,219.2 258.2,219.2 184.2,249.4 214,194.4 	"/>
	<polygon class="st1" points="258.2,219.2 222.4,244.7 222.4,244.7 222.4,244.7 203.1,258.4 184.2,249.4 	"/>
	<polygon class="st8" points="61.4,177.9 60.4,211.7 22.5,184.7 22.5,184.7 35,193.5 	"/>
	<polygon class="st9" points="88.2,186.1 61.4,177.9 70.7,149.9 88.1,185.7 	"/>
	<polygon class="st8" points="114.8,194.3 88.2,186.1 88.1,185.7 70.7,149.9 	"/>
	<polygon class="st10" points="114.8,194.3 98.8,239.2 88.2,186.1 	"/>
	<polygon class="st9" points="114.4,290 66.8,293.8 85.5,277.4 	"/>
	<polygon class="st10" points="164.3,286 114.4,290 130.5,282.3 	"/>
	<polygon class="st11" points="196.1,96.5 164.5,124.8 164.5,34.9 	"/>
	<polygon class="st9" points="227.7,86.9 200.5,122.6 196.1,96.5 	"/>
	<polygon class="st8" points="227.7,86.9 214,194.4 200.5,122.6 	"/>
	<polygon class="st11" points="214,194.4 189.2,175.6 189.2,175.5 200.5,122.6 	"/>
	<polygon class="st9" points="189.2,175.5 189.2,175.6 164.4,247.2 164.4,156.7 	"/>
	<polygon class="st8" points="243.2,277.5 207.3,281.4 222.4,244.7 222.4,244.7 	"/>
	<polygon class="st10" points="323.3,241.8 243.2,277.5 288.1,240.7 	"/>
	<polygon class="st11" points="323.3,241.8 288.1,240.7 252.9,239.6 300,223.7 	"/>
	<polygon class="st9" points="328.4,169.2 300,223.7 258.2,219.2 279.1,204.3 	"/>
	<polygon class="st8" points="164.3,286 129.1,260.9 136,233.6 	"/>
	<polygon class="st8" points="184.2,249.4 164.3,286 164.4,247.2 	"/>
	<polygon class="st12" points="222.4,244.7 207.3,281.4 164.3,286 203.1,258.4 	"/>
	<polygon class="st11" points="98.8,239.2 60.4,211.7 60.4,211.7 60.4,211.7 61.4,177.9 	"/>
	<polygon class="st11" points="61.4,177.9 35,193.5 22.5,184.7 0.5,168.9 	"/>
	<polygon class="st8" points="98.8,239.2 61.4,177.9 88.2,186.1 	"/>
	<polygon class="st8" points="130.5,282.3 114.4,290 85.5,277.4 	"/>
	<polygon class="st12" points="136,233.6 129.1,260.9 98.8,239.2 	"/>
	<polygon class="st13" points="136,233.6 98.8,239.2 114.8,194.3 	"/>
	<polygon class="st8" points="200.5,122.6 164.5,124.8 196.1,96.5 	"/>
	<polygon class="st8" points="189.2,175.5 164.4,156.7 164.5,124.8 	"/>
	<polygon class="st10" points="200.5,122.6 189.2,175.5 164.5,124.8 	"/>
	<polygon class="st8" points="300,223.7 252.9,239.6 258.2,219.2 	"/>
	<polygon class="st8" points="214,194.4 164.4,247.2 189.2,175.6 	"/>
	<polygon class="st12" points="214,194.4 184.2,249.4 164.4,247.2 	"/>
	<polygon class="st9" points="258.2,219.2 252.9,239.6 243.2,277.5 222.4,244.7 222.4,244.7 258.2,219.2 258.2,219.2 	"/>
	<polygon class="st8" points="288.1,240.7 243.2,277.5 252.9,239.6 	"/>
	<line class="st14" x1="207.3" y1="281.4" x2="207.2" y2="281.8"/>
</g>
</svg>
