<svg id="Layer_1" data-name="Layer 1" xmlns="http://www.w3.org/2000/svg" viewBox="0 0 61.2 89.21"><defs><style>.cls-1{fill:#349946;}</style></defs><title>tour-1</title><path class="cls-1" d="M16.73,17.89a6.36,6.36,0,0,1,3-5.72l14.36-11A5,5,0,0,1,37.41,0a8.59,8.59,0,0,1,4.87,1.46,4.29,4.29,0,0,1,2.19,3.65v79.1a4.07,4.07,0,0,1-2.37,3.65,11.07,11.07,0,0,1-5.54,1.34A11,11,0,0,1,31,87.87a4.07,4.07,0,0,1-2.31-3.65v-65l-3.89,3.89a4.22,4.22,0,0,1-2.92,1.1,4.4,4.4,0,0,1-3.65-1.95A7.11,7.11,0,0,1,16.73,17.89Z"/></svg>