<svg id="Layer_1" data-name="Layer 1" xmlns="http://www.w3.org/2000/svg" viewBox="0 0 61.2 88.96"><defs><style>.cls-1{fill:#349946;}</style></defs><title>tour-2</title><path class="cls-1" d="M7,83.95V72.08a18.43,18.43,0,0,1,3.68-10.64,47.3,47.3,0,0,1,8.91-9.54l11.68-8.46a58.55,58.55,0,0,0,9.79-9.08q4-4.78,4-9.57a11.27,11.27,0,0,0-2.88-7.61q-2.88-3.31-8.5-3.31a11.25,11.25,0,0,0-7.83,2.76q-3.06,2.76-3.06,8.27a5.34,5.34,0,0,1-2.22,4.2,9.06,9.06,0,0,1-5.93,1.82q-7.07,0-7.07-8.52A19.77,19.77,0,0,1,15.39,6.21,28.27,28.27,0,0,1,33.63,0,29.38,29.38,0,0,1,52.85,6.64Q61,13.29,61,24.3a25.87,25.87,0,0,1-4,13.8A40.94,40.94,0,0,1,47.29,49Q41.55,53.5,35.88,57.3a71.78,71.78,0,0,0-9.65,7.61q-4,3.8-4,7.24v2.94H56.2a4.35,4.35,0,0,1,3.48,2A7.72,7.72,0,0,1,61.2,81.9a8.38,8.38,0,0,1-1.49,4.93A4.19,4.19,0,0,1,56.31,89H13.84a8.28,8.28,0,0,1-4.53-1.47A4.21,4.21,0,0,1,7,83.95Z"/></svg>