<svg id="Layer_1" data-name="Layer 1" xmlns="http://www.w3.org/2000/svg" viewBox="0 0 61.2 89.69"><defs><style>.cls-1{fill:#349946;}</style></defs><title>tour-5</title><path class="cls-1" d="M2.06,67.66q0-4,1.95-5.6t6-1.58q4.62,0,6.27,1.58a6,6,0,0,1,1.64,4.5,7.81,7.81,0,0,0,3.53,6.82,15.51,15.51,0,0,0,9,2.43q12.9,0,12.9-13.51V60q0-6.81-3.35-10.22t-9.43-3.41h-18Q9,46.37,7.6,44.79a6.71,6.71,0,0,1-1.4-4.6,4.65,4.65,0,0,1,.42-1.51A4.69,4.69,0,0,0,7,37L9.49,5q.36-5,3-5H50a3.91,3.91,0,0,1,3.47,2.07,9.08,9.08,0,0,1,1.28,4.87,9.11,9.11,0,0,1-1.27,4.87A3.89,3.89,0,0,1,50,13.87H22.75L21.17,34h9.37q13,0,20.81,6.27T59.14,60v2.31q0,14.12-7.79,20.75T30.78,89.69q-13.27,0-21-6.51T2.06,67.66Z"/></svg>