<svg id="Layer_1" data-name="Layer 1" xmlns="http://www.w3.org/2000/svg" viewBox="0 0 61.2 89.69"><defs><style>.cls-1{fill:#349946;}</style></defs><title>tour-3</title><path class="cls-1" d="M2,67.54Q2,64,3.7,62.67t5.84-1.34q4.75,0,6.45,1.28t1.7,4.32a7.51,7.51,0,0,0,3.41,6.51q3.41,2.37,9.25,2.37,6.81,0,9.92-3.1t3.1-10V60.36Q43.38,48.8,30,48.8q-4.63,0-4.62-6.21t4.71-6.21q5.31,0,8.21-2.36t2.9-9.5q0-10.65-10.71-10.65T19.65,22Q19.65,28,12.1,28,7,28,5.47,26.64T3.95,21.26a19.42,19.42,0,0,1,1.34-7,23,23,0,0,1,4.2-6.78,20.31,20.31,0,0,1,8.34-5.38A36,36,0,0,1,30.6,0Q56.4,0,56.4,21.86a29.68,29.68,0,0,1-2.52,12.67A14.45,14.45,0,0,1,46.82,42Q59.2,46.85,59.2,60.36v2.31q0,13.87-8.09,20.45T30,89.69q-13.75,0-20.87-6.81T2,67.54Z"/></svg>