<svg id="Layer_1" data-name="Layer 1" xmlns="http://www.w3.org/2000/svg" viewBox="0 0 61.2 88.96"><defs><style>.cls-1{fill:#349946;}</style></defs><title>tour-4</title><path class="cls-1" d="M.05,63.48a6.52,6.52,0,0,1,.85-3.14L29.75,4.1A6.83,6.83,0,0,1,36.44,0a9.66,9.66,0,0,1,5.17,1.76q2.74,1.77,2.74,4.32a4.83,4.83,0,0,1-.61,2.07L20.38,54.89H34.62V41.5a4.25,4.25,0,0,1,2.31-3.89,11,11,0,0,1,5.6-1.34,11,11,0,0,1,5.6,1.34,4.26,4.26,0,0,1,2.31,3.89V54.89h5.72A4.15,4.15,0,0,1,59.81,57a8.87,8.87,0,0,1,1.34,4.93,8,8,0,0,1-1.52,4.76,4.29,4.29,0,0,1-3.47,2.12H50.44v15a4.28,4.28,0,0,1-2.31,3.81,10.63,10.63,0,0,1-5.6,1.4A10.71,10.71,0,0,1,37,87.56a4.26,4.26,0,0,1-2.37-3.81v-15H5.41a5.36,5.36,0,0,1-3.83-1.43A5,5,0,0,1,.05,63.48Z"/></svg>