<svg xmlns="http://www.w3.org/2000/svg" id="Layer_1" viewBox="0 0 100 100" width="100" height="100"><defs><style>.cls-1{fill:#fff}</style></defs><path d="M50 31.1C47.16 8.34 75-.19 85.85 16.76c7.61-4 9.29-5.11 10.82-5.71-1.95 7.69-7.13 12.14-8.89 13.06L100 20.16c-4.08 8.75-9.95 11-9.95 11C92.31 68.79 53.9 111.21 0 83c18.84 1.2 29.06-8.07 29.06-8.07-11.16.28-19.51-10.11-19.21-13.81 5.64 1.71 13 2.45 16.22.27-19-6.25-22.77-18-23-23.3a40.27 40.27 0 0 0 9.4 3c-13.54-8.92-9.88-22-6.36-26.62C19.81 32.27 50 31.1 50 31.1z" class="cls-1"/></svg>